<?xml version="1.0" standalone="no"?>
<!DOCTYPE svg PUBLIC "-//W3C//DTD SVG 1.1//EN" "http://www.w3.org/Graphics/SVG/1.1/DTD/svg11.dtd" >
<svg xmlns="http://www.w3.org/2000/svg">
<metadata>
This is a custom SVG webfont generated by Font Squirrel.
</metadata>
<defs>
<font id="webfontzehfa9ZT" horiz-adv-x="1173" >
<font-face units-per-em="2048" ascent="1571" descent="-477" />
<missing-glyph horiz-adv-x="681" />
<glyph unicode=" "  horiz-adv-x="681" />
<glyph unicode="&#x09;" horiz-adv-x="681" />
<glyph unicode="&#xa0;" horiz-adv-x="681" />
<glyph unicode="!" horiz-adv-x="641" d="M156 117q0 59 48 98t115 39q70 0 118 -39t48 -98q0 -57 -47 -98.5t-118.5 -41.5t-117.5 41.5t-46 98.5zM170 1221q-8 53 2 68.5t55 15.5h185q47 0 56 -14.5t3 -69.5l-117 -762h-69z" />
<glyph unicode="&#x22;" horiz-adv-x="1130" d="M176 1151q0 66 42 110t105.5 44t105.5 -44t42 -110q0 -51 -20 -129l-103 -383h-49l-102 383q-21 78 -21 129zM659 1151q0 66 42 110t105.5 44t105.5 -44t42 -110q0 -51 -20 -129l-103 -383h-49l-102 383q-21 78 -21 129z" />
<glyph unicode="#" horiz-adv-x="1368" d="M86 326v143h219l74 350h-293v144h322l86 397h143l-86 -397h399l84 397h144l-84 -397h188v-144h-215l-74 -350h289v-143h-317l-84 -396h-144l84 396h-401l-84 -396h-143l83 396h-190zM449 469h401l74 350h-402z" />
<glyph unicode="$" horiz-adv-x="980" d="M59 258q0 51 32 84t79 33q61 0 92 -46t37 -103.5t41 -111t104 -65.5v496q-176 86 -263 179t-87 226t89 224.5t261 113.5v88h64v-88q139 -4 246.5 -77.5t107.5 -161.5q0 -43 -30.5 -74t-75.5 -31q-55 0 -85 36t-40 82t-40 92t-83 63v-410q213 -104 307 -200.5t94 -239.5 q0 -156 -112.5 -264.5t-288.5 -122.5v-170h-64v170q-158 6 -271.5 89t-113.5 189zM285 1055q0 -121 159 -213v381q-70 -10 -114.5 -57.5t-44.5 -110.5zM508 47q82 12 136 74.5t54 144.5q0 76 -45 133.5t-145 110.5v-463z" />
<glyph unicode="%" horiz-adv-x="1835" d="M125 954q0 156 72.5 253.5t189.5 97.5q119 0 191.5 -96.5t72.5 -254.5q0 -150 -74.5 -247t-189.5 -97t-188.5 97t-73.5 247zM303 811q0 -147 84 -147q53 0 69.5 38.5t16.5 108.5v299q0 143 -86 143q-84 0 -84 -143v-299zM389 -57l911 1364h146l-911 -1364h-146zM1184 328 q0 156 72.5 253t189.5 97q119 0 191.5 -96.5t72.5 -253.5q0 -150 -74.5 -247t-189.5 -97t-188.5 97t-73.5 247zM1362 184q0 -147 84 -147q53 0 69.5 39t16.5 108v299q0 143 -86 144q-84 0 -84 -144v-299z" />
<glyph unicode="&#x26;" horiz-adv-x="1536" d="M117 319q0 117 79.5 203t249.5 156q-152 139 -151 270q0 111 94 179.5t246 68.5q135 0 217 -58.5t82 -154.5q0 -150 -186 -238q78 -57 137 -118.5t145 -177.5q57 82 108.5 184t51.5 137t-94 35h-25v78h406v-78h-33q-86 0 -123 -37q-23 -23 -100.5 -167t-141.5 -230 q12 -20 36 -63.5t34 -59.5l30 -46q19 -30 30.5 -42.5t28.5 -28.5t34.5 -21.5t36.5 -5.5q57 0 114 54l39 -74q-123 -113 -291 -113q-92 0 -151 40t-129 147q-82 -86 -194.5 -136.5t-221.5 -50.5q-150 0 -254 96t-104 252zM369 399q0 -113 72.5 -196.5t168.5 -83.5 q109 0 236 119q-90 172 -332 389q-145 -89 -145 -228zM518 1008q0 -57 34 -100.5t122 -112.5q88 82 88 180q0 66 -37 104.5t-96 38.5q-51 0 -81 -29.5t-30 -80.5z" />
<glyph unicode="'" horiz-adv-x="575" d="M141 1151q0 66 42 110t105.5 44t105.5 -44t42 -110q0 -51 -20 -129l-103 -383h-49l-102 383q-21 78 -21 129z" />
<glyph unicode="(" horiz-adv-x="724" d="M137 450.5q0 477.5 447 854.5h86q-283 -324 -283 -854.5t283 -853.5h-86q-447 376 -447 853.5z" />
<glyph unicode=")" horiz-adv-x="724" d="M55 -403q283 324 283 854t-283 854h86q446 -377 446.5 -854.5t-446.5 -853.5h-86z" />
<glyph unicode="*" horiz-adv-x="1067" d="M74 938l24 78l326 -29l70 318h75l72 -318l328 29l24 -78l-282 -162l129 -301l-66 -41l-246 215l-241 -215l-68 41l133 301z" />
<glyph unicode="+" horiz-adv-x="1366" d="M135 590v155h469v469h156v-469h469v-155h-469v-469h-156v469h-469z" />
<glyph unicode="," horiz-adv-x="641" d="M131 116.5q0 61.5 44 99.5t114 38q100 0 160.5 -63.5t60.5 -172.5q0 -139 -95.5 -229t-240.5 -88l-16 86q98 8 161.5 55t63.5 115q0 14 -5 21.5t-15.5 8.5t-20.5 0t-27.5 -3t-29.5 -2q-74 0 -114 36.5t-40 98z" />
<glyph unicode="-" horiz-adv-x="854" d="M72 313v201h708v-201h-708z" />
<glyph unicode="." horiz-adv-x="641" d="M156 117q0 59 48 98t115 39q70 0 118 -39t48 -98q0 -57 -47 -98.5t-118.5 -41.5t-117.5 41.5t-46 98.5z" />
<glyph unicode="/" horiz-adv-x="1087" d="M96 -37l731 1350h166l-731 -1350h-166z" />
<glyph unicode="0" horiz-adv-x="1024" d="M86 637q0 317 123 492.5t303 175.5q174 0 299 -171t125 -497q0 -176 -40 -311.5t-104.5 -209t-135 -109.5t-144.5 -36q-178 0 -302 173.5t-124 492.5zM348 387q0 -176 36 -258t126 -82q94 0 129 85t35 288v452q0 356 -160 357q-90 0 -128 -74t-38 -235v-533z" />
<glyph unicode="1" horiz-adv-x="1024" d="M145 1001q244 119 404 304h115v-1143q0 -92 75 -92h131v-70h-651v70h123q72 0 72 84v895q-104 -70 -242 -109z" />
<glyph unicode="2" horiz-adv-x="1024" d="M66 0v72q332 367 389 438q131 166 147 297q4 31 4 63q0 123 -55 194t-152 71q-84 0 -149.5 -63.5t-83.5 -164.5h-80q23 176 136.5 287t271.5 111q156 0 258 -103.5t102 -261.5q0 -102 -49 -192.5t-113 -151.5l-183 -173q-120 -112 -206 -210h387q76 0 105.5 37t42.5 121 h67l-41 -371h-798z" />
<glyph unicode="3" horiz-adv-x="1024" d="M57 141q0 45 31 76t78 31t82 -29t52 -62.5t54 -62t86 -28.5q80 0 129 76.5t49 201.5q0 131 -57 212t-149 81q-29 0 -66 -14l-35 59q111 88 161 160.5t50 148.5q0 68 -42 112t-105 44q-113 0 -195 -150l-59 27q47 133 143 207t221 74q117 0 197 -65.5t80 -160.5 q0 -164 -215 -286l4 -5q133 6 221 -92t88 -250q0 -205 -143.5 -341t-362.5 -136q-125 0 -211 50t-86 122z" />
<glyph unicode="4" horiz-adv-x="1024" d="M68 319v93l585 893h109v-850h174v-136h-174v-350h-250v350h-444zM190 455h322v487h-4z" />
<glyph unicode="5" horiz-adv-x="1024" d="M92 135q0 45 30 74t77 29t79.5 -29t49 -61.5t47.5 -61.5t74 -29q82 0 136 77t54 194q0 137 -67.5 220t-178.5 83q-84 0 -160 -41l-59 31l23 653h456q37 0 51.5 7t22.5 28h68l-35 -236h-486l-10 -246q90 25 166 25q197 0 323 -121t126 -309q0 -197 -141.5 -325 t-358.5 -128q-125 0 -206 47t-81 119z" />
<glyph unicode="6" horiz-adv-x="1024" d="M88 508q0 301 189.5 517t508.5 282l39 -64q-182 -61 -298.5 -197.5t-147.5 -324.5q104 72 211 72q156 0 252 -107.5t96 -282.5q0 -190 -113.5 -311t-294.5 -121q-199 0 -320.5 147.5t-121.5 389.5zM350 430q0 -383 170 -383q55 0 89 28.5t47.5 86t16.5 100.5t3 117 q0 63 -4 106t-17.5 97.5t-46.5 83t-84 28.5q-76 0 -162 -67q-12 -80 -12 -197z" />
<glyph unicode="7" horiz-adv-x="1024" d="M74 920l28 354h830v-82l-471 -1223h-203l461 1075h-410q-92 0 -119.5 -20t-42.5 -104h-73z" />
<glyph unicode="8" horiz-adv-x="1024" d="M94 311q0 199 248 301q-117 82 -171 163t-54 183q0 147 112.5 247t278.5 100q162 0 276.5 -90.5t114.5 -217.5q0 -176 -242 -282q270 -141 271 -365q0 -158 -124 -269.5t-298 -111.5q-168 0 -290 99.5t-122 242.5zM309 317q0 -127 55.5 -199.5t151.5 -72.5 q90 0 149.5 58.5t59.5 146.5q0 102 -64.5 161.5t-242.5 155.5q-59 -49 -84 -105.5t-25 -144.5zM317 1053q0 -84 63.5 -151.5t215.5 -143.5q102 84 102 237q0 111 -52 172.5t-146 61.5q-82 0 -132.5 -49t-50.5 -127z" />
<glyph unicode="9" horiz-adv-x="1024" d="M82 874q0 184 117.5 307.5t294.5 123.5q201 0 321.5 -145.5t120.5 -401.5q0 -291 -190.5 -508t-507.5 -281l-48 68q371 121 453 520q-115 -70 -211 -70q-154 0 -252 108.5t-98 278.5zM344 911q0 -74 3 -114.5t15.5 -99t44 -86t82.5 -27.5q76 0 170 63q14 143 15 215 q0 367 -176 367q-49 0 -82 -25.5t-47.5 -76t-19.5 -98.5t-5 -118z" />
<glyph unicode=":" horiz-adv-x="641" d="M156 117q0 59 48 98t115 39q70 0 118 -39t48 -98q0 -57 -47 -98.5t-118.5 -41.5t-117.5 41.5t-46 98.5zM156 721q0 59 48 98t115 39q70 0 118 -39t48 -98q0 -57 -47 -98t-118.5 -41t-117.5 41t-46 98z" />
<glyph unicode=";" horiz-adv-x="641" d="M131 116.5q0 61.5 44 99.5t114 38q100 0 160.5 -63.5t60.5 -172.5q0 -139 -95.5 -229t-240.5 -88l-16 86q98 8 161.5 55t63.5 115q0 14 -5 21.5t-15.5 8.5t-20.5 0t-27.5 -3t-29.5 -2q-74 0 -114 36.5t-40 98zM162 721q0 59 48 98t116 39q70 0 118 -39t48 -98 q0 -57 -47.5 -98t-119 -41t-117.5 41t-46 98z" />
<glyph unicode="&#x3c;" horiz-adv-x="1366" d="M135 596v143l1094 459v-170l-881 -360l881 -361v-170z" />
<glyph unicode="=" horiz-adv-x="1366" d="M135 356v156h1094v-156h-1094zM135 827v156h1094v-156h-1094z" />
<glyph unicode="&#x3e;" horiz-adv-x="1366" d="M137 137v170l881 361l-881 360v170l1094 -459v-143z" />
<glyph unicode="?" horiz-adv-x="747" d="M90 1167q0 63 55.5 100.5t145.5 37.5q170 0 277.5 -117t107.5 -299q0 -106 -42 -179t-101.5 -104t-119 -49t-101.5 -34.5t-42 -43.5q0 -33 35 -100h-72q-86 145 -86 233q0 68 44.5 109t107.5 58l127 35q63 17 107.5 53t44.5 96q0 57 -38 94t-96 37q-43 0 -113.5 -17.5 t-115.5 -17.5q-57 0 -91 28.5t-34 79.5zM129 117q0 59 48 98t116 39q70 0 118 -39t48 -98q0 -57 -47 -98.5t-119 -41.5t-118 41.5t-46 98.5z" />
<glyph unicode="@" horiz-adv-x="1898" d="M92 436q0 414 273.5 683.5t693.5 269.5q324 0 521.5 -186.5t197.5 -489.5q0 -301 -173 -507t-427 -206q-94 0 -148.5 47t-54.5 131q0 59 24 133l-4 4q-92 -160 -169.5 -237.5t-172.5 -77.5q-76 0 -121 61.5t-45 163.5q0 184 90.5 360.5t209 277t214.5 100.5 q63 0 97.5 -37t44.5 -119h4l33 119l243 10l-184 -629q-29 -104 -29 -153q0 -35 23.5 -57.5t58.5 -22.5q53 0 124 43t140.5 118.5t117.5 198.5t48 260q0 281 -178 456t-463 175q-217 0 -391 -84t-278.5 -220t-159.5 -296t-55 -324q0 -346 219 -567t563 -221q279 0 509 153.5 t308 399.5h64q-119 -293 -347.5 -450.5t-535.5 -157.5q-385 0 -635 247.5t-250 630.5zM743 279q0 -41 16.5 -68t43.5 -27q33 0 83 53.5t97 133.5t82 186.5t35 200.5q0 61 -20.5 97t-51.5 36q-82 0 -183.5 -229t-101.5 -383z" />
<glyph unicode="A" horiz-adv-x="1515" d="M18 0v80h31q74 0 118 41t83 147l350 977l-22 60h303l409 -1041q41 -102 83 -140t122 -44v-80h-666v80h72q90 0 114 40q10 16 9 38q0 32 -20 78l-97 237h-448l-86 -240q-20 -42 -20 -73q0 -25 14 -42q31 -38 168 -38h26v-80h-543zM500 586h360l-188 479z" />
<glyph unicode="B" horiz-adv-x="1429" d="M20 0v80q145 0 196.5 39t51.5 133v762q0 119 -30.5 149.5t-147.5 30.5h-51v80q27 2 116 8t142 8q287 14 332 15q418 0 563 -146q78 -78 78 -186q0 -184 -252 -240v-4q150 -33 236.5 -126t86.5 -218q0 -164 -142 -274.5t-386 -110.5h-793zM551 276q0 -109 42 -146.5 t144 -37.5q158 0 222.5 82t64.5 203q0 53 -14.5 101t-47 96.5t-100 78t-162.5 29.5q-57 0 -149 -6v-400zM551 764q90 -4 158 -4q141 0 198.5 61.5t57.5 153.5q0 106 -69 178t-237 72q-57 0 -108 -6v-455z" />
<glyph unicode="C" horiz-adv-x="1515" d="M104 633q0 283 227.5 477.5t557.5 194.5q94 0 182 -21.5t143.5 -42t67.5 -20.5q23 0 41 20h51l19 -358h-80q-49 152 -154.5 234.5t-253.5 82.5q-219 0 -357 -151.5t-138 -393.5q0 -248 149.5 -415.5t368.5 -167.5q141 0 252.5 77.5t175.5 217.5h82q-29 -184 -115 -373 q-45 14 -121 14q-41 0 -154.5 -18.5t-197.5 -18.5q-315 0 -530.5 191.5t-215.5 470.5z" />
<glyph unicode="D" horiz-adv-x="1685" d="M43 0v80q106 0 148 29.5t42 113.5v791q0 111 -36.5 145.5t-153.5 34.5v80l162 7q117 5 168 9q170 10 280 10q307 0 474 -45t280 -157q172 -172 172 -430q0 -268 -190 -459q-94 -94 -252 -151.5t-443 -57.5h-651zM516 238q0 -102 29.5 -129t148.5 -27q133 0 236.5 35 t167 91t104.5 132t56.5 149.5t15.5 151.5q0 264 -152 416q-147 147 -446 147q-86 0 -160 -10v-956z" />
<glyph unicode="E" horiz-adv-x="1323" d="M-4 0v80h84q88 0 124 35t36 112v817q0 84 -37 117t-142 33h-20v80h1128l21 -297h-78q-16 106 -44 145t-97 39h-449v-461h332q84 0 119 33t35 115h82v-408h-82q0 86 -35 117t-150 31h-301v-369q0 -66 15.5 -86t60.5 -20h342q104 0 155.5 42t80.5 167h77l-24 -322h-1233z " />
<glyph unicode="F" horiz-adv-x="1216" d="M78 0v80h33q68 0 94 25.5t26 91.5v829q0 96 -28.5 133t-98.5 37h-26v78h1034v-289h-74q-6 102 -32.5 139t-96.5 37h-395v-461h285q106 0 142 31t36 119h82v-408h-82q0 76 -31 111t-110 35h-322v-330q0 -111 26.5 -144.5t110.5 -33.5h39v-80h-612z" />
<glyph unicode="G" horiz-adv-x="1599" d="M104 653q0 283 210 467.5t536 184.5q123 0 275.5 -36t168.5 -36q41 0 62 27h51v-375h-82q-41 158 -152.5 245t-271.5 87q-217 0 -354 -156t-137 -406q0 -252 141 -418.5t354 -166.5q129 0 219 53v283q0 78 -48 102t-204 27v77h680v-77q-82 -2 -113.5 -30t-31.5 -99v-306 q-281 -129 -535 -129q-375 0 -571.5 187.5t-196.5 494.5z" />
<glyph unicode="H" horiz-adv-x="1705" d="M45 0v80h35q152 0 151 149v815q0 78 -36.5 114t-116.5 36h-33v80h657v-80h-28q-84 0 -122 -33t-38 -117v-321h676v315q0 86 -37 121t-127 35h-18v80h655v-80h-37q-80 0 -116.5 -34t-36.5 -116v-811q0 -82 34.5 -117.5t122.5 -35.5h33v-80h-655v80h28q82 0 118 37t36 121 v364h-676v-369q0 -82 36 -117.5t122 -35.5h30v-80h-657z" />
<glyph unicode="I" horiz-adv-x="747" d="M47 0v80h29q150 0 149 141v819q0 82 -33.5 118t-117.5 36h-27v80h651v-80h-34q-82 0 -119 -37t-37 -117v-811q0 -78 35 -113.5t125 -35.5h30v-80h-651z" />
<glyph unicode="J" horiz-adv-x="704" d="M-246 -346q0 51 43 90t100.5 39t118 -61.5t86.5 -61.5q100 0 101 201v1181q0 78 -34 115t-118 37h-37v80h650v-80h-31q-70 0 -109 -32t-39 -122v-895q0 -305 -178 -483q-127 -127 -332 -127q-221 0 -221 119z" />
<glyph unicode="K" horiz-adv-x="1515" d="M41 0v80h37q82 0 120 33.5t38 119.5v805q0 84 -36 120t-124 36h-35v80h668v-80h-35q-94 0 -125 -37t-31 -127v-368q131 16 270 155q63 63 131 160.5t68 148.5q0 68 -123 68h-22v80h547v-80q-96 -6 -139.5 -19.5t-84.5 -54.5q-27 -27 -138.5 -182.5t-199.5 -220.5 q80 -41 217 -219l179 -228q80 -104 148.5 -147t162.5 -43v-80h-698v80q143 0 143 55q0 31 -103.5 153t-213.5 232q-47 47 -76 60.5t-68 13.5v-365q0 -84 39 -116.5t123 -32.5h29v-80h-668z" />
<glyph unicode="L" horiz-adv-x="1236" d="M27 0v80h34q96 0 133 35t37 112v820q0 84 -42 115.5t-119 31.5h-39v80h694v-80h-59q-152 0 -152 -143v-844q0 -57 20.5 -75.5t81.5 -18.5h261q102 0 174 71q31 29 141 172h82l-150 -356h-1097z" />
<glyph unicode="M" horiz-adv-x="1898" d="M41 0v80q113 2 139.5 41t34.5 176l45 741q1 13 1 26q0 66 -19 93q-23 33 -119 37v80h432l399 -860l383 860h441v-80q-113 -6 -134 -27q-16 -15 -16 -75q0 -23 2 -54l49 -755q8 -131 34 -163t147 -40v-80h-646v80h35q43 0 63.5 2t46 14.5t37 41t11.5 75.5q0 35 -4 96 l-47 727h-4l-459 -1036h-49l-467 1012h-4l-45 -729q-3 -34 -3 -63q0 -14 1 -26q2 -38 17 -63t52 -38t101 -13v-80h-455z" />
<glyph unicode="N" horiz-adv-x="1665" d="M49 0v80h12q90 0 123 30.5t33 98.5v940q-66 45 -164 45v80h422l836 -873v619q0 111 -36 142.5t-159 31.5h-20v80h528v-80h-20q-94 0 -131 -22.5t-37 -81.5v-1096h-113l-981 1026v-774q0 -96 41 -131t162 -35v-80h-496z" />
<glyph unicode="O" horiz-adv-x="1728" d="M106 616q0 303 221.5 500t563.5 197q322 0 526.5 -182.5t204.5 -469t-209 -488.5t-561 -202q-340 0 -543 187.5t-203 457.5zM412 715q0 -293 135 -474.5t352 -181.5q203 0 310.5 150.5t107.5 378.5q0 170 -52.5 311t-163 233.5t-259.5 92.5q-195 0 -312.5 -139.5 t-117.5 -370.5z" />
<glyph unicode="P" horiz-adv-x="1323" d="M45 1194v80l139 10q113 8 193 12q225 10 325 11q281 0 422.5 -115t141.5 -287q0 -178 -140.5 -283.5t-375.5 -105.5q-111 0 -234 21v-304q0 -88 39 -120.5t139 -32.5h62v-80h-697v80h31q84 0 113.5 23.5t29.5 93.5v878q0 70 -29.5 94.5t-113.5 24.5h-45zM516 621 q59 -14 148 -15q143 0 220 81t77 231q0 141 -79 220t-220 79q-76 0 -146 -15v-581z" />
<glyph unicode="Q" horiz-adv-x="1728" d="M106 623q0 299 222.5 494.5t562.5 195.5q322 0 526.5 -182.5t204.5 -466.5q0 -252 -162 -433.5t-391 -230.5q72 -43 150 -115l130 -124q52 -52 131 -92t169 -42l-35 -80q-51 -12 -115 -12q-119 0 -231.5 40t-199.5 102.5t-164 126t-156.5 122t-145.5 80.5 q-225 59 -360.5 226.5t-135.5 390.5zM412 715q0 -293 134 -475.5t351 -182.5q211 0 315.5 157t104.5 380q0 106 -27.5 212.5t-82 203t-149.5 156t-218 59.5q-195 0 -311.5 -139.5t-116.5 -370.5z" />
<glyph unicode="R" horiz-adv-x="1579" d="M20 0v80h33q96 0 137 31.5t41 117.5v809q0 80 -33.5 118t-129.5 38h-43v80q223 14 264 16q201 14 336 15q227 0 359 -33t208 -109q98 -98 98 -233q0 -117 -80 -204t-223 -126q72 -59 179.5 -206.5t172.5 -213.5q63 -63 117.5 -86.5t153.5 -34.5v-79q-45 -2 -127 -3 q-186 0 -283.5 30t-171.5 104q-41 41 -160.5 204.5t-191.5 225.5h-162v-312q0 -80 38 -114.5t124 -34.5h61v-80h-717zM514 627h80q195 0 293 68.5t98 226.5q0 154 -101.5 224.5t-262.5 70.5h-107v-590z" />
<glyph unicode="S" horiz-adv-x="1153" d="M119 377h80q102 -307 350 -307q102 0 169.5 57t67.5 143q0 84 -67.5 149.5t-163.5 114.5l-194 101q-97 53 -164.5 138t-67.5 198q0 147 116.5 240.5t299.5 93.5q70 0 140.5 -13.5t115.5 -27t55 -13.5q23 0 45 23h43l39 -332h-82q-35 125 -125 200t-209 75q-86 0 -143 -41 t-57 -101q0 -66 58 -120t138 -90t189.5 -102.5t183.5 -139.5q117 -117 117 -271q0 -160 -127 -270.5t-310 -110.5q-98 0 -223 33t-127 33q-29 0 -43 -33h-53z" />
<glyph unicode="T" horiz-adv-x="1492" d="M57 926l37 383h66q29 -25 39 -29q23 -6 59 -6h975q41 0 57.5 6t40.5 29h66l37 -383h-84q-29 162 -66 201.5t-156 39.5h-241v-934q0 -84 37 -118.5t141 -34.5h49v-80h-737v80h69q84 0 121 36t37 117v934h-242q-119 0 -155.5 -40t-65.5 -201h-84z" />
<glyph unicode="U" horiz-adv-x="1579" d="M10 1194v80h641v-80h-35q-145 0 -145 -139v-611q0 -174 106.5 -254.5t264.5 -80.5q197 0 299 101t102 275v498q0 113 -38 162t-130 49h-37v80h531v-80h-15q-113 0 -150.5 -43t-37.5 -127v-510q0 -131 -37 -231.5t-94 -157.5t-137 -93t-153 -48.5t-154 -12.5 q-283 0 -443 121t-160 352v611q0 78 -29.5 108.5t-113.5 30.5h-35z" />
<glyph unicode="V" horiz-adv-x="1536" d="M10 1194v80h711v-80h-35q-125 0 -157 -44q-13 -18 -12 -43q0 -37 28 -91l321 -684l314 745q9 21 8 38q0 28 -22 47q-36 32 -122 32h-40v80h520v-80h-15q-88 0 -134 -45t-99 -172l-426 -1006h-129l-483 1051q-51 111 -88 141.5t-125 30.5h-15z" />
<glyph unicode="W" horiz-adv-x="2048" d="M12 1194v80h543v-80q-61 -6 -73 -36q-3 -8 -3 -18q0 -28 23 -71l379 -790l131 268l-242 508q-41 84 -67.5 110.5t-71.5 28.5v80h897v-80q-57 -12 -86 -40t-70 -110l-149 -303l215 -436l282 717q23 52 23 88q0 22 -8 39q-23 43 -113 45v80h414v-80q-74 -4 -117 -44 t-82 -140l-414 -1039h-133l-219 451l-213 -451h-137l-500 1051q-49 106 -83 139t-109 33h-17zM1032 1172q-4 -7 -4 -17q0 -20 16 -51l117 -236l117 232q20 32 20 53q0 10 -5 17q-13 24 -79 24h-110q-60 0 -72 -22z" />
<glyph unicode="X" horiz-adv-x="1642" d="M18 0v80q102 10 172 52t170 142l322 332l-307 385q-94 117 -156.5 160t-138.5 43h-49v80h776v-80h-74q-102 0 -101 -47q0 -29 38 -76l209 -260l206 217q72 77 73 118q0 48 -97 48h-53v80h553v-80q-92 0 -158 -37t-154 -129l-293 -311l367 -457q82 -102 143.5 -139 t157.5 -41v-80h-717v80h41q74 0 94 34q6 9 6 21q0 32 -40 84l-250 295l-316 -324q-33 -33 -32 -57q0 -12 8 -22q25 -31 117 -31h45v-80h-562z" />
<glyph unicode="Y" horiz-adv-x="1536" d="M16 1194v80h668v-80h-25q-84 0 -106 -32q-9 -12 -9 -25q0 -22 23 -47l328 -433l238 373q39 61 38 99q0 65 -112 65h-25v80h484v-80q-88 -6 -130 -32.5t-98 -110.5l-350 -539v-281q0 -80 37 -115.5t141 -35.5h31v-80h-698v80h51q88 0 121.5 37t33.5 110v285l-440 586 q-47 61 -80 78.5t-106 17.5h-15z" />
<glyph unicode="Z" horiz-adv-x="1536" d="M119 0v113l909 1048h-551q-92 0 -139 -51t-57 -180h-78l14 344h1184v-117l-909 -1044h626q109 0 155 58t89 239h78l-25 -410h-1296z" />
<glyph unicode="[" horiz-adv-x="747" d="M236 -383v1657h491v-68h-55q-123 0 -164 -19.5t-41 -70.5v-1341q0 -51 41 -70.5t164 -19.5h55v-68h-491z" />
<glyph unicode="\" horiz-adv-x="1087" d="M94 1313h166l731 -1350h-166z" />
<glyph unicode="]" horiz-adv-x="747" d="M20 -315h56q123 0 164 19.5t41 70.5v1341q0 51 -41 70.5t-164 19.5h-56v68h492v-1657h-492v68z" />
<glyph unicode="^" horiz-adv-x="1193" d="M147 651l408 719h82l407 -719h-170l-278 494l-279 -494h-170z" />
<glyph unicode="_" horiz-adv-x="1024" d="M-16 -154h1056v-102h-1056v102z" />
<glyph unicode="`" horiz-adv-x="681" d="M14 1364h330l152 -387h-119z" />
<glyph unicode="a" horiz-adv-x="980" d="M78 193q0 100 63 163q45 45 191.5 92.5t230.5 114.5v76q0 59 -37 98t-92 39q-57 0 -88 -41q-22 -29 -22 -76q0 -19 4 -41l-230 -79q-8 36 -8 67q0 78 51.5 129t154.5 87t183 36q43 0 95.5 -12t108.5 -39t93 -79t37 -120v-387q0 -94 45 -94q20 0 55 25l31 -50 q-47 -51 -114.5 -86.5t-118.5 -35.5q-57 0 -95 33.5t-49 92.5q-72 -70 -123 -99.5t-129 -29.5q-109 0 -173 59t-64 157zM324 233q0 -63 27.5 -102t74.5 -39q49 0 137 86v293q-33 -29 -101.5 -58.5t-103 -67.5t-34.5 -112z" />
<glyph unicode="b" d="M33 1221v49l311 100h66v-684q184 172 342 172q137 0 233 -114.5t96 -278.5q0 -209 -147.5 -348.5t-366.5 -139.5q-156 0 -407 66v1028q0 66 -12.5 86.5t-61.5 40.5zM410 344q0 -145 44 -211.5t140 -66.5q109 0 170 81.5t61 227.5q0 143 -65.5 232t-169.5 89 q-100 0 -180 -106v-246z" />
<glyph unicode="c" horiz-adv-x="1003" d="M90 383q0 201 152.5 338t378.5 137q133 0 221 -49t88 -125q0 -47 -29 -74.5t-76 -27.5t-89 28.5t-66.5 62.5t-61.5 62.5t-76 28.5q-78 0 -125 -86t-47 -223q0 -166 71 -268.5t185 -102.5q137 0 263 145l59 -32q-143 -219 -418 -220q-186 0 -308 115t-122 291z" />
<glyph unicode="d" d="M88 365q0 123 47 230t159 185t271 78q96 0 185 -27v263q0 55 -30 81.5t-108 43.5v49l318 102h69v-1100q0 -90 16.5 -120.5t65.5 -30.5q27 0 62 10v-63l-340 -89h-53v164q-184 -164 -330 -164t-239 110t-93 278zM336 473q0 -154 63.5 -248t165.5 -94q43 0 95.5 28.5 t89.5 73.5v455q-98 88 -197 88q-102 0 -159.5 -80t-57.5 -223z" />
<glyph unicode="e" horiz-adv-x="980" d="M86 397q0 203 123 332t315 129q160 0 258 -98q51 -51 70.5 -112.5t28 -103.5t37.5 -57v-59h-568q12 -127 86 -213t166 -86q109 0 250 147l47 -38q-86 -121 -202.5 -191t-235.5 -70q-168 0 -271.5 117t-103.5 303zM344 508h291q-2 119 -41 186.5t-104.5 67.5t-110.5 -74 q-37 -60 -37 -142q0 -18 2 -38z" />
<glyph unicode="f" horiz-adv-x="661" d="M18 0v66h37q63 0 89 31.5t26 111.5v520h-152v41l154 66q0 131 54.5 238.5t136 171t171 97t168.5 33.5q100 0 183.5 -42t83.5 -85q0 -12 -17 -32l-63 -82q-20 -27 -43 -27t-65 38t-95 76t-104 38q-68 0 -115 -50.5t-47 -171.5v-202h203l-13 -107h-190v-502 q0 -92 38 -126.5t138 -34.5h43v-66h-621z" />
<glyph unicode="g" horiz-adv-x="1130" d="M84 -268q0 57 40 86.5t92 53.5t69 54q-176 59 -176 193q0 61 60 95t218 77v4q-106 4 -187 80t-81 170q0 133 120.5 223t297.5 90q168 0 276 -82l289 74v-211l-205 47q41 -55 41 -131q0 -96 -66.5 -164.5t-161.5 -96.5q-83 -24 -176 -24h-28q-170 -57 -170 -96 q0 -68 254 -68h180q135 0 223 -63t88 -174q0 -145 -164.5 -243.5t-412.5 -98.5q-180 0 -300 58.5t-120 146.5zM301 -209q0 -72 90 -124t213 -52q125 0 209 49t84 123q0 102 -170 102h-164q-109 0 -182 17q-80 -58 -80 -115zM371 575q0 -225 170 -225q70 0 106.5 47t36.5 133 q0 115 -43 177.5t-119 62.5q-72 0 -111.5 -51.5t-39.5 -143.5z" />
<glyph unicode="h" horiz-adv-x="1153" d="M18 0v66h29q74 0 93.5 30.5t19.5 118.5v895q0 45 -12.5 61.5t-53.5 30.5l-59 21v47l325 100h50v-668q223 156 368 156q223 0 223 -362v-271q0 -94 17.5 -126.5t75.5 -32.5h20v-66h-483v66h16q63 0 84 30.5t21 118.5v309q0 84 -36 132.5t-98 48.5q-90 0 -208 -78v-420 q0 -90 23.5 -115.5t82.5 -25.5h21v-66h-519z" />
<glyph unicode="i" horiz-adv-x="598" d="M31 0v66h22q63 0 89 31.5t26 111.5v393q0 39 -13.5 55.5t-56.5 32.5l-67 25v49l350 117h37v-686q0 -129 125 -129v-66h-512zM121 1206q0 55 49 97.5t115 42.5q70 0 115.5 -40t45.5 -99.5t-48 -99.5t-113 -40q-70 0 -117 40t-47 99z" />
<glyph unicode="j" horiz-adv-x="575" d="M-238 -348q0 47 40 85t89 38q45 0 80 -35t62.5 -68.5t54.5 -33.5q37 0 59.5 49t22.5 135v776q0 47 -10 61.5t-58 30.5l-69 25v49l346 117h41v-871q0 -197 -115 -338t-332 -141q-100 0 -155.5 32t-55.5 89zM125 1206q0 55 49 97.5t115 42.5q70 0 116 -40t46 -99.5 t-48.5 -99.5t-113.5 -40q-70 0 -117 40t-47 99z" />
<glyph unicode="k" horiz-adv-x="1110" d="M31 0v66q72 0 98.5 30.5t26.5 112.5v901q0 45 -12.5 61.5t-53.5 30.5l-59 21v47l325 100h50v-891l286 240q20 14 14 32.5t-49 18.5h-49v66h424v-66q-135 0 -268 -113l-129 -108l297 -371q90 -113 158 -112h18v-66h-473v66q49 0 49 24q0 16 -20 41l-254 330h-4v-258 q0 -70 25.5 -103.5t94.5 -33.5v-66h-495z" />
<glyph unicode="l" horiz-adv-x="555" d="M8 1208v60l354 102h37v-1161q0 -76 28 -109.5t95 -33.5v-66h-508v66h21q63 0 89 31.5t26 111.5v844q0 68 -9.5 89t-44.5 34z" />
<glyph unicode="m" horiz-adv-x="1898" d="M35 713v49l346 119h37v-236q164 117 264 165t178 48q88 0 144.5 -56.5t68.5 -156.5q291 213 457 213q113 0 164 -84t51 -268v-320q0 -72 25.5 -96t89.5 -24v-66h-482v66q63 4 90 55t27 176v178q0 227 -127 227q-96 0 -287 -129v-370q0 -137 115 -137v-66h-481v66 q66 0 91 31.5t25 111.5v293q0 201 -124 200q-102 0 -289 -129v-376q0 -131 121 -131h16v-66h-516v66h12q66 0 91.5 31.5t25.5 111.5v399q0 33 -18.5 51.5t-69.5 36.5z" />
<glyph unicode="n" d="M31 713v49l350 119h39v-183q244 160 379 160q113 0 164 -84t51 -268v-320q0 -72 26.5 -96t89.5 -24v-66h-483v66q63 4 90 55t27 176v178q0 227 -127 227q-86 0 -217 -90v-415q0 -131 121 -131h18v-66h-518v66h12q66 0 91.5 31.5t25.5 111.5v399q0 66 -96 92z" />
<glyph unicode="o" d="M88 406q0 193 147.5 322.5t366.5 129.5q211 0 347 -120t136 -306q0 -195 -147 -325t-367 -130q-211 0 -347 120.5t-136 308.5zM358 526q0 -96 25 -196.5t89.5 -182t156.5 -81.5q88 0 137 66.5t49 186.5q0 197 -74.5 324t-191.5 127q-90 0 -140.5 -64.5t-50.5 -179.5z" />
<glyph unicode="p" d="M27 -401h24q59 0 85 30.5t26 104.5v860q0 78 -56 98l-75 27v51l327 111h54v-197l38 30l37 29l34 26q26 19 37 25.5l34.5 20.5t39.5 20l37 12q22 7 42 9t43 2q141 0 237 -111.5t96 -275.5q0 -119 -49 -228.5t-159.5 -187.5t-257.5 -78q-90 0 -209 27v-219q0 -102 40 -140 t162 -46v-64h-587v64zM412 154q96 -100 211 -101q94 0 153.5 84t59.5 217q0 145 -59.5 248t-164.5 103q-84 0 -200 -105v-446z" />
<glyph unicode="q" d="M90 367q0 209 143.5 350t356.5 141q160 0 301 -82l88 82h49q-18 -133 -18 -250v-870q0 -72 24.5 -102.5t98.5 -36.5v-64h-580v64h80q76 0 101.5 31.5t25.5 113.5v408q-184 -174 -334 -175q-143 0 -239.5 112t-96.5 278zM346 455q0 -137 64.5 -226.5t167.5 -89.5 q49 0 88 21.5t94 81.5v286q0 115 -46 178.5t-132 63.5q-109 0 -172.5 -85t-63.5 -230z" />
<glyph unicode="r" horiz-adv-x="811" d="M45 0v66h14q63 0 89 31.5t26 111.5v334q0 68 -13.5 93.5t-60.5 43.5l-55 22v52l336 127h43v-230h4q63 123 96 165t82 42q25 0 41 -6l162 -59q-37 -133 -98 -218q-133 51 -166 52q-55 0 -121 -92v-332q0 -76 29.5 -106.5t107.5 -30.5h53v-66h-569z" />
<glyph unicode="s" horiz-adv-x="768" d="M86 242h66q25 -84 84 -130t129 -46q43 0 74.5 27.5t31.5 66.5q0 45 -60.5 93t-132 86t-132 106.5t-60.5 152.5q0 117 89 188.5t233 71.5q109 0 229 -43l4 -219h-66q-57 174 -192 174q-41 0 -67.5 -22.5t-26.5 -55.5q0 -45 42 -83t101.5 -69.5t117.5 -67.5t100 -96.5 t42 -137.5q0 -115 -73.5 -186.5t-192.5 -71.5q-84 0 -152 14l-65 14q-16 0 -41 -26h-59z" />
<glyph unicode="t" horiz-adv-x="704" d="M49 723v53q92 39 181 134.5t118 181.5h60v-256h268l-31 -113h-237v-496q0 -109 94 -108q72 0 155 102l29 -57q-45 -82 -129 -134.5t-168 -52.5q-109 0 -170 63.5t-61 190.5v492h-109z" />
<glyph unicode="u" d="M68 735v47l294 76h41v-522q0 -203 134 -203q76 0 206 84v371q0 59 -14 81.5t-59 37.5l-95 28v47l377 76h41v-627q0 -76 11.5 -99t48.5 -23q29 0 61 12v-64l-332 -80h-39v164q-258 -164 -366 -164q-106 0 -164.5 81t-58.5 200v342q0 59 -8.5 80.5t-34.5 34.5z" />
<glyph unicode="v" horiz-adv-x="1067" d="M8 770v66h520v-66h-71q-35 0 -43 -29q-2 -7 -2 -16q0 -27 18 -70l182 -407l160 360q22 47 22 79q0 22 -11 37q-26 36 -132 46v66h408v-66q-78 -8 -109.5 -31.5t-62.5 -91.5l-293 -661h-123l-305 657q-31 66 -61.5 92.5t-96.5 34.5z" />
<glyph unicode="w" horiz-adv-x="1599" d="M8 770v66h490v-66q-53 -2 -72 -34q-9 -15 -9 -32q0 -20 11 -42l164 -392l164 373q-27 70 -55.5 98.5t-73.5 28.5v66h465v-66q-90 0 -90 -63q0 -25 14 -60l155 -377l144 351q14 35 13 62q0 26 -12 45q-26 38 -104 42v66h377v-66q-74 -8 -108.5 -43t-75.5 -131l-258 -610 h-113l-229 534l-246 -534h-108l-283 659q-56 125 -160 125z" />
<glyph unicode="x" horiz-adv-x="1087" d="M18 770v66h502v-66q-49 0 -63.5 -16.5t10.5 -51.5l125 -153l113 121q28 29 27 51q0 11 -6 20q-19 29 -83 29v66h383v-66q-119 -14 -244 -145l-139 -146l262 -321q76 -92 154 -92h12v-66h-528v66h18q51 0 62 25q2 6 2 13q0 22 -25 50l-125 155l-108 -114q-51 -56 -51 -88 q0 -5 1 -10q10 -32 80 -31v-66h-362v66q80 0 174 94l211 217l-236 282q-49 61 -83 84t-83 27z" />
<glyph unicode="y" horiz-adv-x="1067" d="M2 770v66h522v-66q-78 0 -96 -31q-7 -12 -7 -27q0 -26 19 -65l170 -352l156 315q20 37 20 68q0 24 -12 44q-27 46 -115 48v66h381v-66q-70 -14 -101.5 -44t-74.5 -118l-458 -934q-76 -152 -187 -151q-55 0 -92 32.5t-37 84.5q0 55 31 86q29 29 73 38t78.5 10t78.5 37.5 t81 118.5l41 90l-276 564q-55 113 -92 149.5t-103 36.5z" />
<glyph unicode="z" horiz-adv-x="1044" d="M61 0v66l541 657h-285q-59 0 -94 -34t-82 -140h-67l67 344h68q-6 -29 7 -43t60 -14h685v-58l-547 -665h264q102 0 142 27.5t118 144.5h63l-96 -285h-844z" />
<glyph unicode="{" horiz-adv-x="811" d="M129 420v57q92 8 144.5 74.5t52.5 148.5q0 57 -27 177q-27 98 -27 161q0 49 22.5 103.5t69 108t130.5 87t190 33.5v-47q-98 -14 -146.5 -71.5t-48.5 -121.5q0 -66 23 -169q25 -111 25 -177q0 -117 -89.5 -209t-236.5 -124v-5q147 -33 236.5 -125t89.5 -208 q0 -61 -25 -176q-23 -100 -23 -170q0 -63 48.5 -121t146.5 -72v-47q-106 0 -190 33.5t-130.5 87t-69 108t-22.5 103.5q0 66 27 164q27 121 27 174q0 82 -52.5 148.5t-144.5 74.5z" />
<glyph unicode="|" horiz-adv-x="1159" d="M500 -276v1589h159v-1589h-159z" />
<glyph unicode="}" horiz-adv-x="811" d="M127 -426q98 14 146.5 71.5t48.5 121.5q0 49 -23 170q-25 111 -25 176q0 117 89.5 209t236.5 124v5q-147 33 -236.5 125t-89.5 208q0 63 24 176t24 170q0 63 -48.5 121t-146.5 72v47q106 0 190 -33.5t130.5 -87t69 -108t22.5 -103.5q0 -61 -27 -164q-27 -115 -27 -174 q0 -82 52.5 -148.5t144.5 -74.5v-57q-92 -8 -144.5 -74.5t-52.5 -148.5q0 -66 27 -174.5t27 -163.5q0 -49 -22.5 -103.5t-69 -108t-130.5 -87t-190 -33.5v47z" />
<glyph unicode="~" horiz-adv-x="1067" d="M-31 457q10 362 307 362q100 0 322 -78l74 -26l74 -27q24 -8 57 -16t53 -8q84 0 120 34.5t44 120.5h80q-10 -362 -316 -362q-104 0 -313 86l-56 24l-58 25q-19 8 -47.5 18.5t-52.5 14.5t-46 4q-78 0 -114 -42t-48 -130h-80z" />
<glyph unicode="&#xa1;" horiz-adv-x="641" d="M156 711q0 57 47 98t118.5 41t117.5 -41t46 -98q0 -59 -48 -98.5t-115 -39.5q-70 0 -118 39.5t-48 98.5zM170 -393l117 762h69l115 -762q8 -53 -2 -68.5t-55 -15.5h-185q-47 0 -57 15.5t-2 68.5z" />
<glyph unicode="&#xa2;" horiz-adv-x="1003" d="M90 383q0 209 171 352.5t425 118.5l96 242h84l-102 -258q78 -20 122 -60.5t44 -93.5q0 -45 -29 -73.5t-74 -28.5q-74 0 -139 71l-207 -518q57 -51 140 -51q135 0 258 145l59 -32q-88 -131 -222 -184.5t-294 -24.5l-131 -332h-84l139 352q-121 47 -188.5 145.5 t-67.5 229.5zM360 457q0 -158 62 -254l209 512q-51 49 -99 49q-76 0 -124 -86t-48 -221z" />
<glyph unicode="&#xa3;" horiz-adv-x="1705" d="M72 -385q0 119 231 248q86 164 156 336h-299l26 77h306l165 355q70 150 135.5 262.5t153.5 226t191.5 175t214.5 61.5q115 0 201.5 -49.5t86.5 -108.5q0 -43 -35.5 -87t-74.5 -44t-78 50l-80 101q-41 50 -82 50q-74 0 -134 -114t-172 -385t-239 -493h379l-24 -77h-410 q-96 -156 -207 -267l4 -4q106 35 189 35q100 0 197.5 -49t160 -107.5t133 -107.5t121.5 -49q59 0 95 34.5t36 79.5q0 47 -32.5 110t-32.5 106t26.5 69.5t71.5 26.5q59 0 94 -48t35 -128q0 -158 -129 -261.5t-270 -103.5q-94 0 -178 33t-143.5 79t-112 91t-106.5 77.5 t-107 32.5q-39 0 -142 -36q-123 -276 -250 -277q-31 0 -51 22.5t-20 57.5z" />
<glyph unicode="&#xa4;" horiz-adv-x="1366" d="M182 274l129 127q-86 127 -86 267q0 137 86 266l-129 127l107 106l129 -129q131 86 264 86q137 0 268 -86l127 129l105 -106l-127 -129q86 -127 86 -266q0 -137 -86 -265l127 -127l-105 -106l-127 127q-129 -86 -264 -86q-137 0 -268 86l-129 -127zM375 668 q0 -127 91 -218.5t218 -91.5t217 91.5t90 218.5t-90 217t-217 90t-218 -90t-91 -217z" />
<glyph unicode="&#xa5;" horiz-adv-x="1024" d="M-225 1194v80h657v-80h-24q-86 0 -118 -32t5 -77l92 -122h434l43 67q29 43 36 77t-17.5 60.5t-91.5 26.5h-25v80h483v-80q-88 -6 -131 -33.5t-96 -109.5l-57 -88h227v-80h-279l-190 -291h469v-80h-520v-281q0 -80 36.5 -115.5t141.5 -35.5h31v-80h-682v80h51q88 0 122 37 t34 110v285h-574v80h520l-217 291h-303v80h244l-101 135q-45 59 -77.5 77.5t-108.5 18.5h-14zM446 883l170 -234l152 234h-322z" />
<glyph unicode="&#xa6;" horiz-adv-x="1159" d="M500 -276v682h159v-682h-159zM500 633v680h159v-680h-159z" />
<glyph unicode="&#xa7;" horiz-adv-x="960" d="M92 854q0 215 146.5 358.5t328.5 143.5q102 0 183 -43t81 -99q0 -39 -29.5 -72.5t-64.5 -33.5q-41 0 -125 76t-139 76q-39 0 -68.5 -28t-29.5 -65q0 -57 76.5 -184t170 -257t170 -302t76.5 -309q0 -193 -150.5 -334t-355.5 -141q-84 0 -158.5 47t-74.5 102 q0 39 28.5 68.5t67.5 29.5q43 0 116 -72.5t132 -72.5q43 0 71.5 27.5t28.5 68.5q0 55 -49 144.5t-121 190.5l-142 210q-71 109 -120 234.5t-49 236.5zM203 915q0 -90 50 -207.5t120 -230.5l139 -224q70 -112 113 -222.5t32 -194.5v4l5 -4q96 106 96 242q0 102 -70 247.5 t-154.5 269.5t-160.5 275.5t-86 259.5q-84 -78 -84 -215z" />
<glyph unicode="&#xa8;" horiz-adv-x="681" d="M20 1145q0 51 36 87t87.5 36t87 -36t35.5 -87t-35.5 -87t-87 -36t-87.5 36t-36 87zM418 1145q0 51 35.5 87t87 36t87.5 -36t36 -87t-36 -87t-87.5 -36t-87 36t-35.5 87z" />
<glyph unicode="&#xa9;" horiz-adv-x="1536" d="M59 678q0 293 208 500.5t501 207.5t501 -207.5t208 -500.5t-208 -501t-501 -208t-501 208t-208 501zM147 678q0 -256 182.5 -438.5t438.5 -182.5t438.5 182.5t182.5 438.5t-182.5 438t-438.5 182t-438.5 -182t-182.5 -438zM336 668q0 190 124 315t314 125q78 0 157 -26.5 t87 -26.5q39 0 47 51h39v-264h-39q-20 100 -86 158.5t-160 58.5q-123 0 -191.5 -97.5t-68.5 -271.5q0 -193 74 -282t182 -89q147 0 260 140v-72q-123 -127 -319 -127q-186 0 -303 114t-117 294z" />
<glyph unicode="&#xaa;" horiz-adv-x="747" d="M100 915q0 57 35 93q33 33 126 58.5t155 70.5v45q0 35 -21.5 56.5t-58.5 21.5q-41 0 -60.5 -27t-13.5 -64l-149 -47q-18 72 24 115q27 27 97.5 51.5t127.5 24.5q25 0 57 -7.5t70.5 -22.5t64.5 -48t26 -78v-235q0 -39 19 -46.5t44 15.5l23 -31q-78 -74 -154 -74 q-74 0 -94 76q-76 -76 -162 -76q-72 0 -114 35t-42 94zM260 940q0 -39 18.5 -62.5t47.5 -23.5q33 0 90 57v170q-23 -20 -66 -37.5t-66.5 -38t-23.5 -65.5z" />
<glyph unicode="&#xab;" horiz-adv-x="874" d="M47 451l344 378h68l-166 -378l166 -379h-68zM469 451l279 352h67l-129 -352l129 -353h-67z" />
<glyph unicode="&#xac;" horiz-adv-x="1366" d="M135 825v158h1094v-629h-158v471h-936z" />
<glyph unicode="&#xad;" horiz-adv-x="854" d="M72 313v201h708v-201h-708z" />
<glyph unicode="&#xae;" horiz-adv-x="1536" d="M59 678q0 293 208 500.5t501 207.5t501 -207.5t208 -500.5t-208 -501t-501 -208t-501 208t-208 501zM147 678q0 -256 182.5 -438.5t438.5 -182.5t438.5 182.5t182.5 438.5t-182.5 438t-438.5 182t-438.5 -182t-182.5 -438zM373 281v32q61 -2 82.5 27t21.5 111v473 q0 78 -16.5 102.5t-71.5 28.5v35h399q160 0 239 -61.5t79 -158.5q0 -156 -178 -206l135 -250q47 -88 106 -101v-32h-241l-207 368h-45v-198q0 -84 21.5 -110t99.5 -28v-32h-424zM676 700q102 -18 158.5 34t56.5 143q0 82 -44 126t-122 44h-49v-347z" />
<glyph unicode="&#xaf;" horiz-adv-x="681" d="M12 1073v164h658v-164h-658z" />
<glyph unicode="&#x2c9;" horiz-adv-x="681" d="M12 1073v164h658v-164h-658z" />
<glyph unicode="&#xb0;" horiz-adv-x="811" d="M59 960.5q0 143.5 101.5 245t245 101.5t245 -101.5t101.5 -245t-101.5 -245t-245 -101.5t-245 101.5t-101.5 245zM190 960.5q0 -88.5 62.5 -152t153 -63.5t153 63.5t62.5 152t-62.5 152t-153 63.5t-153 -63.5t-62.5 -152z" />
<glyph unicode="&#xb1;" horiz-adv-x="1368" d="M137 -47v156h1094v-156h-1094zM137 762v156h469v468h156v-468h469v-156h-469v-469h-156v469h-469z" />
<glyph unicode="&#xb2;" horiz-adv-x="641" d="M43 623v45q199 184 259 256.5t60 150.5q0 59 -28.5 94t-79.5 35q-47 0 -83 -32.5t-46 -86.5h-70q14 96 84 155.5t170 59.5q96 0 159.5 -54t63.5 -138q0 -51 -24.5 -93t-54.5 -69l-106 -88l-132 -113h193q49 0 66.5 14.5t27.5 65.5h61l-24 -202h-496z" />
<glyph unicode="&#xb3;" horiz-adv-x="641" d="M63 700q0 23 20.5 42.5t57.5 19.5q47 0 85 -47t77 -47q41 0 66.5 37.5t25.5 97.5q0 63 -30.5 103t-79.5 40q-18 0 -45 -8l-27 41q125 78 125 160q0 33 -20.5 53t-53.5 20q-63 0 -108 -86l-56 23q29 72 89.5 111.5t140.5 39.5q74 0 124 -35.5t50 -86.5q0 -76 -113 -138v-4 q80 -10 125 -57t45 -123q0 -109 -88 -179.5t-223 -70.5q-78 0 -132.5 27.5t-54.5 66.5z" />
<glyph unicode="&#xb4;" horiz-adv-x="681" d="M178 977l152 387h329l-362 -387h-119z" />
<glyph unicode="&#xb5;" horiz-adv-x="1130" d="M55 -322q0 43 36 191.5t36 323.5v643h250v-594q0 -66 32.5 -99.5t82 -33.5t102.5 30.5t90 89.5v607h250v-611q0 -102 67 -102q37 0 53.5 32.5t24.5 110.5h41q-2 -119 -49 -184q-76 -111 -209 -111q-74 0 -108.5 36t-63.5 122q-137 -158 -315 -158q-72 0 -152 58 q0 -104 30 -203.5t30 -132.5q0 -61 -33 -97t-88 -36q-107 -1 -107 118z" />
<glyph unicode="&#x3bc;" horiz-adv-x="1130" d="M55 -322q0 43 36 191.5t36 323.5v643h250v-594q0 -66 32.5 -99.5t82 -33.5t102.5 30.5t90 89.5v607h250v-611q0 -102 67 -102q37 0 53.5 32.5t24.5 110.5h41q-2 -119 -49 -184q-76 -111 -209 -111q-74 0 -108.5 36t-63.5 122q-137 -158 -315 -158q-72 0 -152 58 q0 -104 30 -203.5t30 -132.5q0 -61 -33 -97t-88 -36q-107 -1 -107 118z" />
<glyph unicode="&#xb6;" horiz-adv-x="1110" d="M0 813q0 205 121 326q78 78 176 106.5t295 28.5h516v-45h-43q-145 0 -145 -139v-1567h-101v1673h-180v-1673h-100v823q-272 0 -405.5 133t-133.5 334z" />
<glyph unicode="&#xb7;" horiz-adv-x="641" d="M156 639q0 59 48 98t115 39q70 0 118 -39t48 -98q0 -57 -47 -98t-118.5 -41t-117.5 41t-46 98z" />
<glyph unicode="&#x2219;" horiz-adv-x="641" d="M156 639q0 59 48 98t115 39q70 0 118 -39t48 -98q0 -57 -47 -98t-118.5 -41t-117.5 41t-46 98z" />
<glyph unicode="&#xb8;" horiz-adv-x="681" d="M119 -371l18 62q53 -23 115 -23q37 0 63.5 24.5t26.5 57.5q0 39 -26.5 56.5t-90.5 23.5l129 180h70l-45 -78q125 -33 125 -161q0 -82 -58.5 -136.5t-148.5 -54.5q-100 0 -178 49z" />
<glyph unicode="&#xb9;" horiz-adv-x="641" d="M90 1143q147 59 248 157h86v-587q0 -41 29 -41h90v-49h-408v49h88q27 0 27 37v440q-68 -35 -137 -49z" />
<glyph unicode="&#xba;" horiz-adv-x="768" d="M59 1042q0 115 96.5 193t239.5 78q137 0 225.5 -72t88.5 -184q0 -115 -95.5 -193t-238.5 -78q-137 0 -226.5 71.5t-89.5 184.5zM236 1114q0 -119 49 -194.5t125 -75.5q123 0 122 147q0 117 -48 190.5t-124 73.5q-124 0 -124 -141z" />
<glyph unicode="&#xbb;" horiz-adv-x="874" d="M59 98l129 353l-129 352h68l279 -352l-279 -353h-68zM416 72l166 379l-166 378h67l344 -378l-344 -379h-67z" />
<glyph unicode="&#xbc;" horiz-adv-x="1685" d="M84 1147q147 59 248 158h86v-588q0 -41 28 -41h91v-49h-408v49h88q27 0 27 37v440q-68 -35 -138 -49zM233 -57l912 1362h145l-913 -1362h-144zM870 162v55l349 461h84v-434h102v-82h-102v-178h-173v178h-260zM973 244h157v209h-4z" />
<glyph unicode="&#xbd;" horiz-adv-x="1685" d="M84 1147q147 59 248 158h86v-588q0 -41 28 -41h91v-49h-408v49h88q27 0 27 37v440q-68 -35 -138 -49zM233 -57l912 1362h145l-913 -1362h-144zM934 0v45q199 184 259 257t60 151q0 59 -28.5 94t-79.5 35q-47 0 -83 -33t-46 -86h-70q14 96 84 155.5t170 59.5 q96 0 159.5 -54.5t63.5 -138.5q0 -51 -24.5 -93t-55.5 -68l-105 -88l-132 -113h192q49 0 66.5 14.5t28.5 65.5h61l-24 -203h-496z" />
<glyph unicode="&#xbe;" horiz-adv-x="1685" d="M94 705q0 23 20.5 42t57.5 19q47 0 85 -47t77 -47q41 0 66.5 38t25.5 97q0 63 -30.5 103t-80.5 40q-18 0 -45 -8l-26 41q125 78 125 160q0 33 -20.5 53.5t-53.5 20.5q-63 0 -109 -87l-55 23q29 72 89.5 112t139.5 40q74 0 124.5 -36t50.5 -87q0 -76 -113 -138v-4 q80 -10 125 -57t45 -123q0 -109 -88 -179.5t-223 -70.5q-78 0 -132.5 28t-54.5 67zM272 -57l912 1362h145l-913 -1362h-144zM909 162v55l348 461h84v-434h103v-82h-103v-178h-172v178h-260zM1012 244h157v209h-4z" />
<glyph unicode="&#xbf;" horiz-adv-x="747" d="M70 -61q0 106 42 178.5t101 103.5t118.5 49.5t101.5 35t42 42.5q0 33 -35 101h72q86 -145 86 -234q0 -68 -44 -108.5t-108 -58.5l-127 -35q-63 -17 -107 -53t-44 -95q0 -57 38 -94t95 -37q43 0 113.5 17.5t115.5 17.5q57 0 91 -29t34 -80q0 -63 -55 -100t-145 -37 q-170 0 -277.5 117t-107.5 299zM287 711q0 57 47 98t118.5 41t117.5 -41t46 -98q0 -59 -48 -98.5t-115 -39.5q-70 0 -118 39.5t-48 98.5z" />
<glyph unicode="&#xc0;" horiz-adv-x="1515" d="M18 0v80h31q74 0 118 41t83 147l350 977l-22 60h303l409 -1041q41 -102 83 -140t122 -44v-80h-666v80h72q90 0 113.5 40t-10.5 116l-97 237h-448l-86 -240q-37 -78 -6.5 -115.5t168.5 -37.5h26v-80h-543zM432 1784h330l151 -387h-118zM500 586h360l-188 479z" />
<glyph unicode="&#xc1;" horiz-adv-x="1515" d="M18 0v80h31q74 0 118 41t83 147l350 977l-22 60h303l409 -1041q41 -102 83 -140t122 -44v-80h-666v80h72q90 0 113.5 40t-10.5 116l-97 237h-448l-86 -240q-37 -78 -6.5 -115.5t168.5 -37.5h26v-80h-543zM500 586h360l-188 479zM596 1397l152 387h329l-362 -387h-119z " />
<glyph unicode="&#xc2;" horiz-adv-x="1515" d="M18 0v80h31q74 0 118 41t83 147l350 977l-22 60h303l409 -1041q41 -102 83 -140t122 -44v-80h-666v80h72q90 0 113.5 40t-10.5 116l-97 237h-448l-86 -240q-37 -78 -6.5 -115.5t168.5 -37.5h26v-80h-543zM440 1397l164 387h303l172 -387h-159l-162 217l-154 -217h-164z M500 586h360l-188 479z" />
<glyph unicode="&#xc3;" horiz-adv-x="1515" d="M18 0v80h31q74 0 118 41t83 147l350 977l-22 60h303l409 -1041q41 -102 83 -140t122 -44v-80h-666v80h72q90 0 113.5 40t-10.5 116l-97 237h-448l-86 -240q-37 -78 -6.5 -115.5t168.5 -37.5h26v-80h-543zM383 1446q0 133 62.5 217t162.5 84q63 0 164.5 -52.5t134.5 -52.5 q72 0 97 103h131q-6 -127 -70 -212t-154 -85q-63 0 -167.5 51t-135.5 51q-70 0 -96 -104h-129zM500 586h360l-188 479z" />
<glyph unicode="&#xc4;" horiz-adv-x="1515" d="M18 0v80h31q74 0 118 41t83 147l350 977l-22 60h303l409 -1041q41 -102 83 -140t122 -44v-80h-666v80h72q90 0 113.5 40t-10.5 116l-97 237h-448l-86 -240q-37 -78 -6.5 -115.5t168.5 -37.5h26v-80h-543zM438 1564.5q0 51.5 36 87.5t87 36t87 -36t36 -87.5t-36 -87 t-87 -35.5t-87 35.5t-36 87zM500 586h360l-188 479zM836 1564.5q0 51.5 35.5 87.5t87 36t87 -36t35.5 -87.5t-35.5 -87t-87 -35.5t-87 35.5t-35.5 87z" />
<glyph unicode="&#xc5;" horiz-adv-x="1515" d="M18 0v80h31q74 0 118 41t83 147l350 977l-22 60h303l409 -1041q41 -102 83 -140t122 -44v-80h-666v80h72q90 0 113.5 40t-10.5 116l-97 237h-448l-86 -240q-37 -78 -6.5 -115.5t168.5 -37.5h26v-80h-543zM500 586h360l-188 479zM561 1579q0 84 57.5 141.5t141.5 57.5 t141 -57.5t57 -141.5t-57 -141.5t-141 -57.5t-141.5 57.5t-57.5 141.5zM633 1579q0 -51 38 -89t89 -38t89 38t38 89t-38 89t-89 38t-89 -38t-38 -89z" />
<glyph unicode="&#xc6;" horiz-adv-x="1835" d="M-33 0v80h27q131 0 242 217l397 776q35 61 25.5 91t-74.5 30h-66v80h1159l21 -297h-78q-16 106 -44 145t-97 39h-363v-467h230q84 0 118.5 33t34.5 115h82v-408h-82q0 86 -34.5 117t-149.5 31h-199v-363q0 -66 15.5 -86t60.5 -20h260q104 0 155.5 42t80.5 167h77 l-24 -322h-1112v80h45q88 0 124 35t36 112v209h-396l-106 -207q-37 -66 -19.5 -107.5t88.5 -41.5h37v-80h-471zM496 549h338v657h-9z" />
<glyph unicode="&#xc7;" horiz-adv-x="1515" d="M104 633q0 283 227.5 477.5t557.5 194.5q94 0 182 -21.5t143.5 -42t67.5 -20.5q23 0 41 20h51l19 -358h-80q-49 152 -154.5 234.5t-253.5 82.5q-219 0 -357 -151.5t-138 -393.5q0 -248 149.5 -415.5t368.5 -167.5q141 0 252.5 77.5t175.5 217.5h82q-29 -184 -115 -373 q-45 14 -121 14q-39 0 -156.5 -18.5t-214.5 -18.5l-22 -39q125 -33 125 -161q0 -82 -58.5 -136.5t-148.5 -54.5q-100 0 -178 49l18 62q53 -23 115 -23q37 0 63.5 24.5t26.5 57.5q0 39 -26.5 56.5t-90.5 23.5l105 145q-285 31 -470.5 216.5t-185.5 441.5z" />
<glyph unicode="&#xc8;" horiz-adv-x="1323" d="M-4 0v80h84q88 0 124 35t36 112v817q0 84 -37 117t-142 33h-20v80h1128l21 -297h-78q-16 106 -44 145t-97 39h-449v-461h332q84 0 119 33t35 115h82v-408h-82q0 86 -35 117t-150 31h-301v-369q0 -66 15.5 -86t60.5 -20h342q104 0 155.5 42t80.5 167h77l-24 -322h-1233z M336 1784h330l151 -387h-119z" />
<glyph unicode="&#xc9;" horiz-adv-x="1323" d="M-4 0v80h84q88 0 124 35t36 112v817q0 84 -37 117t-142 33h-20v80h1128l21 -297h-78q-16 106 -44 145t-97 39h-449v-461h332q84 0 119 33t35 115h82v-408h-82q0 86 -35 117t-150 31h-301v-369q0 -66 15.5 -86t60.5 -20h342q104 0 155.5 42t80.5 167h77l-24 -322h-1233z M500 1397l151 387h330l-363 -387h-118z" />
<glyph unicode="&#xca;" horiz-adv-x="1323" d="M-4 0v80h84q88 0 124 35t36 112v817q0 84 -37 117t-142 33h-20v80h1128l21 -297h-78q-16 106 -44 145t-97 39h-449v-461h332q84 0 119 33t35 115h82v-408h-82q0 86 -35 117t-150 31h-301v-369q0 -66 15.5 -86t60.5 -20h342q104 0 155.5 42t80.5 167h77l-24 -322h-1233z M344 1397l164 387h303l172 -387h-160l-161 217l-154 -217h-164z" />
<glyph unicode="&#xcb;" horiz-adv-x="1323" d="M-4 0v80h84q88 0 124 35t36 112v817q0 84 -37 117t-142 33h-20v80h1128l21 -297h-78q-16 106 -44 145t-97 39h-449v-461h332q84 0 119 33t35 115h82v-408h-82q0 86 -35 117t-150 31h-301v-369q0 -66 15.5 -86t60.5 -20h342q104 0 155.5 42t80.5 167h77l-24 -322h-1233z M342 1564.5q0 51.5 36 87.5t87 36t87 -36t36 -87.5t-36 -87t-87 -35.5t-87 35.5t-36 87zM739 1564.5q0 51.5 36 87.5t87 36t87 -36t36 -87.5t-36 -87t-87 -35.5t-87 35.5t-36 87z" />
<glyph unicode="&#xcc;" horiz-adv-x="747" d="M47 0v80h29q150 0 149 141v819q0 82 -33.5 118t-117.5 36h-27v80h651v-80h-34q-82 0 -119 -37t-37 -117v-811q0 -78 35 -113.5t125 -35.5h30v-80h-651zM47 1784h330l151 -387h-118z" />
<glyph unicode="&#xcd;" horiz-adv-x="747" d="M47 0v80h29q150 0 149 141v819q0 82 -33.5 118t-117.5 36h-27v80h651v-80h-34q-82 0 -119 -37t-37 -117v-811q0 -78 35 -113.5t125 -35.5h30v-80h-651zM211 1397l151 387h330l-362 -387h-119z" />
<glyph unicode="&#xce;" horiz-adv-x="747" d="M47 0v80h29q150 0 149 141v819q0 82 -33.5 118t-117.5 36h-27v80h651v-80h-34q-82 0 -119 -37t-37 -117v-811q0 -78 35 -113.5t125 -35.5h30v-80h-651zM55 1397l164 387h303l172 -387h-159l-162 217l-154 -217h-164z" />
<glyph unicode="&#xcf;" horiz-adv-x="747" d="M47 0v80h29q150 0 149 141v819q0 82 -33.5 118t-117.5 36h-27v80h651v-80h-34q-82 0 -119 -37t-37 -117v-811q0 -78 35 -113.5t125 -35.5h30v-80h-651zM53 1564.5q0 51.5 36 87.5t87 36t87 -36t36 -87.5t-36 -87t-87 -35.5t-87 35.5t-36 87zM451 1564.5q0 51.5 35.5 87.5 t87 36t87 -36t35.5 -87.5t-35.5 -87t-87 -35.5t-87 35.5t-35.5 87z" />
<glyph unicode="&#xd0;" horiz-adv-x="1685" d="M43 0v80q106 0 148 29.5t42 113.5v348h-190v123h190v320q0 111 -36.5 145.5t-153.5 34.5v80l162 7q117 5 168 9q170 10 280 10q307 0 474 -45t280 -157q172 -172 172 -430q0 -268 -190 -459q-94 -94 -252 -151.5t-443 -57.5h-651zM516 238q0 -102 29.5 -129t148.5 -27 q133 0 236.5 35t167 91t104.5 132t56.5 149.5t15.5 151.5q0 264 -152 416q-147 147 -446 147q-86 0 -160 -10v-500h334v-123h-334v-333z" />
<glyph unicode="&#xd1;" horiz-adv-x="1665" d="M49 0v80h12q90 0 123 30.5t33 98.5v940q-66 45 -164 45v80h422l836 -873v619q0 111 -36 142.5t-159 31.5h-20v80h528v-80h-20q-94 0 -131 -22.5t-37 -81.5v-1096h-113l-981 1026v-774q0 -96 41 -131t162 -35v-80h-496zM457 1446q0 133 62.5 217t162.5 84 q63 0 164.5 -52.5t134.5 -52.5q72 0 96 103h131q-6 -127 -69.5 -212t-153.5 -85q-63 0 -167.5 51t-135.5 51q-70 0 -96 -104h-129z" />
<glyph unicode="&#xd2;" horiz-adv-x="1728" d="M106 616q0 303 221.5 500t563.5 197q322 0 526.5 -182.5t204.5 -469t-209 -488.5t-561 -202q-340 0 -543 187.5t-203 457.5zM412 715q0 -293 135 -474.5t352 -181.5q203 0 310.5 150.5t107.5 378.5q0 170 -52.5 311t-163 233.5t-259.5 92.5q-195 0 -312.5 -139.5 t-117.5 -370.5zM539 1784h329l152 -387h-119z" />
<glyph unicode="&#xd3;" horiz-adv-x="1728" d="M106 616q0 303 221.5 500t563.5 197q322 0 526.5 -182.5t204.5 -469t-209 -488.5t-561 -202q-340 0 -543 187.5t-203 457.5zM412 715q0 -293 135 -474.5t352 -181.5q203 0 310.5 150.5t107.5 378.5q0 170 -52.5 311t-163 233.5t-259.5 92.5q-195 0 -312.5 -139.5 t-117.5 -370.5zM702 1397l152 387h330l-363 -387h-119z" />
<glyph unicode="&#xd4;" horiz-adv-x="1728" d="M106 616q0 303 221.5 500t563.5 197q322 0 526.5 -182.5t204.5 -469t-209 -488.5t-561 -202q-340 0 -543 187.5t-203 457.5zM412 715q0 -293 135 -474.5t352 -181.5q203 0 310.5 150.5t107.5 378.5q0 170 -52.5 311t-163 233.5t-259.5 92.5q-195 0 -312.5 -139.5 t-117.5 -370.5zM547 1397l164 387h303l172 -387h-160l-162 217l-153 -217h-164z" />
<glyph unicode="&#xd5;" horiz-adv-x="1728" d="M106 616q0 303 221.5 500t563.5 197q322 0 526.5 -182.5t204.5 -469t-209 -488.5t-561 -202q-340 0 -543 187.5t-203 457.5zM412 715q0 -293 135 -474.5t352 -181.5q203 0 310.5 150.5t107.5 378.5q0 170 -52.5 311t-163 233.5t-259.5 92.5q-195 0 -312.5 -139.5 t-117.5 -370.5zM489 1446q0 133 62.5 217t163.5 84q63 0 164.5 -52.5t134.5 -52.5q72 0 96 103h131q-6 -127 -69.5 -212t-153.5 -85q-63 0 -168 51t-135 51q-70 0 -97 -104h-129z" />
<glyph unicode="&#xd6;" horiz-adv-x="1728" d="M106 616q0 303 221.5 500t563.5 197q322 0 526.5 -182.5t204.5 -469t-209 -488.5t-561 -202q-340 0 -543 187.5t-203 457.5zM412 715q0 -293 135 -474.5t352 -181.5q203 0 310.5 150.5t107.5 378.5q0 170 -52.5 311t-163 233.5t-259.5 92.5q-195 0 -312.5 -139.5 t-117.5 -370.5zM545 1564.5q0 51.5 35.5 87.5t87 36t87.5 -36t36 -87.5t-36 -87t-87.5 -35.5t-87 35.5t-35.5 87zM942 1564.5q0 51.5 36 87.5t87 36t87 -36t36 -87.5t-36 -87t-87 -35.5t-87 35.5t-36 87z" />
<glyph unicode="&#xd7;" horiz-adv-x="1366" d="M174 1063l111 111l397 -398l397 398l111 -111l-397 -397l397 -398l-111 -110l-397 397l-395 -395l-111 110l395 396z" />
<glyph unicode="&#xd8;" horiz-adv-x="1728" d="M106 616q0 303 221.5 500t563.5 197q238 0 418 -105l166 195l59 -47l-162 -189q250 -184 250 -505q0 -287 -209 -489t-561 -202q-240 0 -418 101l-180 -209l-55 45l174 203q-127 88 -197 220.5t-70 284.5zM412 715q0 -260 108 -432l656 770q-125 172 -334 172 q-195 0 -312.5 -139.5t-117.5 -370.5zM563 221q131 -162 336 -162q203 0 310.5 150.5t107.5 378.5q0 240 -98 401z" />
<glyph unicode="&#xd9;" horiz-adv-x="1579" d="M10 1194v80h641v-80h-35q-145 0 -145 -139v-611q0 -174 106.5 -254.5t264.5 -80.5q197 0 299 101t102 275v498q0 113 -38 162t-130 49h-37v80h531v-80h-15q-113 0 -150.5 -43t-37.5 -127v-510q0 -131 -37 -231.5t-94 -157.5t-137 -93t-153 -48.5t-154 -12.5 q-283 0 -443 121t-160 352v611q0 78 -29.5 108.5t-113.5 30.5h-35zM463 1784h330l151 -387h-119z" />
<glyph unicode="&#xda;" horiz-adv-x="1579" d="M10 1194v80h641v-80h-35q-145 0 -145 -139v-611q0 -174 106.5 -254.5t264.5 -80.5q197 0 299 101t102 275v498q0 113 -38 162t-130 49h-37v80h531v-80h-15q-113 0 -150.5 -43t-37.5 -127v-510q0 -131 -37 -231.5t-94 -157.5t-137 -93t-153 -48.5t-154 -12.5 q-283 0 -443 121t-160 352v611q0 78 -29.5 108.5t-113.5 30.5h-35zM627 1397l151 387h330l-363 -387h-118z" />
<glyph unicode="&#xdb;" horiz-adv-x="1579" d="M10 1194v80h641v-80h-35q-145 0 -145 -139v-611q0 -174 106.5 -254.5t264.5 -80.5q197 0 299 101t102 275v498q0 113 -38 162t-130 49h-37v80h531v-80h-15q-113 0 -150.5 -43t-37.5 -127v-510q0 -131 -37 -231.5t-94 -157.5t-137 -93t-153 -48.5t-154 -12.5 q-283 0 -443 121t-160 352v611q0 78 -29.5 108.5t-113.5 30.5h-35zM471 1397l164 387h303l172 -387h-160l-162 217l-153 -217h-164z" />
<glyph unicode="&#xdc;" horiz-adv-x="1579" d="M10 1194v80h641v-80h-35q-145 0 -145 -139v-611q0 -174 106.5 -254.5t264.5 -80.5q197 0 299 101t102 275v498q0 113 -38 162t-130 49h-37v80h531v-80h-15q-113 0 -150.5 -43t-37.5 -127v-510q0 -131 -37 -231.5t-94 -157.5t-137 -93t-153 -48.5t-154 -12.5 q-283 0 -443 121t-160 352v611q0 78 -29.5 108.5t-113.5 30.5h-35zM469 1564.5q0 51.5 36 87.5t87 36t87 -36t36 -87.5t-36 -87t-87 -35.5t-87 35.5t-36 87zM866 1564.5q0 51.5 36 87.5t87 36t87 -36t36 -87.5t-36 -87t-87 -35.5t-87 35.5t-36 87z" />
<glyph unicode="&#xdd;" horiz-adv-x="1536" d="M16 1194v80h668v-80h-25q-84 0 -106.5 -32t14.5 -72l328 -433l238 373q104 164 -74 164h-25v80h484v-80q-88 -6 -130 -32.5t-98 -110.5l-350 -539v-281q0 -80 37 -115.5t141 -35.5h31v-80h-698v80h51q88 0 121.5 37t33.5 110v285l-440 586q-47 61 -80 78.5t-106 17.5h-15 zM606 1397l152 387h329l-362 -387h-119z" />
<glyph unicode="&#xde;" horiz-adv-x="1323" d="M59 0v80h31q84 0 113.5 23.5t29.5 93.5v880q0 70 -29.5 93.5t-113.5 23.5h-31v80h631v-80q-115 0 -144.5 -25.5t-29.5 -140.5q16 0 75.5 3t110.5 3q287 0 425.5 -113.5t138.5 -287.5q0 -178 -140.5 -283.5t-375.5 -105.5q-111 0 -234 20v-31q0 -88 39 -120.5t139 -32.5 h62v-80h-697zM516 348q59 -14 148 -14q143 0 220 81t77 230q0 141 -79 220t-220 79q-76 0 -146 -14v-582z" />
<glyph unicode="&#xdf;" horiz-adv-x="1153" d="M29 0v66q70 0 95.5 22.5t25.5 91.5v627q0 176 21.5 279.5t92.5 175.5q115 115 332 114q184 0 298 -86t114 -225q0 -119 -87 -208t-237 -122v-4q186 -20 290.5 -122.5t104.5 -243.5q0 -152 -128 -275t-349 -115v72q221 18 221 289q0 168 -72.5 264t-205.5 105v65 q219 8 219 252q0 143 -57.5 212t-139.5 69q-96 0 -132 -85t-36 -239v-793q0 -61 22.5 -90.5t80.5 -29.5v-66h-473z" />
<glyph unicode="&#xe0;" horiz-adv-x="980" d="M78 193q0 100 63 163q45 45 191.5 92.5t230.5 114.5v76q0 59 -37 98t-92 39q-57 0 -88 -41t-18 -117l-230 -79q-29 125 43 196q51 51 154.5 87t183.5 36q43 0 95.5 -12t108.5 -39t93 -79t37 -120v-387q0 -94 45 -94q20 0 55 25l31 -50q-47 -51 -114.5 -86.5t-118.5 -35.5 q-57 0 -95 33.5t-49 92.5q-72 -70 -123 -99.5t-129 -29.5q-109 0 -173 59t-64 157zM164 1364h330l151 -387h-119zM324 233q0 -63 27.5 -102t74.5 -39q49 0 137 86v293q-33 -29 -101.5 -58.5t-103 -67.5t-34.5 -112z" />
<glyph unicode="&#xe1;" horiz-adv-x="980" d="M78 193q0 100 63 163q45 45 191.5 92.5t230.5 114.5v76q0 59 -37 98t-92 39q-57 0 -88 -41t-18 -117l-230 -79q-29 125 43 196q51 51 154.5 87t183.5 36q43 0 95.5 -12t108.5 -39t93 -79t37 -120v-387q0 -94 45 -94q20 0 55 25l31 -50q-47 -51 -114.5 -86.5t-118.5 -35.5 q-57 0 -95 33.5t-49 92.5q-72 -70 -123 -99.5t-129 -29.5q-109 0 -173 59t-64 157zM324 233q0 -63 27.5 -102t74.5 -39q49 0 137 86v293q-33 -29 -101.5 -58.5t-103 -67.5t-34.5 -112zM328 977l151 387h330l-363 -387h-118z" />
<glyph unicode="&#xe2;" horiz-adv-x="980" d="M78 193q0 100 63 163q45 45 191.5 92.5t230.5 114.5v76q0 59 -37 98t-92 39q-57 0 -88 -41t-18 -117l-230 -79q-29 125 43 196q51 51 154.5 87t183.5 36q43 0 95.5 -12t108.5 -39t93 -79t37 -120v-387q0 -94 45 -94q20 0 55 25l31 -50q-47 -51 -114.5 -86.5t-118.5 -35.5 q-57 0 -95 33.5t-49 92.5q-72 -70 -123 -99.5t-129 -29.5q-109 0 -173 59t-64 157zM172 977l164 387h303l172 -387h-160l-162 217l-153 -217h-164zM324 233q0 -63 27.5 -102t74.5 -39q49 0 137 86v293q-33 -29 -101.5 -58.5t-103 -67.5t-34.5 -112z" />
<glyph unicode="&#xe3;" horiz-adv-x="980" d="M78 193q0 100 63 163q45 45 191.5 92.5t230.5 114.5v76q0 59 -37 98t-92 39q-57 0 -88 -41t-18 -117l-230 -79q-29 125 43 196q51 51 154.5 87t183.5 36q43 0 95.5 -12t108.5 -39t93 -79t37 -120v-387q0 -94 45 -94q20 0 55 25l31 -50q-47 -51 -114.5 -86.5t-118.5 -35.5 q-57 0 -95 33.5t-49 92.5q-72 -70 -123 -99.5t-129 -29.5q-109 0 -173 59t-64 157zM115 1026q0 133 62.5 217t162.5 84q63 0 164.5 -52t134.5 -52q70 0 96 102h131q-6 -127 -69.5 -212t-153.5 -85q-63 0 -167.5 51t-135.5 51q-70 0 -96 -104h-129zM324 233q0 -63 27.5 -102 t74.5 -39q49 0 137 86v293q-33 -29 -101.5 -58.5t-103 -67.5t-34.5 -112z" />
<glyph unicode="&#xe4;" horiz-adv-x="980" d="M78 193q0 100 63 163q45 45 191.5 92.5t230.5 114.5v76q0 59 -37 98t-92 39q-57 0 -88 -41t-18 -117l-230 -79q-29 125 43 196q51 51 154.5 87t183.5 36q43 0 95.5 -12t108.5 -39t93 -79t37 -120v-387q0 -94 45 -94q20 0 55 25l31 -50q-47 -51 -114.5 -86.5t-118.5 -35.5 q-57 0 -95 33.5t-49 92.5q-72 -70 -123 -99.5t-129 -29.5q-109 0 -173 59t-64 157zM170 1145q0 51 36 87t87 36t87 -36t36 -87t-36 -87t-87 -36t-87 36t-36 87zM324 233q0 -63 27.5 -102t74.5 -39q49 0 137 86v293q-33 -29 -101.5 -58.5t-103 -67.5t-34.5 -112zM567 1145 q0 51 36 87t87 36t87 -36t36 -87t-36 -87t-87 -36t-87 36t-36 87z" />
<glyph unicode="&#xe5;" horiz-adv-x="980" d="M78 193q0 100 63 163q45 45 191.5 92.5t230.5 114.5v76q0 59 -37 98t-92 39q-57 0 -88 -41t-18 -117l-230 -79q-29 125 43 196q51 51 154.5 87t183.5 36q43 0 95.5 -12t108.5 -39t93 -79t37 -120v-387q0 -94 45 -94q20 0 55 25l31 -50q-47 -51 -114.5 -86.5t-118.5 -35.5 q-57 0 -95 33.5t-49 92.5q-72 -70 -123 -99.5t-129 -29.5q-109 0 -173 59t-64 157zM293 1159q0 82 58.5 140.5t140 58.5t140 -58.5t58.5 -140.5t-58.5 -140t-140 -58t-140 58t-58.5 140zM324 233q0 -63 27.5 -102t74.5 -39q49 0 137 86v293q-33 -29 -101.5 -58.5t-103 -67.5 t-34.5 -112zM365 1159q0 -53 36.5 -90t90 -37t90 37t36.5 90t-36.5 90t-90 37t-90 -37t-36.5 -90z" />
<glyph unicode="&#xe6;" horiz-adv-x="1429" d="M76 193q0 100 65 165q53 53 195.5 94.5t214.5 98.5q12 102 -21.5 164.5t-103.5 62.5q-55 0 -85 -46t-9 -114l-236 -81q-14 47 -2 106t47 94q51 51 152.5 86t183.5 35q147 0 246 -80q92 80 244 80q168 0 270 -102q53 -53 74.5 -152.5t46.5 -124.5v-49h-559 q16 -145 82.5 -222t173.5 -77q61 0 115.5 32t127.5 111l41 -49q-82 -111 -201.5 -179.5t-232.5 -68.5q-86 0 -172 39t-143 105q-145 -139 -289 -139q-102 0 -163.5 57.5t-61.5 153.5zM317 231q0 -59 28 -99t69 -40q74 0 137 80v287q-53 -37 -113.5 -63.5t-81.5 -47.5 q-39 -39 -39 -117zM799 510h286q0 113 -38.5 182.5t-106.5 69.5t-104.5 -65.5t-36.5 -186.5z" />
<glyph unicode="&#xe7;" horiz-adv-x="1003" d="M90 383q0 201 152.5 338t378.5 137q133 0 221 -49t88 -125q0 -47 -29 -74.5t-76 -27.5t-89 28.5t-66.5 62.5t-61.5 62.5t-76 28.5q-78 0 -125 -86t-47 -223q0 -166 71 -268.5t185 -102.5q137 0 263 145l59 -32q-143 -219 -410 -220l-26 -45q125 -33 125 -161 q0 -82 -58.5 -136.5t-148.5 -54.5q-100 0 -178 49l18 62q53 -23 115 -23q37 0 63.5 24.5t26.5 57.5q0 39 -26.5 56.5t-90.5 23.5l111 154q-164 16 -266.5 126.5t-102.5 272.5z" />
<glyph unicode="&#xe8;" horiz-adv-x="980" d="M86 397q0 203 123 332t315 129q160 0 258 -98q51 -51 70.5 -112.5t28 -103.5t37.5 -57v-59h-568q12 -127 86 -213t166 -86q109 0 250 147l47 -38q-86 -121 -202.5 -191t-235.5 -70q-168 0 -271.5 117t-103.5 303zM164 1364h330l151 -387h-119zM344 508h291 q-2 119 -41 186.5t-104.5 67.5t-110.5 -74t-35 -180z" />
<glyph unicode="&#xe9;" horiz-adv-x="980" d="M86 397q0 203 123 332t315 129q160 0 258 -98q51 -51 70.5 -112.5t28 -103.5t37.5 -57v-59h-568q12 -127 86 -213t166 -86q109 0 250 147l47 -38q-86 -121 -202.5 -191t-235.5 -70q-168 0 -271.5 117t-103.5 303zM328 977l151 387h330l-363 -387h-118zM344 508h291 q-2 119 -41 186.5t-104.5 67.5t-110.5 -74t-35 -180z" />
<glyph unicode="&#xea;" horiz-adv-x="980" d="M86 397q0 203 123 332t315 129q160 0 258 -98q51 -51 70.5 -112.5t28 -103.5t37.5 -57v-59h-568q12 -127 86 -213t166 -86q109 0 250 147l47 -38q-86 -121 -202.5 -191t-235.5 -70q-168 0 -271.5 117t-103.5 303zM172 977l164 387h303l172 -387h-160l-162 217l-153 -217 h-164zM344 508h291q-2 119 -41 186.5t-104.5 67.5t-110.5 -74t-35 -180z" />
<glyph unicode="&#xeb;" horiz-adv-x="980" d="M86 397q0 203 123 332t315 129q160 0 258 -98q51 -51 70.5 -112.5t28 -103.5t37.5 -57v-59h-568q12 -127 86 -213t166 -86q109 0 250 147l47 -38q-86 -121 -202.5 -191t-235.5 -70q-168 0 -271.5 117t-103.5 303zM170 1145q0 51 36 87t87 36t87 -36t36 -87t-36 -87 t-87 -36t-87 36t-36 87zM344 508h291q-2 119 -41 186.5t-104.5 67.5t-110.5 -74t-35 -180zM567 1145q0 51 36 87t87 36t87 -36t36 -87t-36 -87t-87 -36t-87 36t-36 87z" />
<glyph unicode="&#xec;" horiz-adv-x="598" d="M-27 1364h330l152 -387h-119zM31 0v66h22q63 0 89 31.5t26 111.5v393q0 39 -13.5 55.5t-56.5 32.5l-67 25v49l350 117h37v-686q0 -129 125 -129v-66h-512z" />
<glyph unicode="&#xed;" horiz-adv-x="598" d="M31 0v66h22q63 0 89 31.5t26 111.5v393q0 39 -13.5 55.5t-56.5 32.5l-67 25v49l350 117h37v-686q0 -129 125 -129v-66h-512zM137 977l152 387h329l-362 -387h-119z" />
<glyph unicode="&#xee;" horiz-adv-x="598" d="M-18 977l163 387h304l172 -387h-160l-162 217l-154 -217h-163zM31 0v66h22q63 0 89 31.5t26 111.5v393q0 39 -13.5 55.5t-56.5 32.5l-67 25v49l350 117h37v-686q0 -129 125 -129v-66h-512z" />
<glyph unicode="&#xef;" horiz-adv-x="598" d="M-20 1145q0 51 35.5 87t87 36t87 -36t35.5 -87t-35.5 -87t-87 -36t-87 36t-35.5 87zM31 0v66h22q63 0 89 31.5t26 111.5v393q0 39 -13.5 55.5t-56.5 32.5l-67 25v49l350 117h37v-686q0 -129 125 -129v-66h-512zM377 1145q0 51 36 87t87 36t87 -36t36 -87t-36 -87t-87 -36 t-87 36t-36 87z" />
<glyph unicode="&#xf0;" horiz-adv-x="1153" d="M78 401q0 182 144.5 319.5t334.5 137.5q98 0 164 -57l6 2l-24 61q-11 29 -25 56l-22 41q-7 14 -24.5 40.5t-20.5 31.5t-25 36l-21 29l-256 -150l-35 64l244 143q-68 80 -178 150l45 65q131 -41 281 -135l237 135l35 -65l-207 -117q344 -303 344 -703q0 -236 -138 -372 t-374 -136q-127 0 -224 41t-151.5 106.5t-82 136t-27.5 140.5zM348 518q0 -72 15.5 -148.5t45 -147t83 -117t120.5 -46.5q72 0 130.5 57.5t58.5 202.5q0 176 -71 313.5t-193 137.5q-90 0 -139.5 -65.5t-49.5 -186.5z" />
<glyph unicode="&#xf1;" d="M31 713v49l350 119h39v-183q244 160 379 160q113 0 164 -84t51 -268v-320q0 -72 26.5 -96t89.5 -24v-66h-483v66q63 4 90 55t27 176v178q0 227 -127 227q-86 0 -217 -90v-415q0 -131 121 -131h18v-66h-518v66h12q66 0 91.5 31.5t25.5 111.5v399q0 66 -96 92zM211 1026 q0 133 62.5 217t162.5 84q63 0 164.5 -52t134.5 -52q72 0 96 102h132q-6 -127 -70 -212t-154 -85q-63 0 -167.5 51t-135.5 51q-70 0 -96 -104h-129z" />
<glyph unicode="&#xf2;" d="M88 406q0 193 147.5 322.5t366.5 129.5q211 0 347 -120t136 -306q0 -195 -147 -325t-367 -130q-211 0 -347 120.5t-136 308.5zM260 1364h330l151 -387h-118zM358 526q0 -96 25 -196.5t89.5 -182t156.5 -81.5q88 0 137 66.5t49 186.5q0 197 -74.5 324t-191.5 127 q-90 0 -140.5 -64.5t-50.5 -179.5z" />
<glyph unicode="&#xf3;" d="M88 406q0 193 147.5 322.5t366.5 129.5q211 0 347 -120t136 -306q0 -195 -147 -325t-367 -130q-211 0 -347 120.5t-136 308.5zM358 526q0 -96 25 -196.5t89.5 -182t156.5 -81.5q88 0 137 66.5t49 186.5q0 197 -74.5 324t-191.5 127q-90 0 -140.5 -64.5t-50.5 -179.5z M424 977l151 387h330l-362 -387h-119z" />
<glyph unicode="&#xf4;" d="M88 406q0 193 147.5 322.5t366.5 129.5q211 0 347 -120t136 -306q0 -195 -147 -325t-367 -130q-211 0 -347 120.5t-136 308.5zM268 977l164 387h303l172 -387h-159l-162 217l-154 -217h-164zM358 526q0 -96 25 -196.5t89.5 -182t156.5 -81.5q88 0 137 66.5t49 186.5 q0 197 -74.5 324t-191.5 127q-90 0 -140.5 -64.5t-50.5 -179.5z" />
<glyph unicode="&#xf5;" d="M88 406q0 193 147.5 322.5t366.5 129.5q211 0 347 -120t136 -306q0 -195 -147 -325t-367 -130q-211 0 -347 120.5t-136 308.5zM211 1026q0 133 62.5 217t162.5 84q63 0 164.5 -52t134.5 -52q72 0 96 102h132q-6 -127 -70 -212t-154 -85q-63 0 -167.5 51t-135.5 51 q-70 0 -96 -104h-129zM358 526q0 -96 25 -196.5t89.5 -182t156.5 -81.5q88 0 137 66.5t49 186.5q0 197 -74.5 324t-191.5 127q-90 0 -140.5 -64.5t-50.5 -179.5z" />
<glyph unicode="&#xf6;" d="M88 406q0 193 147.5 322.5t366.5 129.5q211 0 347 -120t136 -306q0 -195 -147 -325t-367 -130q-211 0 -347 120.5t-136 308.5zM266 1145q0 51 36 87t87 36t87 -36t36 -87t-36 -87t-87 -36t-87 36t-36 87zM358 526q0 -96 25 -196.5t89.5 -182t156.5 -81.5q88 0 137 66.5 t49 186.5q0 197 -74.5 324t-191.5 127q-90 0 -140.5 -64.5t-50.5 -179.5zM664 1145q0 51 35.5 87t87 36t87 -36t35.5 -87t-35.5 -87t-87 -36t-87 36t-35.5 87z" />
<glyph unicode="&#xf7;" horiz-adv-x="1368" d="M137 590v155h1094v-155h-1094zM586 256q0 41 28.5 69.5t69.5 28.5t69.5 -28.5t28.5 -69.5t-28.5 -69.5t-69.5 -28.5t-69.5 28.5t-28.5 69.5zM586 1079q0 41 28.5 70t69.5 29t69.5 -29t28.5 -70t-28.5 -69.5t-69.5 -28.5t-69.5 28.5t-28.5 69.5z" />
<glyph unicode="&#xf8;" d="M88 406q0 193 146.5 322.5t365.5 129.5q147 0 264 -61l131 155l58 -51l-125 -145q158 -123 157 -324q0 -193 -146 -324t-364 -131q-133 0 -264 60l-112 -131l-58 47l107 125q-160 125 -160 328zM358 528q0 -143 50 -264l329 387q-70 119 -188 119q-88 0 -139.5 -64.5 t-51.5 -177.5zM440 188q76 -123 189 -122q186 0 186 256q0 141 -43 253z" />
<glyph unicode="&#xf9;" d="M68 735v47l294 76h41v-522q0 -203 134 -203q76 0 206 84v371q0 59 -14 81.5t-59 37.5l-95 28v47l377 76h41v-627q0 -76 11.5 -99t48.5 -23q29 0 61 12v-64l-332 -80h-39v164q-258 -164 -366 -164q-106 0 -164.5 81t-58.5 200v342q0 59 -8.5 80.5t-34.5 34.5zM260 1364 h330l151 -387h-118z" />
<glyph unicode="&#xfa;" d="M68 735v47l294 76h41v-522q0 -203 134 -203q76 0 206 84v371q0 59 -14 81.5t-59 37.5l-95 28v47l377 76h41v-627q0 -76 11.5 -99t48.5 -23q29 0 61 12v-64l-332 -80h-39v164q-258 -164 -366 -164q-106 0 -164.5 81t-58.5 200v342q0 59 -8.5 80.5t-34.5 34.5zM424 977 l151 387h330l-362 -387h-119z" />
<glyph unicode="&#xfb;" d="M68 735v47l294 76h41v-522q0 -203 134 -203q76 0 206 84v371q0 59 -14 81.5t-59 37.5l-95 28v47l377 76h41v-627q0 -76 11.5 -99t48.5 -23q29 0 61 12v-64l-332 -80h-39v164q-258 -164 -366 -164q-106 0 -164.5 81t-58.5 200v342q0 59 -8.5 80.5t-34.5 34.5zM268 977 l164 387h303l172 -387h-159l-162 217l-154 -217h-164z" />
<glyph unicode="&#xfc;" d="M68 735v47l294 76h41v-522q0 -203 134 -203q76 0 206 84v371q0 59 -14 81.5t-59 37.5l-95 28v47l377 76h41v-627q0 -76 11.5 -99t48.5 -23q29 0 61 12v-64l-332 -80h-39v164q-258 -164 -366 -164q-106 0 -164.5 81t-58.5 200v342q0 59 -8.5 80.5t-34.5 34.5zM266 1145 q0 51 36 87t87 36t87 -36t36 -87t-36 -87t-87 -36t-87 36t-36 87zM664 1145q0 51 35.5 87t87 36t87 -36t35.5 -87t-35.5 -87t-87 -36t-87 36t-35.5 87z" />
<glyph unicode="&#xfd;" horiz-adv-x="1067" d="M2 770v66h522v-66q-78 0 -96 -30.5t12 -92.5l170 -352l156 315q35 66 8.5 112t-115.5 48v66h381v-66q-70 -14 -101.5 -44t-74.5 -118l-458 -934q-76 -152 -187 -151q-55 0 -92 32.5t-37 84.5q0 55 31 86q29 29 73 38t78.5 10t78.5 37.5t81 118.5l41 90l-276 564 q-55 113 -92 149.5t-103 36.5zM371 977l151 387h330l-363 -387h-118z" />
<glyph unicode="&#xfe;" d="M27 -401h24q59 0 85 30.5t26 104.5v1349q0 78 -56 99l-75 26v52l327 110h54v-686l38 30l37 29l34 26q26 19 37 25.5l34.5 20.5t39.5 20l37 12q22 7 42 9t43 2q141 0 237 -111.5t96 -275.5q0 -119 -49 -228.5t-159.5 -187.5t-257.5 -78q-90 0 -209 27v-219q0 -102 40 -140 t162 -46v-64h-587v64zM412 154q96 -100 211 -101q94 0 153.5 84t59.5 217q0 145 -59.5 248t-164.5 103q-84 0 -200 -105v-446z" />
<glyph unicode="&#xff;" horiz-adv-x="1067" d="M2 770v66h522v-66q-78 0 -96 -30.5t12 -92.5l170 -352l156 315q35 66 8.5 112t-115.5 48v66h381v-66q-70 -14 -101.5 -44t-74.5 -118l-458 -934q-76 -152 -187 -151q-55 0 -92 32.5t-37 84.5q0 55 31 86q29 29 73 38t78.5 10t78.5 37.5t81 118.5l41 90l-276 564 q-55 113 -92 149.5t-103 36.5zM213 1145q0 51 36 87t87 36t87 -36t36 -87t-36 -87t-87 -36t-87 36t-36 87zM610 1145q0 51 36 87t87 36t87 -36t36 -87t-36 -87t-87 -36t-87 36t-36 87z" />
<glyph unicode="&#x152;" horiz-adv-x="2177" d="M104 639q0 84 23 169t76 173t132 155.5t203 109.5t275 42q31 0 160 -6q86 -8 162 -8h893l20 -297h-78q-16 106 -44 145t-97 39h-402v-467h269q84 0 118.5 33t34.5 115h82v-408h-82q0 86 -34.5 117t-149.5 31h-238v-363q0 -66 15.5 -86t60.5 -20h295q104 0 155.5 42 t80.5 167h77l-24 -322h-1012q-20 0 -102 -4q-61 -6 -170 -6q-145 0 -265 40t-199 104.5t-133 150.5t-78 175t-24 179zM408 680q0 -246 144 -421t349 -175q244 0 244 307v541q0 131 -59.5 199.5t-217.5 68.5q-207 0 -333.5 -142t-126.5 -378z" />
<glyph unicode="&#x153;" horiz-adv-x="1599" d="M90 415.5q0 186.5 138.5 312.5t344.5 126q184 0 314 -92q133 96 272 96q70 0 138.5 -24.5t109.5 -65.5q53 -53 82 -147.5t53 -131.5v-59h-528q14 -137 80.5 -214t165.5 -77q111 0 223 125l49 -47q-74 -106 -188.5 -169.5t-233.5 -63.5q-125 0 -248 82q-158 -88 -313 -89 q-195 0 -327 126t-132 312.5zM350 541q0 -86 21.5 -187.5t83 -194.5t149.5 -93q80 0 128 61t48 164q0 68 -12 141.5t-40 152.5t-81 130t-125 51q-78 0 -125 -62.5t-47 -162.5zM1010 510h262q-4 123 -39 191.5t-94 68.5q-129 0 -129 -260z" />
<glyph unicode="&#x178;" horiz-adv-x="1536" d="M16 1194v80h668v-80h-25q-84 0 -106.5 -32t14.5 -72l328 -433l238 373q104 164 -74 164h-25v80h484v-80q-88 -6 -130 -32.5t-98 -110.5l-350 -539v-281q0 -80 37 -115.5t141 -35.5h31v-80h-698v80h51q88 0 121.5 37t33.5 110v285l-440 586q-47 61 -80 78.5t-106 17.5h-15 zM449 1564.5q0 51.5 35.5 87.5t87 36t87 -36t35.5 -87.5t-35.5 -87t-87 -35.5t-87 35.5t-35.5 87zM846 1564.5q0 51.5 36 87.5t87 36t87 -36t36 -87.5t-36 -87t-87 -35.5t-87 35.5t-36 87z" />
<glyph unicode="&#x2c6;" horiz-adv-x="681" d="M23 977l163 387h303l173 -387h-160l-162 217l-154 -217h-163z" />
<glyph unicode="&#x2dc;" horiz-adv-x="681" d="M-35 1026q0 133 62.5 217t162.5 84q63 0 165 -52t134 -52q72 0 97 102h131q-6 -127 -69.5 -212t-153.5 -85q-63 0 -168 51t-136 51q-70 0 -96 -104h-129z" />
<glyph unicode="&#x2000;" horiz-adv-x="890" />
<glyph unicode="&#x2001;" horiz-adv-x="1783" />
<glyph unicode="&#x2002;" horiz-adv-x="890" />
<glyph unicode="&#x2003;" horiz-adv-x="1783" />
<glyph unicode="&#x2004;" horiz-adv-x="593" />
<glyph unicode="&#x2005;" horiz-adv-x="444" />
<glyph unicode="&#x2006;" horiz-adv-x="296" />
<glyph unicode="&#x2007;" horiz-adv-x="296" />
<glyph unicode="&#x2008;" horiz-adv-x="221" />
<glyph unicode="&#x2009;" horiz-adv-x="356" />
<glyph unicode="&#x200a;" horiz-adv-x="98" />
<glyph unicode="&#x2010;" horiz-adv-x="854" d="M72 313v201h708v-201h-708z" />
<glyph unicode="&#x2011;" horiz-adv-x="854" d="M72 313v201h708v-201h-708z" />
<glyph unicode="&#x2013;" horiz-adv-x="1024" d="M-12 420v184h1048v-184h-1048z" />
<glyph unicode="&#x2014;" horiz-adv-x="2048" d="M-12 420v184h2072v-184h-2072z" />
<glyph unicode="&#x2018;" horiz-adv-x="641" d="M131 995q0 139 95.5 229.5t240.5 88.5l16 -86q-98 -8 -161.5 -55.5t-63.5 -114.5q0 -14 5 -21.5t15.5 -8.5t20.5 0t27.5 3t29.5 2q74 0 114 -37t40 -98t-44 -99t-114 -38q-100 0 -160.5 63t-60.5 172z" />
<glyph unicode="&#x2019;" horiz-adv-x="641" d="M131 1175.5q0 61.5 44 99.5t114 38q100 0 160.5 -63.5t60.5 -172.5q0 -139 -95.5 -229t-240.5 -88l-16 86q98 8 161.5 55t63.5 115q0 14 -5 21t-15.5 8.5t-20.5 0t-27.5 -3.5t-29.5 -2q-74 0 -114 37t-40 98.5z" />
<glyph unicode="&#x201a;" horiz-adv-x="641" d="M131 116.5q0 61.5 44 99.5t114 38q100 0 160.5 -63.5t60.5 -172.5q0 -139 -95.5 -229t-240.5 -88l-16 86q98 8 161.5 55t63.5 115q0 14 -5 21.5t-15.5 8.5t-20.5 0t-27.5 -3t-29.5 -2q-74 0 -114 36.5t-40 98z" />
<glyph unicode="&#x201c;" horiz-adv-x="1193" d="M125 995q0 139 95 229.5t241 88.5l16 -86q-98 -8 -161.5 -55.5t-63.5 -114.5q0 -14 5 -21.5t15.5 -8.5t20.5 0t27.5 3t29.5 2q74 0 114 -37t40 -98t-44 -99t-114 -38q-100 0 -160.5 63t-60.5 172zM690 995q0 139 95.5 229.5t240.5 88.5l16 -86q-98 -8 -161.5 -55.5 t-63.5 -114.5q0 -14 5 -21.5t15.5 -8.5t20.5 0t27.5 3t29.5 2q74 0 114 -37t40 -98t-44 -99t-114 -38q-100 0 -160.5 63t-60.5 172z" />
<glyph unicode="&#x201d;" horiz-adv-x="1193" d="M125 1175.5q0 61.5 44 99.5t114 38q100 0 160.5 -63.5t60.5 -172.5q0 -139 -95.5 -229t-240.5 -88l-16 86q98 8 161.5 55t63.5 115q0 14 -5 21t-15.5 8.5t-20.5 0t-27.5 -3.5t-29.5 -2q-74 0 -114 37t-40 98.5zM690 1175.5q0 61.5 44 99.5t114 38q100 0 160.5 -63.5 t60.5 -172.5q0 -139 -95 -229t-241 -88l-16 86q98 8 161.5 55t63.5 115q0 14 -5 21t-15.5 8.5t-20.5 0t-27.5 -3.5t-29.5 -2q-74 0 -114 37t-40 98.5z" />
<glyph unicode="&#x201e;" horiz-adv-x="1193" d="M125 116.5q0 61.5 44 99.5t114 38q100 0 160.5 -63.5t60.5 -172.5q0 -139 -95.5 -229t-240.5 -88l-16 86q98 8 161.5 55t63.5 115q0 14 -5 21.5t-15.5 8.5t-20.5 0t-27.5 -3t-29.5 -2q-74 0 -114 36.5t-40 98zM690 116.5q0 61.5 44 99.5t114 38q100 0 160.5 -63.5 t60.5 -172.5q0 -139 -95 -229t-241 -88l-16 86q98 8 161.5 55t63.5 115q0 14 -5 21.5t-15.5 8.5t-20.5 0t-27.5 -3t-29.5 -2q-74 0 -114 36.5t-40 98z" />
<glyph unicode="&#x2022;" horiz-adv-x="724" d="M78 637q0 119 83 202t201.5 83t202.5 -83t84 -202t-84 -203t-202.5 -84t-201.5 84t-83 203z" />
<glyph unicode="&#x2026;" horiz-adv-x="2048" d="M176 117q0 59 48 98t116 39q70 0 118 -39t48 -98q0 -57 -47 -98.5t-119 -41.5t-118 41.5t-46 98.5zM860 117q0 59 48 98t116 39q70 0 118 -39t48 -98q0 -57 -47 -98.5t-119 -41.5t-118 41.5t-46 98.5zM1544 117q0 59 48 98t116 39q70 0 118 -39t48 -98q0 -57 -47 -98.5 t-119 -41.5t-118 41.5t-46 98.5z" />
<glyph unicode="&#x202f;" horiz-adv-x="356" />
<glyph unicode="&#x2039;" horiz-adv-x="512" d="M43 451l344 378h68l-166 -378l166 -379h-68z" />
<glyph unicode="&#x203a;" horiz-adv-x="512" d="M57 72l166 379l-166 378h68l344 -378l-344 -379h-68z" />
<glyph unicode="&#x205f;" horiz-adv-x="444" />
<glyph unicode="&#x20ac;" horiz-adv-x="1024" d="M35 494l31 79h88q-2 18 -2 66v53h-117l31 80h92q27 268 137.5 400.5t335.5 132.5q215 0 301 -95l12 -166h-45q-25 170 -211 170q-129 0 -192.5 -111.5t-79.5 -330.5h436l-33 -80h-405v-57v-62h354l-33 -79h-319q10 -211 80.5 -322t193.5 -111q182 0 209 168h45l-12 -159 q-86 -96 -301 -97q-424 0 -467 521h-129z" />
<glyph unicode="&#x2122;" horiz-adv-x="2048" d="M-4 1130v226h776v-226h-35q-6 96 -49 135.5t-143 39.5h-37v-588q0 -84 18.5 -108.5t81.5 -24.5v-35h-452v35q74 4 88 23.5t14 113.5v584h-33q-96 0 -141 -40t-55 -135h-33zM883 549v35q76 4 93 24.5t17 108.5v469q0 82 -17.5 107.5t-74.5 25.5l-18 -2v39h368l232 -496 l223 496h352v-39q-66 0 -84 -22.5t-18 -108.5v-496q0 -57 24.5 -81.5t77.5 -24.5v-35h-461v35q70 0 89.5 22.5t19.5 106.5v504h-4l-309 -668h-25l-315 668h-4v-515q0 -72 20.5 -95t93.5 -23v-35h-280z" />
</font>
</defs>
</svg>
