<?xml version="1.0" standalone="no"?>
<!DOCTYPE svg PUBLIC "-//W3C//DTD SVG 1.1//EN" "http://www.w3.org/Graphics/SVG/1.1/DTD/svg11.dtd" >
<svg xmlns="http://www.w3.org/2000/svg">
<metadata>
This is a custom SVG webfont generated by Font Squirrel.
</metadata>
<defs>
<font id="webfontzShMuBRP" horiz-adv-x="1138" >
<font-face units-per-em="2048" ascent="1532" descent="-516" />
<missing-glyph horiz-adv-x="569" />
<glyph unicode=" "  horiz-adv-x="569" />
<glyph unicode="&#x09;" horiz-adv-x="569" />
<glyph unicode="&#xa0;" horiz-adv-x="569" />
<glyph unicode="!" horiz-adv-x="684" d="M248 0v197h176v-197h-176zM248 346l12 1071h176l-12 -1071h-176z" />
<glyph unicode="&#x22;" d="M346 926v491h148v-491h-148zM645 926v491h148v-491h-148z" />
<glyph unicode="#" d="M66 432v111h225l43 311h-209v111h225l60 432h118l-59 -432h276l60 432h119l-60 -432h209v-111h-225l-43 -311h209v-111h-226l-61 -432h-119l62 432h-277l-61 -432h-119l61 432h-208zM410 543h276l43 311h-276z" />
<glyph unicode="$" d="M131 84l78 127q150 -104 332 -105v537q-176 78 -238 125q-137 111 -137 305q0 150 105.5 253.5t269.5 119.5v131h98v-131q188 -10 334 -111l-68 -129q-51 35 -79.5 52.5t-81 35t-105.5 17.5v-525q68 -33 102.5 -52t90 -58t83 -76t50 -95.5t22.5 -125.5q0 -147 -90 -261 t-258 -143v-186h-98v182q-228 0 -410 113zM342 1063q0 -82 48 -135.5t151 -100.5v484q-86 -23 -142.5 -86.5t-56.5 -161.5zM639 121q160 61 160 244q0 150 -160 231v-475z" />
<glyph unicode="%" horiz-adv-x="2048" d="M252 1091.5q0 149.5 95 237.5t236.5 88t236.5 -88t95 -237.5t-95 -237.5t-236.5 -88t-236.5 88t-95 237.5zM399 1092q0 -215 184.5 -215t184.5 215t-184.5 215t-184.5 -215zM526 -20l916 1493l92 -56l-916 -1493zM1133 305.5q0 149.5 95 237.5t236.5 88t236.5 -88 t95 -237.5t-95 -237.5t-236.5 -88t-236.5 88t-95 237.5zM1280 305q0 -215 184.5 -215t184.5 215t-184.5 215t-184.5 -215z" />
<glyph unicode="&#x26;" horiz-adv-x="1478" d="M156 389q0 150 76.5 258.5t244.5 212.5q-127 137 -127 283q0 115 86 194.5t207 79.5q117 0 198 -63.5t81 -184.5q0 -94 -63.5 -169.5t-168.5 -149.5l395 -430q41 125 41 276v88h148q0 -102 -4 -166.5t-22.5 -152.5t-55.5 -156l242 -235l-136 -103l-186 207 q-160 -207 -457 -207q-236 0 -367.5 130t-131.5 288zM344 401q0 -133 95.5 -214t232.5 -81q195 0 344 166l-455 500q-102 -88 -159.5 -171t-57.5 -200zM498 1151q0 -82 116 -209q96 76 134 121t38 94q0 63 -38.5 100t-106.5 37q-63 0 -103 -40t-40 -103z" />
<glyph unicode="'" horiz-adv-x="569" d="M211 926v491h147v-491h-147z" />
<glyph unicode="(" horiz-adv-x="681" d="M135 606q0 260 97.5 459t297.5 426l99 -94q-158 -156 -244 -366t-86 -439q0 -389 309 -752l-100 -94q-373 430 -373 860z" />
<glyph unicode=")" horiz-adv-x="681" d="M53 -160q158 156 244 366t86 439q0 389 -309 752l100 94q373 -430 373 -860q0 -260 -97.5 -459t-297.5 -426z" />
<glyph unicode="*" d="M219 1026v123l277 -29l-160 228l117 69l116 -260l123 260l107 -67l-160 -226l281 25v-119l-275 17l168 -232l-119 -57l-125 248l-114 -261l-115 70l158 229z" />
<glyph unicode="+" horiz-adv-x="1228" d="M96 451v135h451v450h135v-450h451v-135h-451v-451h-135v451h-451z" />
<glyph unicode="," horiz-adv-x="569" d="M190 -295l13 492h221l-154 -492h-80z" />
<glyph unicode="-" horiz-adv-x="796" d="M147 469v160h502v-160h-502z" />
<glyph unicode="." horiz-adv-x="569" d="M190 0v197h189v-197h-189z" />
<glyph unicode="/" horiz-adv-x="909" d="M74 0l624 1470l138 -53l-625 -1470z" />
<glyph unicode="0" d="M55 698q0 322 144.5 520.5t369.5 198.5q256 0 385 -201.5t129 -517.5q0 -322 -144 -520t-370 -198q-256 0 -385 201.5t-129 516.5zM244 698.5q0 -270.5 78.5 -427t246.5 -156.5q326 0 326 583.5t-326 583.5q-168 0 -246.5 -156.5t-78.5 -427z" />
<glyph unicode="1" d="M156 1008l467 389h127l-13 -1397h-164l13 1202l-338 -305z" />
<glyph unicode="2" d="M55 109q397 334 556 522t159 356q0 127 -80 205t-201 78q-180 0 -317 -133l-88 112q186 168 403 168q215 0 343 -103.5t128 -312.5q0 -102 -47 -206.5t-142 -214t-198.5 -205.5t-257.5 -223v-5h654v-147h-877z" />
<glyph unicode="3" d="M57 86l66 131q152 -102 315 -102q133 0 230.5 68.5t97.5 197.5q0 72 -27.5 123t-67.5 78.5t-102.5 44t-114 20.5t-118.5 4h-82v135h74q80 0 142 8.5t133 33t111 81t40 140.5q0 115 -86 174t-205 59q-160 0 -299 -102l-72 118q182 119 393 119q203 0 330 -95t127 -271 q0 -119 -77 -202t-195 -122v-4q133 -20 208.5 -112.5t75.5 -229.5q0 -188 -153.5 -294.5t-358.5 -106.5q-192 0 -385 106z" />
<glyph unicode="4" d="M25 481l669 916h178l-8 -901h205v-136h-207l-8 -360h-164l8 360h-637zM190 496h506l17 741h-4z" />
<glyph unicode="5" d="M78 639l158 758h722v-148h-596l-104 -420h4q115 123 318 123q190 0 317 -121.5t127 -308.5q0 -94 -39 -188t-111.5 -174t-194.5 -130t-271 -50q-188 0 -324 61l51 125q106 -51 266 -51q193 0 314 109.5t121 283.5q0 131 -84 214t-224 83q-109 0 -193.5 -50t-119.5 -147z " />
<glyph unicode="6" d="M88 561q0 389 231.5 622.5t614.5 233.5h123l-23 -135h-69q-317 0 -500.5 -180t-200.5 -486h4q47 104 153.5 168t229.5 64q195 0 313.5 -119t118.5 -313q0 -176 -138 -306t-316 -130q-252 0 -396.5 163.5t-144.5 417.5zM270 428q20 -115 107.5 -214t230.5 -99 q129 0 214 90t85 213t-77.5 202.5t-200.5 79.5q-246 0 -359 -272z" />
<glyph unicode="7" d="M76 1249v148h921l66 -111l-711 -1306l-147 69l653 1200h-782z" />
<glyph unicode="8" d="M88 330q0 156 80 244t238 141v4q-125 33 -204 122t-79 214q0 168 138 265t317 97q113 0 210 -33.5t166.5 -112.5t69.5 -190q0 -131 -79 -221t-208 -133v-4q313 -106 314 -354q0 -193 -139.5 -291t-348.5 -98q-207 0 -341 91t-134 259zM264 356q0 -113 84 -177t217 -64 q131 0 220 64.5t89 176.5q0 100 -70.5 167t-236.5 130q-303 -94 -303 -297zM299 1059q0 -88 63.5 -152.5t204.5 -124.5q154 57 217.5 123t63.5 158q0 102 -74 160.5t-190 58.5q-113 0 -199 -61.5t-86 -161.5z" />
<glyph unicode="9" d="M55 981q0 176 138.5 306t316.5 130q252 0 396.5 -163.5t144.5 -417.5q0 -389 -231.5 -622.5t-614.5 -233.5h-123l22 135h70q317 0 500.5 180t199.5 485h-4q-47 -104 -153.5 -167.5t-229.5 -63.5q-195 0 -313.5 118.5t-118.5 313.5zM231 979q0 -123 78 -203t201 -80 q246 0 358 273q-20 115 -107 214t-231 99q-129 0 -214 -90t-85 -213z" />
<glyph unicode=":" horiz-adv-x="569" d="M190 0v197h189v-197h-189zM190 823v197h189v-197h-189z" />
<glyph unicode=";" horiz-adv-x="569" d="M190 -295l13 492h221l-154 -492h-80zM190 823v197h189v-197h-189z" />
<glyph unicode="&#x3c;" horiz-adv-x="1228" d="M96 455v127l1037 467v-140l-869 -391l869 -391v-139z" />
<glyph unicode="=" horiz-adv-x="1228" d="M96 246v135h1037v-135h-1037zM96 655v136h1037v-136h-1037z" />
<glyph unicode="&#x3e;" horiz-adv-x="1228" d="M96 -12v139l869 391l-869 391v140l1037 -467v-127z" />
<glyph unicode="?" horiz-adv-x="1024" d="M57 1272q106 90 195.5 132t212.5 42q182 0 315 -106.5t133 -284.5q0 -98 -39.5 -172t-96 -119t-113 -84t-96.5 -93.5t-40 -123.5v-117h-176v107q0 90 40 158.5t96 111.5l113 85q56 42 96 104.5t40 144.5q0 111 -84 182.5t-196 71.5q-168 0 -316 -144zM352 0v197h176v-197 h-176z" />
<glyph unicode="@" horiz-adv-x="1638" d="M82 713q0 305 227.5 519t542.5 214q293 0 498.5 -173t205.5 -435q0 -160 -81.5 -296t-187 -206t-195.5 -70q-137 0 -164 129h-4q-96 -129 -238 -129q-133 0 -216 90t-83 219q0 137 58.5 264.5t171 211.5t249.5 84q162 0 232 -160l47 125h131l-180 -561q-20 -57 -21 -103 q0 -59 47 -59q115 0 213.5 145.5t98.5 304.5q0 229 -169 368.5t-411 139.5q-276 0 -462.5 -184t-186.5 -449q0 -262 191.5 -441t467.5 -179q150 0 287 63.5t219 173.5h129q-102 -164 -272 -256t-367 -92q-328 0 -553 215.5t-225 526.5zM535 590q0 -96 48 -148.5t130 -52.5 q129 0 225 138.5t96 291.5q0 92 -45 142.5t-123 50.5q-139 0 -235 -135t-96 -287z" />
<glyph unicode="A" horiz-adv-x="1366" d="M20 23l594 1394h168l564 -1388l-177 -58l-192 500h-586l-207 -500zM453 618h465l-224 639h-4z" />
<glyph unicode="B" d="M172 0l12 1417h394q215 0 316 -102.5t101 -241.5q0 -260 -250 -330v-4q133 -25 208 -118t75 -228q0 -186 -124 -289.5t-335 -103.5h-397zM350 135h207q295 0 295 275q0 127 -86 194.5t-242 67.5h-166zM358 807h134q168 0 247.5 65.5t79.5 178.5q0 121 -74.5 182 t-240.5 61h-142z" />
<glyph unicode="C" horiz-adv-x="1366" d="M102 709q0 322 216.5 529.5t535.5 207.5q227 0 440 -115l-73 -139q-152 106 -367 106q-244 0 -403.5 -170t-159.5 -419.5t159.5 -419.5t403.5 -170q172 0 365 110l69 -125q-229 -133 -434 -133q-324 0 -538 200t-214 538z" />
<glyph unicode="D" horiz-adv-x="1478" d="M172 0l12 1417h426q197 0 348.5 -58.5t240.5 -157.5t133 -219t44 -255q0 -348 -227 -537.5t-586 -189.5h-391zM348 135h189q311 0 487 147.5t176 434.5q0 264 -168 414.5t-454 150.5h-218z" />
<glyph unicode="E" horiz-adv-x="1024" d="M172 0l12 1417h729v-147h-555l-4 -482h541v-147h-539l-4 -494h570v-147h-750z" />
<glyph unicode="F" horiz-adv-x="1024" d="M172 0l12 1417h758v-147h-582l-4 -482h568v-147h-566l-8 -641h-178z" />
<glyph unicode="G" horiz-adv-x="1478" d="M102 709q0 322 216.5 529.5t535.5 207.5q233 0 438 -100l-67 -140q-160 92 -371 92q-244 0 -403.5 -170t-159.5 -419.5t159.5 -419.5t403.5 -170q152 0 285 59l8 549h176l-8 -651q-223 -104 -461 -105q-324 0 -538 200t-214 538z" />
<glyph unicode="H" horiz-adv-x="1478" d="M172 0l12 1417h178l-6 -629h764l8 629h179l-13 -1417h-178l6 641h-764l-8 -641h-178z" />
<glyph unicode="I" horiz-adv-x="569" d="M190 0l13 1417h176l-12 -1417h-177z" />
<glyph unicode="J" horiz-adv-x="681" d="M14 -29v148q197 0 265.5 82t70.5 245l8 971h177l-9 -991q-2 -227 -126 -341t-386 -114z" />
<glyph unicode="K" horiz-adv-x="1251" d="M172 0l12 1417h176l-12 -1417h-176zM354 721l705 725l123 -109l-609 -612l613 -637l-133 -117z" />
<glyph unicode="L" horiz-adv-x="1024" d="M172 0l12 1417h176l-12 -1270h604v-147h-780z" />
<glyph unicode="M" horiz-adv-x="1933" d="M94 0l258 1417h183l428 -1196l460 1196h191l225 -1417l-172 -29l-180 1213h-4l-441 -1184h-168l-411 1184h-4l-195 -1213z" />
<glyph unicode="N" horiz-adv-x="1478" d="M172 0l12 1382l148 64l784 -1149h4l8 1120h179l-13 -1388l-153 -58l-779 1159h-4l-8 -1130h-178z" />
<glyph unicode="O" horiz-adv-x="1708" d="M102 709q0 322 216.5 529.5t535.5 207.5q324 0 538 -199.5t214 -537.5q0 -322 -216 -530t-536 -208q-324 0 -538 200t-214 538zM291 708.5q0 -249.5 159.5 -419.5t403.5 -170t403.5 170t159.5 419.5t-159.5 419.5t-403.5 170t-403.5 -170t-159.5 -419.5z" />
<glyph unicode="P" d="M172 0l12 1417h428q207 0 329 -104.5t122 -302.5q0 -150 -80 -249t-188.5 -137t-235.5 -38h-203l-8 -586h-176zM354 721h226q125 0 216 72.5t91 216.5q0 125 -77 204.5t-239 79.5h-213z" />
<glyph unicode="Q" horiz-adv-x="1708" d="M102 709q0 322 216.5 529.5t535.5 207.5q324 0 538 -199.5t214 -537.5q0 -186 -78 -341t-219 -255l331 -142l-90 -147l-399 205q-137 -57 -297 -58q-324 0 -538 200t-214 538zM291 708.5q0 -249.5 159.5 -419.5t403.5 -170t403.5 170t159.5 419.5t-159.5 419.5 t-403.5 170t-403.5 -170t-159.5 -419.5z" />
<glyph unicode="R" horiz-adv-x="1251" d="M172 0l12 1417h428q205 0 328 -99t123 -274q0 -166 -100.5 -269t-255.5 -124v-4q27 -6 53 -21.5t53 -43t45.5 -49t45 -57.5t36.5 -48l285 -377l-156 -94l-334 455q-12 14 -34.5 44.5l-32.5 43.5l-30 35q-19 23 -33.5 31.5t-36 20t-45 15.5t-52.5 4h-113l-8 -606h-178z M356 741h176q96 0 171 22.5t129.5 85t54.5 161.5q0 125 -77 204.5t-239 79.5h-211z" />
<glyph unicode="S" horiz-adv-x="1024" d="M88 84l78 127q150 -104 301 -105q125 0 203 71t78 188q0 74 -35 127t-89.5 85.5t-121 60.5t-134 62.5t-121.5 78.5t-89 119t-35 175q0 164 121 268.5t309 104.5q193 0 377 -111l-68 -129q-158 104 -301 105q-102 0 -182 -64.5t-80 -183.5q0 -72 47 -128t118 -89l153 -75 q83 -42 154 -86t118 -123t47 -183q0 -170 -119 -289t-340 -119q-207 0 -389 113z" />
<glyph unicode="T" d="M33 1270v147h1073v-147h-449l-12 -1270h-176l12 1270h-448z" />
<glyph unicode="U" horiz-adv-x="1478" d="M176 539q0 100 4 387l4 491h176l-4 -522q-4 -266 -4 -399q0 -377 387 -377q174 0 278.5 99t106.5 327l6 872h177l-7 -882q-2 -164 -51 -279t-135 -174t-180 -85t-207 -26q-551 1 -551 568z" />
<glyph unicode="V" horiz-adv-x="1366" d="M25 1376l172 70l469 -1237l512 1237l163 -49l-598 -1397h-163z" />
<glyph unicode="W" horiz-adv-x="2048" d="M20 1397l181 49l346 -1225h4l381 1196h184l348 -1196h4l396 1225l164 -49l-480 -1397h-166l-366 1196h-4l-387 -1196h-166z" />
<glyph unicode="X" horiz-adv-x="1251" d="M31 70l485 665l-446 611l159 100l396 -588l419 588l152 -82l-463 -629l488 -667l-152 -97l-444 633l-449 -633z" />
<glyph unicode="Y" horiz-adv-x="1251" d="M20 1358l160 88l436 -705l461 705l154 -90l-537 -750l-12 -606h-176l12 606z" />
<glyph unicode="Z" d="M59 98l781 1172h-731v147h919l51 -98l-780 -1172h756v-147h-944z" />
<glyph unicode="[" horiz-adv-x="681" d="M193 -209l12 1655h430v-123h-266l-13 -1409h271v-123h-434z" />
<glyph unicode="\" horiz-adv-x="909" d="M74 1417l137 53l625 -1470l-138 -53z" />
<glyph unicode="]" horiz-adv-x="681" d="M47 -86h266l13 1409h-271v123h434l-12 -1655h-430v123z" />
<glyph unicode="^" horiz-adv-x="1228" d="M96 510l453 887h131l453 -887h-146l-373 739l-372 -739h-146z" />
<glyph unicode="_" horiz-adv-x="1024" d="M0 -154h1024v-102h-1024v102z" />
<glyph unicode="`" horiz-adv-x="454" d="M-49 1462h221l184 -293h-135z" />
<glyph unicode="a" horiz-adv-x="1024" d="M82 266q0 82 41 147.5t103.5 103.5t146.5 64.5t156.5 37t148.5 12.5q4 86 4 129q0 70 -39 111.5t-117 41.5q-61 0 -122.5 -28.5t-172.5 -112.5l-67 107q164 106 238.5 138t179.5 32q125 0 190.5 -69t65.5 -189q0 -98 -8.5 -280.5t-8.5 -270.5q0 -145 74 -146q35 0 86 35 l45 -84q-94 -74 -190 -74q-66 0 -106 50.5t-46 119.5q-137 -170 -307 -170q-133 0 -214 82t-81 213zM246 268q0 -84 48 -129t134 -45q119 0 242 150l8 288q-229 -31 -330.5 -86t-101.5 -178z" />
<glyph unicode="b" d="M154 0l12 1536h164l-4 -653h4q43 70 129 118t188 48q70 0 138.5 -28t131 -86t101.5 -167t39 -252q0 -213 -128 -379t-319 -166q-193 0 -291 133h-4l-6 -104h-155zM319 270q106 -164 256 -164q131 0 218.5 123t87.5 281q0 197 -78 300t-193 103q-90 0 -166.5 -57 t-119.5 -131z" />
<glyph unicode="c" horiz-adv-x="909" d="M82 510q0 217 136 378t341 161q201 0 334 -170l-107 -84q-96 119 -221 118q-123 0 -215 -115.5t-92 -318.5q0 -166 91 -269.5t214 -103.5q63 0 128 39t104 93l84 -97q-143 -170 -344 -170q-197 0 -325 145.5t-128 393.5z" />
<glyph unicode="d" d="M82 504q0 225 141.5 385t319.5 160q88 0 159.5 -39t102.5 -95h4l8 621h168l-16 -1536h-166l4 137h-4q-37 -70 -123 -118t-188 -48q-70 0 -138.5 28t-131 86t-101.5 167t-39 252zM258 510q0 -197 79 -300.5t191 -103.5q92 0 168 57.5t109 131.5l6 455q-94 164 -248 163 q-131 0 -218 -121.5t-87 -281.5z" />
<glyph unicode="e" horiz-adv-x="1024" d="M82 510q0 217 133 378t334 161q197 0 295 -133.5t98 -350.5v-33h-684v-34q0 -176 70.5 -290t218.5 -114q80 0 145.5 38t145.5 110l80 -88q-182 -182 -390 -183q-211 0 -328.5 143.5t-117.5 395.5zM272 643h506q0 121 -55 202t-172 81q-109 0 -182.5 -84t-96.5 -199z" />
<glyph unicode="f" horiz-adv-x="681" d="M45 897v123h199q0 106 8 197q31 336 428 335v-135h-72q-96 0 -146 -66.5t-54 -166.5l-7 -164h279v-123h-272l-9 -897h-163l8 897h-199z" />
<glyph unicode="g" d="M82 -197q0 51 23.5 94.5t77 82t81.5 55.5l92 51v4q-246 23 -245 131q0 45 52 92t185 123q-129 100 -129 277q0 147 107.5 241.5t257.5 94.5q113 0 190 -48l340 7v-117l-242 6q74 -84 74 -197q0 -145 -103.5 -242.5t-252.5 -97.5q-94 0 -178 39q-113 -84 -113 -118 q0 -20 18.5 -35t92 -34t213.5 -40q219 -33 328.5 -95.5t109.5 -191.5q0 -117 -85 -205t-197.5 -125.5t-225.5 -37.5q-78 0 -151.5 12t-150.5 42t-123 89t-46 143zM246 -193q0 -70 52 -115.5t114.5 -61t132.5 -15.5q117 0 228.5 61.5t111.5 173.5q0 86 -82 127t-334 86 q-129 -70 -176 -126t-47 -130zM383 696q0 -94 51 -159.5t139 -65.5q106 0 157.5 64.5t51.5 166.5q0 236 -202 236q-84 0 -140.5 -68t-56.5 -174z" />
<glyph unicode="h" d="M156 0l8 1536h170l-8 -676h4q59 88 154.5 138.5t187.5 50.5q168 0 239.5 -80t71.5 -230q0 -39 -1 -116.5t-1 -116.5l-4 -506h-164l4 459q0 43 1 136t1 144q0 162 -186 162q-150 0 -305 -188l-9 -713h-163z" />
<glyph unicode="i" horiz-adv-x="454" d="M139 0l8 1020h164l-8 -1020h-164zM139 1233v184h176v-184h-176z" />
<glyph unicode="j" horiz-adv-x="454" d="M-49 -360q104 0 143 58t41 208l12 1114h164l-12 -1100q-2 -203 -78 -303t-270 -100v123zM139 1233v184h176v-184h-176z" />
<glyph unicode="k" horiz-adv-x="1024" d="M154 0l12 1536h162l-9 -1008l525 543l108 -106l-430 -414l443 -492l-129 -104l-517 569l-6 -524h-159z" />
<glyph unicode="l" horiz-adv-x="454" d="M139 0l13 1536h163l-12 -1536h-164z" />
<glyph unicode="m" horiz-adv-x="1708" d="M147 0l13 1020h166l-2 -150h4q145 178 336 179q98 0 167.5 -48.5t88.5 -140.5q72 80 168 134.5t186 54.5q287 0 287 -310q0 -39 -1 -116.5t-1 -116.5l-5 -506h-163l4 459q0 43 1 136t1 144q0 80 -46 121t-116 41q-145 0 -291 -170l-12 -731h-162l4 459q0 43 1 136t1 144 q0 80 -46 121t-116 41q-145 0 -290 -170l-13 -731h-164z" />
<glyph unicode="n" d="M156 0l8 1020h164l-6 -164h4q63 90 157.5 141.5t188.5 51.5q168 0 239.5 -80t71.5 -230q0 -39 -1 -116.5t-1 -116.5l-4 -506h-164l4 459q0 43 1 136t1 144q0 162 -186 162q-150 0 -305 -188l-9 -713h-163z" />
<glyph unicode="o" d="M82 510q0 215 134 377t364 162q223 0 350 -143.5t127 -395.5q0 -215 -134.5 -377t-363.5 -162q-223 0 -350 143.5t-127 395.5zM258 510q0 -203 86 -309.5t217 -106.5q127 0 223.5 108.5t96.5 307.5q0 203 -86 309.5t-217 106.5q-127 0 -223.5 -108.5t-96.5 -307.5z" />
<glyph unicode="p" d="M150 -516l12 1536h164v-137h4q43 70 129 118t188 48q70 0 138.5 -28t131 -86t101.5 -167t39 -252q0 -213 -128 -379t-319 -166q-96 0 -172 38t-116 95h-5l-4 -620h-163zM319 270q106 -164 256 -164q131 0 218.5 123t87.5 281q0 197 -78 300t-193 103q-90 0 -166.5 -57 t-119.5 -131z" />
<glyph unicode="q" d="M82 504q0 225 141.5 385t319.5 160q86 0 159.5 -38t116.5 -96h4l6 105h152l-12 -1536h-162l8 653h-4q-45 -70 -131 -118t-188 -48q-70 0 -138.5 28t-131 86t-101.5 167t-39 252zM258 510q0 -197 79 -300.5t191 -103.5q92 0 168 57.5t109 131.5l6 455q-94 164 -248 163 q-131 0 -218 -121.5t-87 -281.5z" />
<glyph unicode="r" horiz-adv-x="681" d="M156 0l8 1020h168l-2 -199l4 -4q33 86 107.5 159t174.5 73q49 0 89 -15l-50 -155q-41 10 -63 10q-59 0 -131 -53.5t-133 -165.5l-9 -670h-163z" />
<glyph unicode="s" horiz-adv-x="796" d="M68 72l69 108q127 -86 225 -86q78 0 138.5 42t60.5 122q0 70 -49 114t-118.5 69.5t-138.5 55t-118 91t-49 155.5q0 139 99.5 222.5t244.5 83.5q170 0 297 -86l-76 -105q-123 68 -194 68q-94 0 -150.5 -42t-56.5 -128q0 -59 49 -99.5t117.5 -65t138.5 -56t119 -95 t49 -159.5q0 -139 -102.5 -224.5t-235.5 -85.5q-163 1 -319 101z" />
<glyph unicode="t" horiz-adv-x="681" d="M45 897v123h176l4 377h164l-4 -377h279v-123h-281l-4 -418q-2 -115 -2 -241q0 -131 94 -132q70 0 164 60l53 -107q-131 -88 -256 -88q-219 0 -219 260q0 152 2 293l4 373h-174z" />
<glyph unicode="u" d="M158 281q0 39 1 116.5t1 116.5l4 506h164l-4 -459q0 -43 -1 -136t-1 -144q0 -162 186 -162q150 0 305 188l8 713h164l-8 -1020h-164l6 164h-4q-63 -90 -157.5 -141.5t-188.5 -51.5q-168 0 -239.5 80t-71.5 230z" />
<glyph unicode="v" horiz-adv-x="1024" d="M39 1004l170 45l289 -852h4l319 852l164 -50l-412 -999h-159z" />
<glyph unicode="w" horiz-adv-x="1593" d="M53 999l166 50l221 -852h4l273 823h166l223 -823h4l272 852l158 -50l-362 -999h-160l-223 811h-4l-277 -811h-162z" />
<glyph unicode="x" horiz-adv-x="1024" d="M70 61l346 461l-332 449l154 78l270 -414l305 414l135 -78l-342 -449l348 -461l-149 -90l-297 439l-307 -439z" />
<glyph unicode="y" horiz-adv-x="1024" d="M45 999l176 50l283 -830h4l309 830l162 -50l-455 -1126q-90 -219 -161.5 -287.5t-231.5 -68.5h-65v123q115 0 164 28.5t83 104.5l111 243z" />
<glyph unicode="z" horiz-adv-x="909" d="M51 86l574 786h-525v148h723l35 -74l-579 -811h546v-135h-739z" />
<glyph unicode="{" horiz-adv-x="681" d="M47 551l4 135q74 0 118 81t46 202l4 215q2 121 61.5 191.5t143.5 70.5h147l-2 -123h-71q-111 0 -115 -201l-4 -198q-2 -137 -63.5 -213t-118.5 -90v-5q57 -14 113.5 -87.5t56.5 -217.5q0 -33 -2.5 -98.5t-2.5 -97.5q0 -100 24 -150.5t85 -50.5h74l-2 -123h-144 q-84 0 -140 70.5t-56 191.5q0 37 2 106.5t2 106.5q0 123 -42 204t-118 81z" />
<glyph unicode="|" horiz-adv-x="454" d="M154 -29v1565h147v-1565h-147z" />
<glyph unicode="}" horiz-adv-x="681" d="M111 -209l2 123h71q111 0 115 201l4 198q2 137 63.5 213t118.5 90v5q-57 14 -113.5 87.5t-56.5 217.5q0 33 2 98.5t2 97.5q0 100 -23.5 150.5t-84.5 50.5h-74l2 123h144q84 0 140 -70.5t56 -191.5q0 -37 -2 -106.5t-2 -106.5q0 -123 42 -204t118 -81l-4 -135 q-74 0 -118 -81t-46 -202l-4 -215q-2 -121 -61.5 -191.5t-143.5 -70.5h-147z" />
<glyph unicode="~" horiz-adv-x="1228" d="M141 477q92 178 248 178q111 0 250 -67q147 -72 195 -72q39 0 73.5 23.5t55 49t51.5 73.5l73 -103q-41 -76 -100 -125q-66 -53 -147 -53q-98 0 -238 72q-135 68 -215 67q-104 0 -172 -145z" />
<glyph unicode="&#xa1;" horiz-adv-x="684" d="M248 -397l12 1071h176l-12 -1071h-176zM260 823v197h176v-197h-176z" />
<glyph unicode="&#xa2;" d="M195 492q0 242 138 399.5t378 157.5l32 155l82 -20l-32 -148q121 -37 213 -157l-107 -91q-63 82 -133 107l-162 -780q23 -8 76 -9q61 0 126.5 39t104.5 93l84 -97q-143 -170 -344 -170q-41 0 -76 6l-34 -161l-82 20l35 162q-147 51 -223 186.5t-76 307.5zM371 506 q0 -119 40 -215t113 -144l158 766q-147 0 -229 -125.5t-82 -281.5z" />
<glyph unicode="&#xa3;" d="M66 0v123q137 10 198.5 99t75.5 313l10 170h-264v110h272q6 309 133 470t414 161q68 0 137 -12v-136q-57 12 -110 12.5t-96 -6t-97.5 -30t-92.5 -63.5t-66.5 -116.5t-32.5 -181.5l-4 -98h467v-110h-473l-7 -146q-6 -143 -50 -258t-134 -149v-5h692v-147h-972z" />
<glyph unicode="&#xa4;" d="M55 274l115 115q-109 131 -109 309.5t109 311.5l-115 112l90 90l115 -114q131 109 309.5 108.5t309.5 -108.5l114 114l90 -90l-114 -114q109 -131 108 -310q0 -176 -108 -309l114 -115l-90 -90l-114 115q-131 -109 -309.5 -109t-309.5 109l-115 -115zM197 698.5 q0 -155.5 108.5 -264t264 -108.5t264 108.5t108.5 264t-108.5 264t-264 108.5t-264 -108.5t-108.5 -264z" />
<glyph unicode="&#xa5;" d="M63 1358l146 88l348 -705l379 705l139 -90l-370 -631h299l-7 -111h-366l-2 -176h368l-6 -110h-362l-4 -328h-164l4 328h-359l7 110h352l2 176h-354l6 111h291z" />
<glyph unicode="&#xa6;" horiz-adv-x="454" d="M154 -29v586h147v-586h-147zM154 950v586h147v-586h-147z" />
<glyph unicode="&#xa7;" d="M131 598q0 96 54.5 153.5t160.5 112.5q-80 41 -119 97.5t-39 148.5q0 164 122 250t294 86q215 0 375 -125l-76 -115q-137 104 -293 105q-109 0 -177 -49.5t-68 -149.5q0 -68 66.5 -109.5t160.5 -66.5t188 -53.5t161 -86t67 -145.5q0 -170 -201 -272q176 -70 176 -256 q0 -135 -130 -230.5t-296 -95.5q-201 0 -395 123l80 115q143 -102 284 -103q41 0 83 6.5t90.5 24t78 56t29.5 94.5q0 76 -69.5 124t-169.5 74l-198 56q-99 29 -169 86t-70 145zM295 641q-2 -100 145 -147l244 -76q160 86 160 180q0 68 -45 103.5t-176 72.5l-183 51 q-145 -90 -145 -184z" />
<glyph unicode="&#xa8;" horiz-adv-x="454" d="M-35 1188v209h189v-209h-189zM301 1188v209h188v-209h-188z" />
<glyph unicode="&#xa9;" horiz-adv-x="1638" d="M82 708.5q0 305.5 216 521.5t521 216t521 -216t216 -521.5t-216 -521.5t-521 -216t-521 216t-216 521.5zM205 711q0 -266 176 -447.5t438 -181.5t438.5 181t176.5 448q0 264 -177.5 444t-437.5 180t-437 -180t-177 -444zM401 711q0 201 118 328.5t319 127.5 q145 0 248.5 -80.5t123.5 -224.5h-125q-16 82 -82.5 132t-162.5 50q-143 0 -223 -92t-80 -237q0 -143 84 -241.5t223 -98.5q96 0 161.5 53t79.5 139h127q-31 -143 -131 -229t-237 -86q-199 0 -321 131t-122 328z" />
<glyph unicode="&#xaa;" horiz-adv-x="665" d="M47 938q0 104 99.5 160.5t293.5 77.5v51q0 92 -94 92q-84 0 -190 -76l-45 72q133 102 272 102q180 0 180 -162v-335q0 -49 35 -50q25 0 57 15l29 -62q-72 -51 -133 -51q-47 0 -71.5 29.5t-26.5 70.5q-104 -100 -207 -100q-90 0 -144.5 47t-54.5 119zM170 952 q0 -82 106 -82q94 0 164 88v144q-270 -27 -270 -150z" />
<glyph unicode="&#xab;" d="M205 539l336 399l77 -57l-241 -342l223 -332l-80 -47zM553 539l336 399l78 -57l-242 -342l223 -332l-80 -47z" />
<glyph unicode="&#xac;" horiz-adv-x="1228" d="M96 655v136h1037v-570h-136v434h-901z" />
<glyph unicode="&#xad;" horiz-adv-x="796" d="M147 469v160h502v-160h-502z" />
<glyph unicode="&#xae;" horiz-adv-x="1638" d="M82 708.5q0 305.5 216 521.5t521 216t521 -216t216 -521.5t-216 -521.5t-521 -216t-521 216t-216 521.5zM205 711q0 -266 176 -447.5t438 -181.5t438.5 181t176.5 448q0 264 -177.5 444t-437.5 180t-437 -180t-177 -444zM526 279v860h359q270 0 270 -244 q0 -209 -223 -233l250 -383h-140l-233 378h-160v-378h-123zM649 756h154q115 0 172 26.5t57 118.5q0 80 -50 109.5t-146 29.5h-187v-284z" />
<glyph unicode="&#xaf;" horiz-adv-x="454" d="M-53 1237v123h561v-123h-561z" />
<glyph unicode="&#x2c9;" horiz-adv-x="454" d="M-53 1237v123h561v-123h-561z" />
<glyph unicode="&#xb0;" horiz-adv-x="819" d="M117 1124.5q0 120.5 86 206.5t206.5 86t206.5 -86t86 -206.5t-86 -207t-206.5 -86.5t-206.5 86.5t-86 207zM227 1124.5q0 -75.5 53.5 -129t129 -53.5t129 53.5t53.5 129t-53.5 129t-129 53.5t-129 -53.5t-53.5 -129z" />
<glyph unicode="&#xb1;" horiz-adv-x="1228" d="M96 0v135h1037v-135h-1037zM96 557v135h451v344h135v-344h451v-135h-451v-344h-135v344h-451z" />
<glyph unicode="&#xb2;" horiz-adv-x="739" d="M37 655q287 233 369.5 320.5t78.5 171.5q0 72 -49 116t-119 44q-121 0 -204 -76l-58 86q117 100 275 100q133 0 218 -62.5t85 -187.5q0 -100 -89 -206.5t-333 -278.5v-4h418v-111h-570z" />
<glyph unicode="&#xb3;" horiz-adv-x="739" d="M37 614l43 80q76 -45 201 -45q205 0 204 146q0 51 -23.5 83.5t-67.5 47t-83 19.5t-92 5h-53v86h47q264 0 264 160q0 63 -51 93t-125 30q-113 0 -195 -43l-47 70q117 72 273 71q129 0 211 -57t82 -162q0 -72 -53.5 -122t-135.5 -72v-7q90 -10 143.5 -66.5t53.5 -135.5 q0 -115 -103.5 -179.5t-242.5 -64.5q-123 0 -250 63z" />
<glyph unicode="&#xb4;" horiz-adv-x="454" d="M98 1169l185 293h221l-271 -293h-135z" />
<glyph unicode="&#xb5;" d="M152 -483l12 1503h164l-4 -459q0 -43 -1 -136t-1 -144q0 -162 186 -162q150 0 305 188l8 713h164l-8 -1020h-164l6 164h-4q-63 -90 -157.5 -141.5t-188.5 -51.5q-117 0 -150 45h-4l13 -499h-176z" />
<glyph unicode="&#x3bc;" d="M152 -483l12 1503h164l-4 -459q0 -43 -1 -136t-1 -144q0 -162 186 -162q150 0 305 188l8 713h164l-8 -1020h-164l6 164h-4q-63 -90 -157.5 -141.5t-188.5 -51.5q-117 0 -150 45h-4l13 -499h-176z" />
<glyph unicode="&#xb6;" horiz-adv-x="1228" d="M78 1030q0 190 124 288.5t343 98.5h487v-1591h-135v1481h-254v-1481h-135v829q-186 0 -308 108.5t-122 266.5z" />
<glyph unicode="&#xb7;" horiz-adv-x="569" d="M156 598q0 53 37.5 91t91 38t91.5 -38t38 -91t-38 -91t-91.5 -38t-91 38t-37.5 91z" />
<glyph unicode="&#x2219;" horiz-adv-x="569" d="M156 598q0 53 37.5 91t91 38t91.5 -38t38 -91t-38 -91t-91.5 -38t-91 38t-37.5 91z" />
<glyph unicode="&#xb8;" horiz-adv-x="454" d="M49 -416l33 82q70 -31 133 -31q43 0 78 20.5t35 61.5q0 78 -97 78q-51 0 -77 -14l-35 43l129 176h98l-94 -123l4 -4q33 8 72 8q70 0 117 -40t47 -111q0 -96 -74 -144.5t-172 -48.5q-111 0 -197 47z" />
<glyph unicode="&#xb9;" horiz-adv-x="739" d="M94 1186l299 231h121l-12 -850h-135l12 717l-217 -176z" />
<glyph unicode="&#xba;" horiz-adv-x="741" d="M47 1083q0 147 87 240.5t239 93.5q143 0 232 -86t89 -225q0 -147 -87 -240.5t-238 -93.5q-143 0 -232.5 86t-89.5 225zM182 1092q0 -96 49.5 -159t139.5 -63q78 0 133 63.5t55 164.5q0 96 -49 158.5t-139 62.5q-78 0 -133.5 -63.5t-55.5 -163.5z" />
<glyph unicode="&#xbb;" d="M172 217l242 342l-224 332l80 47l316 -379l-336 -399zM520 217l242 342l-223 332l79 47l316 -379l-336 -399z" />
<glyph unicode="&#xbc;" horiz-adv-x="1708" d="M74 1186l299 231h121l-13 -850h-135l12 717l-217 -176zM330 -20l915 1493l92 -56l-915 -1493zM930 293l434 557h154l-9 -547h125v-98h-123l-8 -205h-135l8 205h-413zM1044 303h330l8 436h-6z" />
<glyph unicode="&#xbd;" horiz-adv-x="1708" d="M74 1186l299 231h121l-13 -850h-135l12 717l-217 -176zM291 -20l915 1493l92 -56l-915 -1493zM1038 88q287 233 370 320.5t79 171.5q0 72 -49 115.5t-119 43.5q-121 0 -205 -75l-57 86q117 100 274 100q133 0 218 -62.5t85 -187.5q0 -100 -89 -206.5t-333 -278.5v-4h418 v-111h-569z" />
<glyph unicode="&#xbe;" horiz-adv-x="1708" d="M37 614l43 80q76 -45 201 -45q205 0 204 146q0 51 -23.5 83.5t-67.5 47t-83 19.5t-92 5h-53v86h47q264 0 264 160q0 63 -51 93t-125 30q-113 0 -195 -43l-47 70q117 72 273 71q129 0 211 -57t82 -162q0 -72 -53.5 -122t-135.5 -72v-7q90 -10 143.5 -66.5t53.5 -135.5 q0 -115 -103.5 -179.5t-242.5 -64.5q-123 0 -250 63zM330 -20l915 1493l92 -56l-915 -1493zM930 293l434 557h154l-9 -547h125v-98h-123l-8 -205h-135l8 205h-413zM1044 303h330l8 436h-6z" />
<glyph unicode="&#xbf;" horiz-adv-x="1024" d="M111 -35q0 98 39.5 172t96 119t113 84t96.5 93t40 124v117h176v-107q0 -90 -40 -158.5t-96 -111.5l-113 -85q-56 -42 -96 -104.5t-40 -144.5q0 -111 84 -182.5t196 -71.5q168 0 316 144l84 -105q-106 -90 -195.5 -132t-212.5 -42q-182 0 -315 106.5t-133 284.5zM496 823 v197h176v-197h-176z" />
<glyph unicode="&#xc0;" horiz-adv-x="1366" d="M20 23l594 1394h168l564 -1388l-177 -58l-192 500h-586l-207 -500zM408 1798h221l184 -293h-135zM453 618h465l-224 639h-4z" />
<glyph unicode="&#xc1;" horiz-adv-x="1366" d="M20 23l594 1394h168l564 -1388l-177 -58l-192 500h-586l-207 -500zM453 618h465l-224 639h-4zM555 1505l184 293h222l-271 -293h-135z" />
<glyph unicode="&#xc2;" horiz-adv-x="1366" d="M20 23l594 1394h168l564 -1388l-177 -58l-192 500h-586l-207 -500zM383 1505l205 293h188l209 -293h-160l-143 195l-139 -195h-160zM453 618h465l-224 639h-4z" />
<glyph unicode="&#xc3;" horiz-adv-x="1366" d="M20 23l594 1394h168l564 -1388l-177 -58l-192 500h-586l-207 -500zM334 1516q10 94 62.5 155.5t129.5 61.5q68 0 170 -37q98 -37 127 -37q98 0 105 94h106q-12 -94 -67.5 -155.5t-143.5 -61.5q-61 0 -159.5 37t-137.5 37q-37 0 -62.5 -28t-31.5 -66h-98zM453 618h465 l-224 639h-4z" />
<glyph unicode="&#xc4;" horiz-adv-x="1366" d="M20 23l594 1394h168l564 -1388l-177 -58l-192 500h-586l-207 -500zM422 1524v209h188v-209h-188zM453 618h465l-224 639h-4zM758 1524v209h188v-209h-188z" />
<glyph unicode="&#xc5;" horiz-adv-x="1366" d="M20 23l594 1394h168l564 -1388l-177 -58l-192 500h-586l-207 -500zM453 618h465l-224 639h-4zM475 1710q0 86 61.5 147.5t147.5 61.5t147.5 -61.5t61.5 -147.5t-61.5 -147.5t-147.5 -61.5t-147.5 61.5t-61.5 147.5zM561 1710q0 -51 36 -87t87 -36t87 36t36 87t-36 87 t-87 36t-87 -36t-36 -87z" />
<glyph unicode="&#xc6;" horiz-adv-x="1820" d="M-10 55l915 1362h789v-147h-559l-5 -482h545v-147h-542l-5 -494h574v-147h-750l4 471h-489l-334 -500zM563 618h393l7 627h-5z" />
<glyph unicode="&#xc7;" horiz-adv-x="1366" d="M102 709q0 322 216.5 529.5t535.5 207.5q227 0 440 -115l-73 -139q-152 106 -367 106q-244 0 -403.5 -170t-159.5 -419.5t159.5 -419.5t403.5 -170q172 0 365 110l69 -125q-229 -133 -434 -133q-324 0 -538 200t-214 538zM506 -416l33 82q70 -31 133 -31q43 0 77.5 20.5 t34.5 61.5q0 78 -96 78q-51 0 -78 -14l-35 43l130 176h98l-94 -123l4 -4q33 8 71 8q70 0 117 -40t47 -111q0 -96 -73.5 -144.5t-172.5 -48.5q-110 0 -196 47z" />
<glyph unicode="&#xc8;" horiz-adv-x="1024" d="M172 0l12 1417h729v-147h-555l-4 -482h541v-147h-539l-4 -494h570v-147h-750zM236 1798h221l184 -293h-135z" />
<glyph unicode="&#xc9;" horiz-adv-x="1024" d="M172 0l12 1417h729v-147h-555l-4 -482h541v-147h-539l-4 -494h570v-147h-750zM383 1505l184 293h221l-270 -293h-135z" />
<glyph unicode="&#xca;" horiz-adv-x="1024" d="M172 0l12 1417h729v-147h-555l-4 -482h541v-147h-539l-4 -494h570v-147h-750zM211 1505l205 293h188l209 -293h-160l-143 195l-139 -195h-160z" />
<glyph unicode="&#xcb;" horiz-adv-x="1024" d="M172 0l12 1417h729v-147h-555l-4 -482h541v-147h-539l-4 -494h570v-147h-750zM250 1524v209h188v-209h-188zM586 1524v209h188v-209h-188z" />
<glyph unicode="&#xcc;" horiz-adv-x="569" d="M8 1798h221l185 -293h-135zM190 0l13 1417h176l-12 -1417h-177z" />
<glyph unicode="&#xcd;" horiz-adv-x="569" d="M156 1505l184 293h221l-270 -293h-135zM190 0l13 1417h176l-12 -1417h-177z" />
<glyph unicode="&#xce;" horiz-adv-x="569" d="M-16 1505l204 293h189l209 -293h-160l-143 195l-140 -195h-159zM190 0l13 1417h176l-12 -1417h-177z" />
<glyph unicode="&#xcf;" horiz-adv-x="569" d="M23 1524v209h188v-209h-188zM190 0l13 1417h176l-12 -1417h-177zM358 1524v209h189v-209h-189z" />
<glyph unicode="&#xd0;" horiz-adv-x="1478" d="M39 711v123h141l4 583h426q197 0 348.5 -58.5t240.5 -157.5t133 -219t44 -255q0 -348 -227 -537.5t-586 -189.5h-391l6 711h-139zM348 135h189q311 0 487 147.5t176 434.5q0 264 -168 414.5t-454 150.5h-218l-4 -448h478v-123h-480z" />
<glyph unicode="&#xd1;" horiz-adv-x="1478" d="M172 0l12 1382l148 64l784 -1149h4l8 1120h179l-13 -1388l-153 -58l-779 1159h-4l-8 -1130h-178zM389 1516q10 94 62.5 155.5t130.5 61.5q68 0 170 -37q98 -37 127 -37q98 0 104 94h107q-12 -94 -67.5 -155.5t-143.5 -61.5q-61 0 -159.5 37t-137.5 37q-37 0 -62.5 -28 t-32.5 -66h-98z" />
<glyph unicode="&#xd2;" horiz-adv-x="1708" d="M102 709q0 322 216.5 529.5t535.5 207.5q324 0 538 -199.5t214 -537.5q0 -322 -216 -530t-536 -208q-324 0 -538 200t-214 538zM291 708.5q0 -249.5 159.5 -419.5t403.5 -170t403.5 170t159.5 419.5t-159.5 419.5t-403.5 170t-403.5 -170t-159.5 -419.5zM578 1798h221 l184 -293h-135z" />
<glyph unicode="&#xd3;" horiz-adv-x="1708" d="M102 709q0 322 216.5 529.5t535.5 207.5q324 0 538 -199.5t214 -537.5q0 -322 -216 -530t-536 -208q-324 0 -538 200t-214 538zM291 708.5q0 -249.5 159.5 -419.5t403.5 -170t403.5 170t159.5 419.5t-159.5 419.5t-403.5 170t-403.5 -170t-159.5 -419.5zM725 1505 l184 293h221l-270 -293h-135z" />
<glyph unicode="&#xd4;" horiz-adv-x="1708" d="M102 709q0 322 216.5 529.5t535.5 207.5q324 0 538 -199.5t214 -537.5q0 -322 -216 -530t-536 -208q-324 0 -538 200t-214 538zM291 708.5q0 -249.5 159.5 -419.5t403.5 -170t403.5 170t159.5 419.5t-159.5 419.5t-403.5 170t-403.5 -170t-159.5 -419.5zM553 1505 l205 293h188l209 -293h-160l-143 195l-139 -195h-160z" />
<glyph unicode="&#xd5;" horiz-adv-x="1708" d="M102 709q0 322 216.5 529.5t535.5 207.5q324 0 538 -199.5t214 -537.5q0 -322 -216 -530t-536 -208q-324 0 -538 200t-214 538zM291 708.5q0 -249.5 159.5 -419.5t403.5 -170t403.5 170t159.5 419.5t-159.5 419.5t-403.5 170t-403.5 -170t-159.5 -419.5zM504 1516 q10 94 62 155.5t130 61.5q68 0 170 -37q98 -37 127 -37q98 0 105 94h106q-12 -94 -67.5 -155.5t-143.5 -61.5q-61 0 -159.5 37t-137.5 37q-37 0 -62.5 -28t-31.5 -66h-98z" />
<glyph unicode="&#xd6;" horiz-adv-x="1708" d="M102 709q0 322 216.5 529.5t535.5 207.5q324 0 538 -199.5t214 -537.5q0 -322 -216 -530t-536 -208q-324 0 -538 200t-214 538zM291 708.5q0 -249.5 159.5 -419.5t403.5 -170t403.5 170t159.5 419.5t-159.5 419.5t-403.5 170t-403.5 -170t-159.5 -419.5zM592 1524v209 h188v-209h-188zM928 1524v209h188v-209h-188z" />
<glyph unicode="&#xd7;" horiz-adv-x="1228" d="M147 145l375 373l-375 373l95 94l372 -375l373 375l94 -94l-372 -373l372 -373l-94 -94l-373 375l-372 -375z" />
<glyph unicode="&#xd8;" horiz-adv-x="1708" d="M102 709q0 322 216.5 529.5t535.5 207.5q266 0 463 -137l149 170l66 -62l-146 -166q219 -203 220 -542q0 -322 -216 -530t-536 -208q-266 0 -463 140l-149 -172l-66 61l146 166q-220 207 -220 543zM291 709q0 -238 147 -408l766 879q-147 119 -350 118 q-244 0 -403.5 -169.5t-159.5 -419.5zM504 238q147 -119 350 -119q244 0 403.5 170t159.5 420q0 240 -147 407z" />
<glyph unicode="&#xd9;" horiz-adv-x="1478" d="M176 539q0 100 4 387l4 491h176l-4 -522q-4 -266 -4 -399q0 -377 387 -377q174 0 278.5 99t106.5 327l6 872h177l-7 -882q-2 -164 -51 -279t-135 -174t-180 -85t-207 -26q-551 1 -551 568zM463 1798h221l184 -293h-135z" />
<glyph unicode="&#xda;" horiz-adv-x="1478" d="M176 539q0 100 4 387l4 491h176l-4 -522q-4 -266 -4 -399q0 -377 387 -377q174 0 278.5 99t106.5 327l6 872h177l-7 -882q-2 -164 -51 -279t-135 -174t-180 -85t-207 -26q-551 1 -551 568zM610 1505l185 293h221l-271 -293h-135z" />
<glyph unicode="&#xdb;" horiz-adv-x="1478" d="M176 539q0 100 4 387l4 491h176l-4 -522q-4 -266 -4 -399q0 -377 387 -377q174 0 278.5 99t106.5 327l6 872h177l-7 -882q-2 -164 -51 -279t-135 -174t-180 -85t-207 -26q-551 1 -551 568zM438 1505l205 293h188l209 -293h-159l-144 195l-139 -195h-160z" />
<glyph unicode="&#xdc;" horiz-adv-x="1478" d="M176 539q0 100 4 387l4 491h176l-4 -522q-4 -266 -4 -399q0 -377 387 -377q174 0 278.5 99t106.5 327l6 872h177l-7 -882q-2 -164 -51 -279t-135 -174t-180 -85t-207 -26q-551 1 -551 568zM477 1524v209h189v-209h-189zM813 1524v209h188v-209h-188z" />
<glyph unicode="&#xdd;" horiz-adv-x="1251" d="M20 1358l160 88l436 -705l461 705l154 -90l-537 -750l-12 -606h-176l12 606zM498 1505l184 293h221l-270 -293h-135z" />
<glyph unicode="&#xde;" d="M172 0l12 1417h176l-2 -246h287q178 0 298 -106.5t120 -300.5q0 -150 -80 -249t-188.5 -137t-235.5 -38h-209l-2 -340h-176zM352 475h228q125 0 216 73t91 216q0 125 -77 205t-239 80h-215z" />
<glyph unicode="&#xdf;" d="M154 0l12 1085q2 131 42 227.5t104.5 145.5t133 71.5t144.5 22.5q135 0 217 -65.5t82 -183.5q0 -68 -32 -130.5t-70.5 -101.5t-70.5 -79t-32 -68q0 -33 58.5 -90.5t128 -116t128 -153.5t58.5 -193q0 -172 -129 -277.5t-297 -105.5h-127l14 123h90q115 0 194 63.5 t79 181.5q0 61 -37 127t-90 120l-107 105q-53 50 -90 97t-37 82q0 55 94 180q98 133 99 219q0 68 -39 106t-105 38q-219 0 -225 -308l-16 -1122h-174z" />
<glyph unicode="&#xe0;" horiz-adv-x="1024" d="M82 266q0 82 41 147.5t103.5 103.5t146.5 64.5t156.5 37t148.5 12.5q4 86 4 129q0 70 -39 111.5t-117 41.5q-61 0 -122.5 -28.5t-172.5 -112.5l-67 107q164 106 238.5 138t179.5 32q125 0 190.5 -69t65.5 -189q0 -98 -8.5 -280.5t-8.5 -270.5q0 -145 74 -146q35 0 86 35 l45 -84q-94 -74 -190 -74q-66 0 -106 50.5t-46 119.5q-137 -170 -307 -170q-133 0 -214 82t-81 213zM236 1462h221l184 -293h-135zM246 268q0 -84 48 -129t134 -45q119 0 242 150l8 288q-229 -31 -330.5 -86t-101.5 -178z" />
<glyph unicode="&#xe1;" horiz-adv-x="1024" d="M82 266q0 82 41 147.5t103.5 103.5t146.5 64.5t156.5 37t148.5 12.5q4 86 4 129q0 70 -39 111.5t-117 41.5q-61 0 -122.5 -28.5t-172.5 -112.5l-67 107q164 106 238.5 138t179.5 32q125 0 190.5 -69t65.5 -189q0 -98 -8.5 -280.5t-8.5 -270.5q0 -145 74 -146q35 0 86 35 l45 -84q-94 -74 -190 -74q-66 0 -106 50.5t-46 119.5q-137 -170 -307 -170q-133 0 -214 82t-81 213zM246 268q0 -84 48 -129t134 -45q119 0 242 150l8 288q-229 -31 -330.5 -86t-101.5 -178zM383 1169l184 293h221l-270 -293h-135z" />
<glyph unicode="&#xe2;" horiz-adv-x="1024" d="M82 266q0 82 41 147.5t103.5 103.5t146.5 64.5t156.5 37t148.5 12.5q4 86 4 129q0 70 -39 111.5t-117 41.5q-61 0 -122.5 -28.5t-172.5 -112.5l-67 107q164 106 238.5 138t179.5 32q125 0 190.5 -69t65.5 -189q0 -98 -8.5 -280.5t-8.5 -270.5q0 -145 74 -146q35 0 86 35 l45 -84q-94 -74 -190 -74q-66 0 -106 50.5t-46 119.5q-137 -170 -307 -170q-133 0 -214 82t-81 213zM211 1169l205 293h188l209 -293h-160l-143 195l-139 -195h-160zM246 268q0 -84 48 -129t134 -45q119 0 242 150l8 288q-229 -31 -330.5 -86t-101.5 -178z" />
<glyph unicode="&#xe3;" horiz-adv-x="1024" d="M82 266q0 82 41 147.5t103.5 103.5t146.5 64.5t156.5 37t148.5 12.5q4 86 4 129q0 70 -39 111.5t-117 41.5q-61 0 -122.5 -28.5t-172.5 -112.5l-67 107q164 106 238.5 138t179.5 32q125 0 190.5 -69t65.5 -189q0 -98 -8.5 -280.5t-8.5 -270.5q0 -145 74 -146q35 0 86 35 l45 -84q-94 -74 -190 -74q-66 0 -106 50.5t-46 119.5q-137 -170 -307 -170q-133 0 -214 82t-81 213zM162 1180q10 94 62 155.5t130 61.5q68 0 170 -37q98 -37 127 -37q98 0 105 94h106q-12 -94 -67.5 -155.5t-143.5 -61.5q-61 0 -159.5 37t-137.5 37q-37 0 -62.5 -27.5 t-31.5 -66.5h-98zM246 268q0 -84 48 -129t134 -45q119 0 242 150l8 288q-229 -31 -330.5 -86t-101.5 -178z" />
<glyph unicode="&#xe4;" horiz-adv-x="1024" d="M82 266q0 82 41 147.5t103.5 103.5t146.5 64.5t156.5 37t148.5 12.5q4 86 4 129q0 70 -39 111.5t-117 41.5q-61 0 -122.5 -28.5t-172.5 -112.5l-67 107q164 106 238.5 138t179.5 32q125 0 190.5 -69t65.5 -189q0 -98 -8.5 -280.5t-8.5 -270.5q0 -145 74 -146q35 0 86 35 l45 -84q-94 -74 -190 -74q-66 0 -106 50.5t-46 119.5q-137 -170 -307 -170q-133 0 -214 82t-81 213zM246 268q0 -84 48 -129t134 -45q119 0 242 150l8 288q-229 -31 -330.5 -86t-101.5 -178zM250 1188v209h188v-209h-188zM586 1188v209h188v-209h-188z" />
<glyph unicode="&#xe5;" horiz-adv-x="1024" d="M82 266q0 82 41 147.5t103.5 103.5t146.5 64.5t156.5 37t148.5 12.5q4 86 4 129q0 70 -39 111.5t-117 41.5q-61 0 -122.5 -28.5t-172.5 -112.5l-67 107q164 106 238.5 138t179.5 32q125 0 190.5 -69t65.5 -189q0 -98 -8.5 -280.5t-8.5 -270.5q0 -145 74 -146q35 0 86 35 l45 -84q-94 -74 -190 -74q-66 0 -106 50.5t-46 119.5q-137 -170 -307 -170q-133 0 -214 82t-81 213zM246 268q0 -84 48 -129t134 -45q119 0 242 150l8 288q-229 -31 -330.5 -86t-101.5 -178zM324 1343.5q0 86.5 61 147.5t147 61t147.5 -61t61.5 -147.5t-61.5 -147.5 t-147.5 -61t-147 61t-61 147.5zM410 1343.5q0 -51.5 35.5 -87t87 -35.5t87 35.5t35.5 87t-35.5 87t-87 35.5t-87 -35.5t-35.5 -87z" />
<glyph unicode="&#xe6;" horiz-adv-x="1593" d="M66 266q0 82 40.5 147.5t102 103.5t144.5 64.5t155 37t143 12.5q0 164 -29.5 223t-111.5 59q-61 0 -122.5 -28.5t-172.5 -112.5l-68 107q152 98 240 134t176 36q197 0 219 -191h4q49 88 136.5 139.5t195.5 51.5q197 0 295 -133.5t98 -350.5v-33h-696v-34q0 -176 73 -290 t228 -114q80 0 145.5 38t145.5 110l80 -88q-182 -182 -389 -183q-264 0 -377 193q-115 -115 -190.5 -154t-170.5 -39q-133 0 -213.5 82t-80.5 213zM229 268q0 -84 48.5 -129t134.5 -45q63 0 139 55.5t119 120.5q-18 84 -19 262q-223 -31 -322.5 -86t-99.5 -178zM813 643h535 q0 121 -55.5 202t-172.5 81q-127 0 -205.5 -83t-101.5 -200z" />
<glyph unicode="&#xe7;" horiz-adv-x="909" d="M82 510q0 217 136 378t341 161q201 0 334 -170l-107 -84q-96 119 -221 118q-123 0 -215 -115.5t-92 -318.5q0 -166 91 -269.5t214 -103.5q63 0 128 39t104 93l84 -97q-143 -170 -344 -170q-197 0 -325 145.5t-128 393.5zM276 -416l33 82q70 -31 133 -31q43 0 78 20.5 t35 61.5q0 78 -96 78q-51 0 -78 -14l-35 43l129 176h98l-94 -123l4 -4q33 8 72 8q70 0 117 -40t47 -111q0 -96 -74 -144.5t-172 -48.5q-111 0 -197 47z" />
<glyph unicode="&#xe8;" horiz-adv-x="1024" d="M82 510q0 217 133 378t334 161q197 0 295 -133.5t98 -350.5v-33h-684v-34q0 -176 70.5 -290t218.5 -114q80 0 145.5 38t145.5 110l80 -88q-182 -182 -390 -183q-211 0 -328.5 143.5t-117.5 395.5zM236 1462h221l184 -293h-135zM272 643h506q0 121 -55 202t-172 81 q-109 0 -182.5 -84t-96.5 -199z" />
<glyph unicode="&#xe9;" horiz-adv-x="1024" d="M82 510q0 217 133 378t334 161q197 0 295 -133.5t98 -350.5v-33h-684v-34q0 -176 70.5 -290t218.5 -114q80 0 145.5 38t145.5 110l80 -88q-182 -182 -390 -183q-211 0 -328.5 143.5t-117.5 395.5zM272 643h506q0 121 -55 202t-172 81q-109 0 -182.5 -84t-96.5 -199z M383 1169l184 293h221l-270 -293h-135z" />
<glyph unicode="&#xea;" horiz-adv-x="1024" d="M82 510q0 217 133 378t334 161q197 0 295 -133.5t98 -350.5v-33h-684v-34q0 -176 70.5 -290t218.5 -114q80 0 145.5 38t145.5 110l80 -88q-182 -182 -390 -183q-211 0 -328.5 143.5t-117.5 395.5zM211 1169l205 293h188l209 -293h-160l-143 195l-139 -195h-160zM272 643 h506q0 121 -55 202t-172 81q-109 0 -182.5 -84t-96.5 -199z" />
<glyph unicode="&#xeb;" horiz-adv-x="1024" d="M82 510q0 217 133 378t334 161q197 0 295 -133.5t98 -350.5v-33h-684v-34q0 -176 70.5 -290t218.5 -114q80 0 145.5 38t145.5 110l80 -88q-182 -182 -390 -183q-211 0 -328.5 143.5t-117.5 395.5zM250 1188v209h188v-209h-188zM272 643h506q0 121 -55 202t-172 81 q-109 0 -182.5 -84t-96.5 -199zM586 1188v209h188v-209h-188z" />
<glyph unicode="&#xec;" horiz-adv-x="454" d="M-49 1462h221l184 -293h-135zM139 0l8 1020h164l-8 -1020h-164z" />
<glyph unicode="&#xed;" horiz-adv-x="454" d="M98 1169l185 293h221l-271 -293h-135zM139 0l8 1020h164l-8 -1020h-164z" />
<glyph unicode="&#xee;" horiz-adv-x="454" d="M-74 1169l205 293h188l209 -293h-159l-144 195l-139 -195h-160zM139 0l8 1020h164l-8 -1020h-164z" />
<glyph unicode="&#xef;" horiz-adv-x="454" d="M-35 1188v209h189v-209h-189zM139 0l8 1020h164l-8 -1020h-164zM301 1188v209h188v-209h-188z" />
<glyph unicode="&#xf0;" d="M82 510q0 215 134 377t364 162q170 0 268 -152l4 4q-76 285 -229 422l-275 -145l-67 88l243 131q-125 70 -229 98l53 117q180 -47 314 -148l264 142l67 -93l-239 -124q303 -293 303 -836q0 -256 -131 -419t-367 -163q-223 0 -350 143.5t-127 395.5zM258 510 q0 -203 86 -309.5t217 -106.5q127 0 223.5 108.5t96.5 307.5q0 203 -86 309.5t-217 106.5q-127 0 -223.5 -108.5t-96.5 -307.5z" />
<glyph unicode="&#xf1;" d="M156 0l8 1020h164l-6 -164h4q63 90 157.5 141.5t188.5 51.5q168 0 239.5 -80t71.5 -230q0 -39 -1 -116.5t-1 -116.5l-4 -506h-164l4 459q0 43 1 136t1 144q0 162 -186 162q-150 0 -305 -188l-9 -713h-163zM219 1180q10 94 62.5 155.5t130.5 61.5q68 0 170 -37 q98 -37 127 -37q98 0 104 94h107q-12 -94 -67.5 -155.5t-143.5 -61.5q-61 0 -159.5 37t-137.5 37q-37 0 -62.5 -27.5t-32.5 -66.5h-98z" />
<glyph unicode="&#xf2;" d="M82 510q0 215 134 377t364 162q223 0 350 -143.5t127 -395.5q0 -215 -134.5 -377t-363.5 -162q-223 0 -350 143.5t-127 395.5zM258 510q0 -203 86 -309.5t217 -106.5q127 0 223.5 108.5t96.5 307.5q0 203 -86 309.5t-217 106.5q-127 0 -223.5 -108.5t-96.5 -307.5z M293 1462h221l184 -293h-135z" />
<glyph unicode="&#xf3;" d="M82 510q0 215 134 377t364 162q223 0 350 -143.5t127 -395.5q0 -215 -134.5 -377t-363.5 -162q-223 0 -350 143.5t-127 395.5zM258 510q0 -203 86 -309.5t217 -106.5q127 0 223.5 108.5t96.5 307.5q0 203 -86 309.5t-217 106.5q-127 0 -223.5 -108.5t-96.5 -307.5z M440 1169l185 293h221l-271 -293h-135z" />
<glyph unicode="&#xf4;" d="M82 510q0 215 134 377t364 162q223 0 350 -143.5t127 -395.5q0 -215 -134.5 -377t-363.5 -162q-223 0 -350 143.5t-127 395.5zM258 510q0 -203 86 -309.5t217 -106.5q127 0 223.5 108.5t96.5 307.5q0 203 -86 309.5t-217 106.5q-127 0 -223.5 -108.5t-96.5 -307.5z M268 1169l205 293h189l208 -293h-159l-144 195l-139 -195h-160z" />
<glyph unicode="&#xf5;" d="M82 510q0 215 134 377t364 162q223 0 350 -143.5t127 -395.5q0 -215 -134.5 -377t-363.5 -162q-223 0 -350 143.5t-127 395.5zM219 1180q10 94 62.5 155.5t130.5 61.5q68 0 170 -37q98 -37 127 -37q98 0 104 94h107q-12 -94 -67.5 -155.5t-143.5 -61.5q-61 0 -159.5 37 t-137.5 37q-37 0 -62.5 -27.5t-32.5 -66.5h-98zM258 510q0 -203 86 -309.5t217 -106.5q127 0 223.5 108.5t96.5 307.5q0 203 -86 309.5t-217 106.5q-127 0 -223.5 -108.5t-96.5 -307.5z" />
<glyph unicode="&#xf6;" d="M82 510q0 215 134 377t364 162q223 0 350 -143.5t127 -395.5q0 -215 -134.5 -377t-363.5 -162q-223 0 -350 143.5t-127 395.5zM258 510q0 -203 86 -309.5t217 -106.5q127 0 223.5 108.5t96.5 307.5q0 203 -86 309.5t-217 106.5q-127 0 -223.5 -108.5t-96.5 -307.5z M307 1188v209h189v-209h-189zM643 1188v209h188v-209h-188z" />
<glyph unicode="&#xf7;" horiz-adv-x="1228" d="M96 451v135h1037v-135h-1037zM485 100.5q0 53.5 38 91t91.5 37.5t91 -37.5t37.5 -91t-37.5 -91.5t-91 -38t-91.5 38t-38 91.5zM485 936q0 53 38 91t91.5 38t91 -38t37.5 -91t-37.5 -91t-91 -38t-91.5 38t-38 91z" />
<glyph unicode="&#xf8;" d="M49 -18l139 159q-106 141 -106 369q0 215 134 377t364 162q188 0 311 -105l135 154l64 -58l-140 -159q106 -141 107 -371q0 -215 -134.5 -377t-363.5 -162q-193 0 -311 107l-135 -156zM258 510q0 -141 45 -238l485 555q-84 98 -210.5 98.5t-223 -108t-96.5 -307.5z M350 195q80 -100 211 -101q127 0 223.5 108.5t96.5 307.5q0 143 -45 240z" />
<glyph unicode="&#xf9;" d="M158 281q0 39 1 116.5t1 116.5l4 506h164l-4 -459q0 -43 -1 -136t-1 -144q0 -162 186 -162q150 0 305 188l8 713h164l-8 -1020h-164l6 164h-4q-63 -90 -157.5 -141.5t-188.5 -51.5q-168 0 -239.5 80t-71.5 230zM293 1462h221l184 -293h-135z" />
<glyph unicode="&#xfa;" d="M158 281q0 39 1 116.5t1 116.5l4 506h164l-4 -459q0 -43 -1 -136t-1 -144q0 -162 186 -162q150 0 305 188l8 713h164l-8 -1020h-164l6 164h-4q-63 -90 -157.5 -141.5t-188.5 -51.5q-168 0 -239.5 80t-71.5 230zM440 1169l185 293h221l-271 -293h-135z" />
<glyph unicode="&#xfb;" d="M158 281q0 39 1 116.5t1 116.5l4 506h164l-4 -459q0 -43 -1 -136t-1 -144q0 -162 186 -162q150 0 305 188l8 713h164l-8 -1020h-164l6 164h-4q-63 -90 -157.5 -141.5t-188.5 -51.5q-168 0 -239.5 80t-71.5 230zM268 1169l205 293h189l208 -293h-159l-144 195l-139 -195 h-160z" />
<glyph unicode="&#xfc;" d="M158 281q0 39 1 116.5t1 116.5l4 506h164l-4 -459q0 -43 -1 -136t-1 -144q0 -162 186 -162q150 0 305 188l8 713h164l-8 -1020h-164l6 164h-4q-63 -90 -157.5 -141.5t-188.5 -51.5q-168 0 -239.5 80t-71.5 230zM307 1188v209h189v-209h-189zM643 1188v209h188v-209h-188z " />
<glyph unicode="&#xfd;" horiz-adv-x="1024" d="M45 999l176 50l283 -830h4l309 830l162 -50l-455 -1126q-90 -219 -161.5 -287.5t-231.5 -68.5h-65v123q115 0 164 28.5t83 104.5l111 243zM383 1169l184 293h221l-270 -293h-135z" />
<glyph unicode="&#xfe;" d="M150 -516l16 2052h164l-4 -653h4q43 70 129 118t188 48q70 0 138.5 -28t131 -86t101.5 -167t39 -252q0 -213 -128 -379t-319 -166q-96 0 -172 38t-116 95h-5l-4 -620h-163zM319 270q106 -164 256 -164q131 0 218.5 123t87.5 281q0 197 -78 300t-193 103q-90 0 -166.5 -57 t-119.5 -131z" />
<glyph unicode="&#xff;" horiz-adv-x="1024" d="M45 999l176 50l283 -830h4l309 830l162 -50l-455 -1126q-90 -219 -161.5 -287.5t-231.5 -68.5h-65v123q115 0 164 28.5t83 104.5l111 243zM250 1188v209h188v-209h-188zM586 1188v209h188v-209h-188z" />
<glyph unicode="&#x2000;" horiz-adv-x="1024" />
<glyph unicode="&#x2001;" horiz-adv-x="2048" />
<glyph unicode="&#x2002;" horiz-adv-x="1024" />
<glyph unicode="&#x2003;" horiz-adv-x="2048" />
<glyph unicode="&#x2004;" horiz-adv-x="681" />
<glyph unicode="&#x2005;" horiz-adv-x="512" />
<glyph unicode="&#x2006;" horiz-adv-x="339" />
<glyph unicode="&#x2007;" />
<glyph unicode="&#x2008;" horiz-adv-x="569" />
<glyph unicode="&#x2009;" horiz-adv-x="204" />
<glyph unicode="&#x200a;" horiz-adv-x="20" />
<glyph unicode="&#x200b;" horiz-adv-x="0" />
<glyph unicode="&#x200c;" horiz-adv-x="0" />
<glyph unicode="&#x200d;" horiz-adv-x="0" />
<glyph unicode="&#x200e;" horiz-adv-x="681" />
<glyph unicode="&#x200f;" horiz-adv-x="681" />
<glyph unicode="&#x2010;" horiz-adv-x="819" d="M205 512v205h409v-205h-409z" />
<glyph unicode="&#x2011;" horiz-adv-x="819" d="M205 512v205h409v-205h-409z" />
<glyph unicode="&#x2012;" d="M205 512v205h729v-205h-729z" />
<glyph unicode="&#x2013;" horiz-adv-x="1024" d="M0 475v148h1024v-148h-1024z" />
<glyph unicode="&#x2014;" horiz-adv-x="2048" d="M0 475v148h2048v-148h-2048z" />
<glyph unicode="&#x2015;" horiz-adv-x="4096" d="M205 512v205h3686v-205h-3686z" />
<glyph unicode="&#x2016;" horiz-adv-x="909" d="M609 -29v1565h147v-1565h-147zM154 -29v1565h147v-1565h-147z" />
<glyph unicode="&#x2018;" horiz-adv-x="569" d="M156 926l153 491h80l-12 -491h-221z" />
<glyph unicode="&#x2019;" horiz-adv-x="569" d="M180 926l13 491h221l-154 -491h-80z" />
<glyph unicode="&#x201a;" horiz-adv-x="569" d="M186 -295l13 492h221l-154 -492h-80z" />
<glyph unicode="&#x201c;" d="M262 926l154 491h80l-13 -491h-221zM643 926l154 491h80l-13 -491h-221z" />
<glyph unicode="&#x201d;" d="M262 926l12 491h222l-154 -491h-80zM643 926l12 491h222l-154 -491h-80z" />
<glyph unicode="&#x201e;" d="M262 -295l12 492h222l-154 -492h-80zM643 -295l12 492h222l-154 -492h-80z" />
<glyph unicode="&#x2020;" d="M92 885v135h395l5 397h163l-4 -397h396v-135h-396l-8 -885h-164l8 885h-395z" />
<glyph unicode="&#x2021;" d="M111 336v135h370l4 479h-374v135h376l2 332h164l-2 -332h377v-135h-379l-4 -479h383v-135h-385l-2 -336h-164l2 336h-368z" />
<glyph unicode="&#x2022;" horiz-adv-x="1024" d="M158 708.5q0 147.5 103.5 251t250.5 103.5t250.5 -103.5t103.5 -251t-103.5 -251t-250.5 -103.5t-250.5 103.5t-103.5 251z" />
<glyph unicode="&#x2024;" horiz-adv-x="569" d="M190 0v197h189v-197h-189z" />
<glyph unicode="&#x2025;" d="M759 0v197h189v-197h-189zM190 0v197h189v-197h-189z" />
<glyph unicode="&#x2026;" horiz-adv-x="2048" d="M248 0v197h188v-197h-188zM930 0v197h188v-197h-188zM1612 0v197h188v-197h-188z" />
<glyph unicode="&#x202a;" horiz-adv-x="0" />
<glyph unicode="&#x202f;" horiz-adv-x="382" />
<glyph unicode="&#x2030;" horiz-adv-x="2048" d="M45 1102q0 125 85 220t247 95q160 0 246 -89t86 -226q0 -125 -85 -220.5t-247 -95.5q-160 0 -246 89.5t-86 226.5zM162 -20l915 1493l92 -56l-915 -1493zM193 1102q0 -96 47 -150.5t137 -54.5t137 54.5t47 150.5t-47 150.5t-137 54.5t-137 -54.5t-47 -150.5zM625 295 q0 125 85 220t246 95q160 0 246 -89t86 -226q0 -125 -85 -220t-247 -95q-160 0 -245.5 89t-85.5 226zM772 295q0 -96 47 -150.5t137.5 -54.5t137.5 54.5t47 150.5t-47 150.5t-137.5 54.5t-137.5 -54.5t-47 -150.5zM1339 295q0 125 85 220t247 95q160 0 246 -89t86 -226 q0 -125 -85 -220t-247 -95q-160 0 -246 89t-86 226zM1487 295q0 -96 47 -150.5t137 -54.5t137 54.5t47 150.5t-47 150.5t-137 54.5t-137 -54.5t-47 -150.5z" />
<glyph unicode="&#x2032;" horiz-adv-x="569" d="M211 926v491h147v-491h-147z" />
<glyph unicode="&#x2033;" d="M780 926v491h147v-491h-147zM211 926v491h147v-491h-147z" />
<glyph unicode="&#x2034;" horiz-adv-x="1708" d="M1350 926v491h147v-491h-147zM780 926v491h147v-491h-147zM211 926v491h147v-491h-147z" />
<glyph unicode="&#x2035;" horiz-adv-x="454" d="M-49 1462h221l184 -293h-135z" />
<glyph unicode="&#x2036;" horiz-adv-x="909" d="M406 1462h221l184 -293h-135zM-49 1462h221l184 -293h-135z" />
<glyph unicode="&#x2037;" horiz-adv-x="1363" d="M860 1462h221l184 -293h-135zM406 1462h221l184 -293h-135zM-49 1462h221l184 -293h-135z" />
<glyph unicode="&#x2039;" horiz-adv-x="569" d="M66 539l335 399l78 -57l-241 -342l223 -332l-80 -47z" />
<glyph unicode="&#x203a;" horiz-adv-x="569" d="M90 217l242 342l-223 332l79 47l316 -379l-336 -399z" />
<glyph unicode="&#x203c;" horiz-adv-x="1368" d="M932 0v197h176v-197h-176zM932 346l12 1071h176l-12 -1071h-176zM248 0v197h176v-197h-176zM248 346l12 1071h176l-12 -1071h-176z" />
<glyph unicode="&#x2044;" horiz-adv-x="344" d="M-332 -20l916 1493l92 -56l-916 -1493z" />
<glyph unicode="&#x2215;" horiz-adv-x="344" d="M-332 -20l916 1493l92 -56l-916 -1493z" />
<glyph unicode="&#x2047;" horiz-adv-x="2048" d="M1081 1272q106 90 195.5 132t212.5 42q182 0 315 -106.5t133 -284.5q0 -98 -39.5 -172t-96 -119t-113 -84t-96.5 -93.5t-40 -123.5v-117h-176v107q0 90 40 158.5t96 111.5l113 85q56 42 96 104.5t40 144.5q0 111 -84 182.5t-196 71.5q-168 0 -316 -144zM1376 0v197h176 v-197h-176zM57 1272q106 90 195.5 132t212.5 42q182 0 315 -106.5t133 -284.5q0 -98 -39.5 -172t-96 -119t-113 -84t-96.5 -93.5t-40 -123.5v-117h-176v107q0 90 40 158.5t96 111.5l113 85q56 42 96 104.5t40 144.5q0 111 -84 182.5t-196 71.5q-168 0 -316 -144zM352 0v197 h176v-197h-176z" />
<glyph unicode="&#x2048;" horiz-adv-x="1708" d="M1272 0v197h176v-197h-176zM1272 346l12 1071h176l-12 -1071h-176zM57 1272q106 90 195.5 132t212.5 42q182 0 315 -106.5t133 -284.5q0 -98 -39.5 -172t-96 -119t-113 -84t-96.5 -93.5t-40 -123.5v-117h-176v107q0 90 40 158.5t96 111.5l113 85q56 42 96 104.5t40 144.5 q0 111 -84 182.5t-196 71.5q-168 0 -316 -144zM352 0v197h176v-197h-176z" />
<glyph unicode="&#x2049;" horiz-adv-x="1708" d="M741 1272q106 90 195.5 132t212.5 42q182 0 315 -106.5t133 -284.5q0 -98 -39.5 -172t-96 -119t-113 -84t-96.5 -93.5t-40 -123.5v-117h-176v107q0 90 40 158.5t96 111.5l113 85q56 42 96 104.5t40 144.5q0 111 -84 182.5t-196 71.5q-168 0 -316 -144zM1036 0v197h176 v-197h-176zM248 0v197h176v-197h-176zM248 346l12 1071h176l-12 -1071h-176z" />
<glyph unicode="&#x2057;" horiz-adv-x="2277" d="M1919 926v491h147v-491h-147zM1350 926v491h147v-491h-147zM780 926v491h147v-491h-147zM211 926v491h147v-491h-147z" />
<glyph unicode="&#x205f;" horiz-adv-x="479" />
<glyph unicode="&#x2060;" horiz-adv-x="0" />
<glyph unicode="&#x20a8;" horiz-adv-x="2048" d="M1319 72l69 108q127 -86 225 -86q78 0 138.5 42t60.5 122q0 70 -49 114t-118.5 69.5t-138.5 55t-118 91t-49 155.5q0 139 99.5 222.5t244.5 83.5q170 0 297 -86l-76 -105q-123 68 -194 68q-94 0 -150.5 -42t-56.5 -128q0 -59 49 -99.5t117.5 -65t138.5 -56t119 -95 t49 -159.5q0 -139 -102.5 -224.5t-235.5 -85.5q-163 1 -319 101zM172 0l12 1417h428q205 0 328 -99t123 -274q0 -166 -100.5 -269t-255.5 -124v-4q27 -6 53 -21.5t53 -43t45.5 -49t45 -57.5t36.5 -48l285 -377l-156 -94l-334 455q-12 14 -34.5 44.5l-32.5 43.5l-30 35 q-19 23 -33.5 31.5t-36 20t-45 15.5t-52.5 4h-113l-8 -606h-178zM356 741h176q96 0 171 22.5t129.5 85t54.5 161.5q0 125 -77 204.5t-239 79.5h-211z" />
<glyph unicode="&#x20ac;" d="M51 498l47 133h90q-2 16 -2 74q0 51 2 69h-137l47 133h103q35 236 161.5 373t358.5 137q213 0 330 -90v-170q-111 106 -310 107q-162 0 -255 -97.5t-113 -259.5h592l-47 -133h-564q0 -8 -1 -32.5t-1 -36.5q0 -14 1 -40t1 -34h510l-45 -133h-446q25 -176 119 -270.5 t249 -94.5q188 0 310 107v-172q-109 -86 -330 -86q-217 0 -349 128t-169 388h-152z" />
</font>
</defs>
</svg>
