<?xml version="1.0" encoding="utf-8"?>
<!-- Generator: Adobe Illustrator 15.0.2, SVG Export Plug-In . SVG Version: 6.00 Build 0)  -->
<!DOCTYPE svg PUBLIC "-//W3C//DTD SVG 1.1//EN" "http://www.w3.org/Graphics/SVG/1.1/DTD/svg11.dtd">
<svg version="1.1" id="Ebene_1" xmlns="http://www.w3.org/2000/svg" xmlns:xlink="http://www.w3.org/1999/xlink" x="0px" y="0px"
	 width="86px" height="59px" viewBox="0 0 86 59" enable-background="new 0 0 86 59" xml:space="preserve">
<path d="M79.227,26.712L70.624,4.366c-1.992-4.372-3.09-5.724-9.097-1.26L1.587,42.039c-0.082,0.095-0.15,0.188-0.222,0.281
	c-0.753,0.344-1.298,1.322-1.298,2.479v11.311c0,1.441,0.847,2.611,1.891,2.611l77.026,0.191L79.227,26.712z"/>
<path d="M78.854,26.082l-18.518,7.555v-3.238l-1.758-1.658l-2.066,1.422v5.036l-1.349,0.551V25.44l-0.05-0.059l-1.559-1.894
	l-0.373,0.282l-1.922,1.362v12.207l-2.553,1.043v3.641l-47.12,0.018c-0.082,0.095-0.15,0.188-0.222,0.281
	c-0.753,0.344-1.298,1.322-1.298,2.479v11.311c0,1.441,0.847,2.611,1.891,2.611l77.026,0.191l6.942-2.087L86,31.063L78.854,26.082z
	 M54.742,35.919l-1.107,0.452L53.605,24.21l1.138,1.38L54.742,35.919L54.742,35.919z M58.859,29.392l1.195,1.129v3.229l-1.195,0.488
	V29.392z M85.507,56.255l-6.233,1.881v-31.19l6.306,4.375L85.507,56.255z"/>
<polygon fill="none" points="36.923,42.025 37.702,42.025 44.396,38.538 "/>
<polygon fill="none" points="31.432,42.029 32.982,42.027 44.218,37.369 "/>
<polygon fill="none" points="48.344,35.2 26.549,42.029 29.804,42.029 48.902,35.05 "/>
<polygon fill="none" points="4.571,42.037 12.511,42.034 43.384,35.177 "/>
<polygon fill="none" points="22.446,42.031 25.602,42.029 43.471,36.389 "/>
<polygon fill="none" points="47.977,34.492 13.824,42.034 20.296,42.032 48.738,34.357 "/>
<polygon fill="none" points="43.503,42.025 43.689,42.025 45.624,40.539 "/>
<polygon fill="none" points="48.882,37.438 41.607,42.025 42.531,42.025 49.816,36.896 "/>
<polygon fill="none" points="48.854,36.559 38.32,42.025 39.621,42.025 49.486,36.264 "/>
<polygon fill="none" points="40.735,42.025 41.078,42.025 44.389,39.914 "/>
<polygon fill="none" points="63.811,32.221 64.064,32.114 62.611,32.114 "/>
<polygon fill="none" points="65.15,31.557 65.465,31.544 66.223,31.234 62.535,31.559 "/>
<polygon fill="none" points="44.811,42.023 48.708,38.752 48.708,38.527 44.154,42.023 "/>
<polygon fill="none" points="72.499,28.673 72.834,28.538 71.125,28.916 "/>
<line fill="none" x1="53.605" y1="24.79" x2="53.605" y2="24.855"/>
<polygon fill="none" points="65.244,30.761 68.402,30.346 70.052,29.671 62.538,30.998 "/>
<polygon fill="none" points="46.693,42.023 48.708,40.009 48.708,39.645 46.111,42.023 "/>
<polygon fill="none" points="51.262,37.339 51.262,37.335 51.252,37.344 "/>
<polygon fill="none" points="45.68,42.023 45.691,42.023 45.831,41.896 "/>
<polygon fill="none" points="48.248,42.021 48.708,41.477 48.708,41.036 47.805,42.023 "/>
<polygon fill="none" points="48.918,35.775 33.726,42.027 35.605,42.027 49.023,35.736 "/>
<polygon fill="#FFFFFF" points="47.418,42.023 47.805,42.023 48.708,41.036 48.708,40.614 48.708,40.009 46.693,42.023 "/>
<polygon fill="#FFFFFF" points="48.708,42.021 48.708,41.477 48.248,42.021 "/>
<polygon fill="#FFFFFF" points="50.43,37.678 51.188,37.369 51.252,37.344 51.262,37.335 51.262,37.302 51.262,36.916 
	51.262,36.607 49.566,38.031 "/>
<polygon fill="#FFFFFF" points="45.68,42.023 45.831,41.896 45.691,42.023 46.111,42.023 48.708,39.645 48.708,39.257 
	48.708,38.752 44.811,42.023 "/>
<polygon fill="#FFFFFF" points="44.333,34.991 12.511,42.034 13.824,42.034 47.977,34.492 48.738,34.357 20.296,42.032 
	22.446,42.031 44.598,36.072 25.602,42.029 26.549,42.029 48.344,35.2 48.902,35.05 29.804,42.029 31.432,42.029 44.977,37.096 
	32.982,42.027 33.726,42.027 49.023,35.736 49.131,35.698 35.605,42.027 36.923,42.025 45.473,38.002 37.702,42.025 38.32,42.025 
	48.854,36.559 49.486,36.264 39.621,42.025 40.735,42.025 46.027,38.878 41.078,42.025 41.607,42.025 48.938,37.379 49.874,36.839 
	42.531,42.025 43.503,42.025 46.671,39.783 43.689,42.025 44.154,42.023 48.708,38.527 48.708,38.382 49.117,38.215 50.354,37.406 
	51.262,36.588 51.262,36.568 51.262,36.21 51.262,35.87 51.262,35.533 51.262,35.283 51.262,34.961 51.262,34.757 51.262,34.448 
	51.262,34.229 51.262,33.93 51.262,33.721 51.262,33.428 51.262,33.268 51.262,32.98 51.262,32.854 51.262,32.57 51.262,32.363 
	51.262,32.078 51.262,31.932 51.262,31.645 51.262,31.498 51.262,31.206 51.262,31.023 51.262,30.727 51.262,30.529 51.262,30.223 
	51.262,30.027 51.262,29.706 51.262,29.486 51.262,29.148 51.262,28.85 51.262,28.492 51.262,28.096 51.262,27.711 51.262,27.251 
	51.262,26.83 51.262,26.271 51.262,25.804 51.262,25.132 51.293,25.108 43.902,14.556 43.433,14.86 49.271,23.129 43.05,15.107 
	42.812,15.263 51.262,26.271 42.323,15.581 41.852,15.886 48.453,23.743 41.462,16.14 41.219,16.297 51.146,27.048 40.687,16.644 
	40.208,16.954 47.664,24.416 39.803,17.217 39.557,17.377 50.609,27.53 38.967,17.761 38.479,18.077 46.875,25.146 38.047,18.358 
	37.794,18.522 50.154,28.039 37.185,18.918 36.682,19.245 46.291,25.992 36.198,19.559 35.937,19.729 49.703,28.492 35.3,20.141 
	34.777,20.482 45.766,26.84 34.221,20.843 33.947,21.021 49.363,29.03 33.217,21.495 32.666,21.853 45.238,27.746 32.033,22.264 
	31.742,22.453 49.08,29.653 30.859,23.026 30.274,23.406 44.843,28.704 29.539,23.884 29.229,24.085 48.854,30.275 28.197,24.755 
	27.569,25.164 44.537,29.704 26.65,25.76 26.316,25.977 48.693,30.93 25.087,26.776 24.402,27.22 44.275,30.695 23.251,27.967 
	22.884,28.206 48.543,31.605 21.282,29.247 20.524,29.739 44.157,31.777 19.067,30.686 18.657,30.952 48.158,32.264 48.4,32.284 
	16.515,32.346 15.657,32.9 44.1,32.859 13.61,34.229 13.14,34.535 48.486,32.992 10.326,36.363 9.331,37.01 44.188,33.969 
	6.415,38.902 5.86,39.264 48.486,33.699 48.593,33.689 1.67,41.982 1.587,42.039 4.571,42.037 "/>
<polygon fill="#FFFFFF" points="0.839,42.698 0.839,42.698 0.839,42.697 "/>
<polygon fill="#FFFFFF" points="59.855,30.333 59.637,30.127 59.594,30.086 59.381,29.885 59.331,29.836 59.121,29.639 59.1,29.62 
	58.893,29.424 58.859,29.392 58.859,29.454 58.859,30.197 58.859,30.218 58.859,34.186 58.859,34.195 58.859,34.239 58.893,34.227 
	58.904,34.221 59.523,33.968 59.59,33.941 59.936,33.8 59.996,33.775 60.055,33.751 60.055,33.493 60.055,33.432 60.055,33.131 
	60.055,33.074 60.055,32.782 60.055,32.729 60.055,32.441 60.055,32.402 60.055,32.117 60.055,32.064 60.055,31.779 60.055,31.73 
	60.055,31.443 60.055,31.37 60.055,31.078 60.055,31.016 60.055,30.717 60.055,30.635 60.055,30.521 59.911,30.385 "/>
<polygon fill="#FFFFFF" points="79.273,44.704 79.273,44.813 79.404,44.779 "/>
<polygon fill="#FFFFFF" points="53.184,23.77 53.205,23.753 48.718,11.427 48.238,11.739 51.906,21.814 47.839,11.998 
	47.596,12.155 52.585,24.194 52.822,24.025 "/>
<path fill="#FFFFFF" d="M55.068,25.327l0.045,0.055l0.05,0.059v0.595v1.329v1.317v0.095v6.972l0.396-0.162l0.015-0.006l0.618-0.252
	l0.002-0.001l0.318-0.13v-5.036l1.764-1.212l0.22-0.151l0.084-0.059l0.185,0.174l0.063,0.058l0.207,0.196l0.067,0.065l0.207,0.196
	l0.039,0.037l0.209,0.197l0.07,0.067l0.213,0.202l0.063,0.058l0.221,0.205l0.074,0.072l0.141,0.131v0.119v0.111v0.298v0.091v0.291
	v0.101v0.286v0.072v0.287v0.074v0.285v0.064v0.287v0.078v0.292v0.083v0.299v0.092v0.026l0.033-0.014l0.129-0.054l0.414-0.168
	l0.219-0.09l0.463-0.188l0.356-0.146l0.532-0.217l0.56-0.229l0.632-0.258l0.137-0.056l-1.344-0.133l1.6,0.026l0.617-0.252
	l0.781-0.317l-0.313,0.013l-2.74,0.021l3.811-0.344l1.144-0.467l1.039-0.424l-3.159,0.416l-2.947,0.279l7.756-1.369l2.446-0.998
	l-6.106,1.322l6.441-1.457l1.564-0.64l-9.717,2.155l-2.555,0.449l16.844-4.483l-0.201-0.523L66.217,29.09l12.422-3.935l-0.103-0.267
	l-14.162,4.465l-2.388,0.668l16.25-5.912l-0.2-0.52l-12.17,4.681L77.9,23.24l-0.104-0.266l-13.96,5.784l-2.089,0.761l15.742-7.342
	l-0.201-0.521l-11.773,5.769l11.646-6.101l-0.104-0.267l-13.05,6.795l-2.476,1.208l15.218-8.8l-0.202-0.526l-11.501,6.874
	l11.361-7.233l-0.104-0.271l-12.91,8.226l-2.142,1.276l14.741-10.315l-0.206-0.536l-11.293,8.15l11.13-8.572l-0.105-0.277
	L62.292,27.205l-1.353,0.976l14.254-11.963l-0.213-0.55l-10.985,9.477l10.813-9.923L74.7,14.937l-12.55,11.5l-1.58,1.349
	l13.771-13.777l-0.221-0.567L63.383,24.444l10.538-11.527l-0.114-0.296L61.352,26.214l-1.148,1.203l13.219-15.798l-0.229-0.594
	L62.682,23.86l10.273-13.445l-0.118-0.313L60.764,25.839l-1.013,1.239L72.406,8.986L72.163,8.36L61.922,23.305l9.949-15.704
	l-0.128-0.329L59.822,25.989l-0.496,0.776L71.27,6.041l-0.259-0.669L61.133,22.81l9.541-18.339l-0.05-0.131
	c-0.019-0.095-0.04-0.184-0.06-0.275L59.686,24.991l-0.865,1.5l11.234-24.1c-0.097-0.237-0.199-0.456-0.31-0.656l-9.46,20.635
	l8.893-21.446c-0.07-0.077-0.145-0.149-0.219-0.216L58.893,25.017l-0.5,1.211l9.467-26.102c-0.18-0.043-0.369-0.066-0.567-0.07
	L59.38,22.019l6.938-21.845c-0.107,0.027-0.217,0.059-0.328,0.095l-7.93,25.166l-0.233,0.567l6.709-25.077
	c-0.224,0.126-0.455,0.268-0.688,0.42l-5.285,20.353l4.351-19.701c-0.115,0.087-0.233,0.177-0.353,0.268L57.583,24.73l-0.295,1.1
	l3.974-22.55l-0.641,0.416l-3.023,17.769l2.289-17.292l-0.313,0.204l-2.734,20.78l-0.09,0.533l1.773-20.633L57.93,5.442
	l-1.238,15.875l0.652-15.495l-0.293,0.19L56.27,25.606l0.015-19.092l-0.558,0.36l0.09,14.385l-0.604-14.05l-0.276,0.18l0.793,18.132
	v0.038L54.18,7.879l-0.531,0.344l1.176,13.065L53.146,8.55l-0.265,0.171l2.255,16.884L52.229,9.146l-0.508,0.331l2.137,11.929
	L51.262,9.775L51.007,9.94l3.173,14.305l0.399,0.485L55.068,25.327z"/>
<polygon fill="#FFFFFF" points="51.924,24.662 45.491,13.523 45.023,13.826 50.119,22.633 44.663,14.061 44.425,14.215 
	51.346,25.072 51.576,24.908 "/>
<polygon fill="#FFFFFF" points="53.797,24.443 53.604,24.21 53.605,24.79 53.605,24.855 53.609,25.925 53.611,26.672 53.613,27.208 
	53.613,27.827 53.613,28.104 53.616,28.637 53.617,28.872 53.617,29.34 53.617,29.4 53.619,29.822 53.619,29.869 53.62,30.256 
	53.62,30.301 53.625,32.466 53.625,32.466 53.629,34.359 53.63,34.391 53.632,35.129 53.632,35.238 53.632,35.659 53.633,35.82 
	53.635,36.286 53.635,36.371 53.795,36.307 54.252,36.118 54.377,36.066 54.742,35.919 54.742,35.366 54.742,35.35 54.742,28.658 
	54.742,28.39 54.742,27.44 54.742,26.782 54.742,25.591 54.38,25.153 "/>
<polygon fill="#FFFFFF" points="53.557,23.488 54.137,24.194 50.418,10.321 49.927,10.642 52.895,21.552 49.525,10.903 
	49.277,11.063 53.266,23.708 53.507,23.525 "/>
<polygon fill="#FFFFFF" points="52.55,24.219 47.079,12.491 46.607,12.797 50.995,22.137 46.232,13.04 45.994,13.196 51.954,24.64 
	52.189,24.475 "/>
<polygon fill="#FFFFFF" points="79.35,26.998 79.273,26.946 79.273,27.109 79.383,27.084 "/>
<path d="M51.262,36.588v0.021v0.308v0.386v0.033v0.004l-0.01,0.006l-0.063,0.024l-0.76,0.31l-0.861,0.354l-0.45,0.184l-0.409,0.167
	v0.146v0.225v0.505v0.388v0.365v0.604v0.422v0.438v0.547h-0.46l-0.442,0.002h-0.388h-0.724h-0.582h-0.422H45.68h-0.869h-0.654
	l-0.467,0.002h-0.186h-0.972h-0.924h-0.529h-0.342h-1.114H38.32h-0.618h-0.779l-1.318,0.002h-1.879h-0.743l-1.55,0.002h-1.628
	l-3.255,0.001h-0.947l-3.156,0.001l-2.15,0.001l-6.472,0.002h-1.313l-7.939,0.003l-2.984,0.002c-0.082,0.095-0.15,0.188-0.222,0.282
	c-0.095,0.043-0.187,0.097-0.275,0.161c0,0-0.001,0-0.002,0C1,42.546,0.917,42.617,0.839,42.697c0,0.001,0,0.001,0,0.001
	c-0.468,0.474-0.772,1.237-0.772,2.101v2.664v0.576v4.828v0.594v2.688c0,1.022,0.428,1.906,1.049,2.334
	c0.009,0.006,0.017-0.026,0.026-0.021c0.085,0.058,0.174,0.144,0.266,0.183c0.174,0.074,0.359,0.112,0.55,0.112l77.026,0.099
	l6.942-2.088L86,31.063l-7.146-4.98L74.4,27.898l-1.565,0.64L72.5,28.673l-2.447,0.998l-1.648,0.673l-1.038,0.424l-1.144,0.467
	l-0.757,0.31l-0.782,0.317l-0.617,0.253l-0.256,0.106l-0.137,0.055l-0.632,0.258l-0.56,0.229l-0.532,0.217l-0.356,0.146
	l-0.463,0.188l-0.219,0.09l-0.414,0.168l-0.129,0.054l-0.033,0.015v-0.027V33.52v-0.299v-0.084v-0.291v-0.08v-0.287v-0.063V32.13
	v-0.075V31.77v-0.072V31.41v-0.1v-0.293v-0.09V30.63v-0.112V30.4l-0.141-0.133l-0.074-0.07L59.9,29.989l-0.063-0.058l-0.213-0.202
	l-0.07-0.067l-0.209-0.197l-0.039-0.037L59.1,29.233l-0.066-0.065l-0.207-0.196l-0.063-0.058l-0.186-0.174l-0.084,0.059
	l-0.221,0.151l-1.764,1.212v5.036l-0.316,0.13l-0.002,0.001l-0.619,0.252l-0.014,0.006l-0.396,0.162v-6.972v-0.095v-1.317v-1.329
	V25.44l-0.049-0.059l-0.045-0.055l-0.49-0.596l-0.398-0.485l-0.043-0.051l-0.582-0.706l-0.049,0.037l-0.24,0.183l-0.062,0.046
	l-0.022,0.017l-0.359,0.255l-0.237,0.168l-0.035,0.025l-0.36,0.256l-0.234,0.166l-0.03,0.022l-0.348,0.246l-0.231,0.165
	l-0.052,0.036l-0.032,0.023v0.672v0.467v0.559v0.421v0.46v0.385v0.396v0.358v0.299v0.337v0.22v0.322v0.195v0.308v0.194v0.299v0.183
	V31.5v0.146v0.287v0.146v0.285v0.207v0.283v0.127v0.287v0.16v0.291v0.209v0.299v0.222v0.309v0.204v0.322v0.25v0.337v0.34"/>
<polygon fill="#FFFFFF" points="54.742,35.919 53.635,36.371 53.604,24.21 54.742,25.591 "/>
<polygon fill="#FFFFFF" points="60.055,33.751 58.859,34.239 58.859,29.392 60.055,30.521 "/>
<polygon fill="#FFFFFF" points="74.932,53.803 72.68,53.803 72.68,33.326 74.932,32.438 "/>
<polygon fill="#FFFFFF" points="68.305,53.803 66.448,53.803 66.448,35.717 68.305,34.96 "/>
<polygon fill="#FFFFFF" points="62.754,53.803 61.105,53.803 61.105,37.949 62.754,37.271 "/>
<polygon fill="#FFFFFF" points="85.507,56.255 79.273,58.136 79.227,26.712 85.578,31.32 "/>
<path fill="#FFFFFF" d="M53.613,56.443c-0.084-0.213-0.161-0.476-0.161-0.897v-3.708c0-0.634-0.288-1.006-0.577-1.136
	c0.289-0.149,0.577-0.522,0.577-1.155v-2.422c0-0.579,0.146-0.857,0.253-1.119H52.37c-0.106,0.262-0.252,0.561-0.252,1.119v2.422
	c0,0.391-0.235,0.467-0.507,0.467h-0.828v-6.654l0,0v-0.346H24.734v0.819h0.015v10.873c0,0.715,0.355,1.349,0.894,1.719
	l-2.228-0.001V43.359h-0.002v-0.346H3.489c-1.344,0-2.438,1.123-2.438,2.504V57.23H1.46l54.177,0.035v-0.82L53.613,56.443z
	 M7.013,56.415c0.528-0.374,0.878-1.001,0.878-1.708v-2.684c0-0.765-0.595-1.379-1.334-1.379H5.223v-3.261h1.334v1.38h1.334v-0.803
	c0-1.136-0.902-2.066-2.001-2.066c-1.1,0-2.001,0.932-2.001,2.066v2.684c0,0.765,0.595,1.379,1.334,1.379h1.334v3.262H5.223v-1.379
	H3.888v0.801c0,0.706,0.348,1.332,0.875,1.706l-2.891-0.001V45.52c0-0.929,0.726-1.686,1.618-1.686h5.573v10.873
	c0,0.709,0.35,1.336,0.879,1.709L7.013,56.415z M16.744,55.285H15.41v-5.087h1.334V55.285z M22.081,55.285h-1.334v-7.9h1.334V55.285
	z M22.081,46.006h-1.334c-0.739,0-1.334,0.614-1.334,1.379v7.9c0,0.474,0.229,0.889,0.58,1.138l-1.914-0.001v-9.037
	c0-0.765-0.595-1.379-1.334-1.379h-2.38v1.379h2.38v1.436h-1.334c-0.739,0-1.333,0.615-1.333,1.379v5.087
	c0,0.473,0.228,0.886,0.575,1.134l-2.467-0.001c0.53-0.374,0.881-1.001,0.881-1.711v-0.801h-1.334v1.379h-1.334v-7.899h1.983v-1.38
	h-1.983v-2.172h11.684v2.171H22.081z M47.105,56.439v-9.056h1.334v-1.379h-1.334c-0.739,0-1.334,0.614-1.334,1.379v9.056
	l-2.246-0.002c0.545-0.371,0.912-1.008,0.912-1.73v-0.801h-1.335v1.379h-1.333v-3.262h2.668v-4.063c0-1.136-0.9-2.066-2-2.066
	s-2.002,0.932-2.002,2.066v6.745c0,0.721,0.364,1.358,0.91,1.729l-2.841-0.002c0.36-0.246,0.598-0.668,0.598-1.149v-9.279h-1.335
	v9.279h-1.333v-9.279h-1.335v9.279h-1.334v-9.279h-1.334V56.43h-1.334v-1.146h-1.334v1.144l-1.905-0.001
	c0.539-0.37,0.896-1.005,0.896-1.721v-0.802H27.42v1.38h-1.334v-7.9h1.983v-1.379h-1.983v-2.172H49.45v12.606H47.105z
	 M41.769,50.645v-3.26h1.333v3.26H41.769z M50.783,56.441v-5.051h0.828c0.397,0.019,0.507,0.241,0.507,0.446v3.708
	c0,0.41,0.077,0.68,0.161,0.898L50.783,56.441z"/>
</svg>
